<?xml version="1.0" encoding="utf-8"?>
<!-- Generator: Adobe Illustrator 28.3.0, SVG Export Plug-In . SVG Version: 6.00 Build 0)  -->
<svg version="1.1" id="Layer_1" xmlns="http://www.w3.org/2000/svg" xmlns:xlink="http://www.w3.org/1999/xlink" x="0px" y="0px"
	 viewBox="0 0 850.32 567" style="enable-background:new 0 0 850.32 567;" xml:space="preserve">
<g>
	<path d="M289.48,28.54c63.04-0.35,125.83-2.77,188.89-0.77c-0.55,1.66-1.08,3.52-1.77,5.32c-5.27,13.74-10.54,27.48-15.89,41.19
		c-4.66,11.95-8.5,24.16-11.83,36.53c-2.89,10.74-5.9,21.46-8.3,32.31c-2.27,10.27-3.87,20.69-5.66,31.05
		c-1.23,7.13-2.45,14.28-3.38,21.45c-0.78,6.05-1.33,12.15-1.63,18.24c-0.47,9.7-0.84,19.41-0.87,29.11
		c-0.05,13.93,3.51,27.12,10.17,39.22c3.4,6.17,7.92,11.87,12.64,17.15c7.64,8.56,15.82,16.63,23.84,24.84
		c9.16,9.38,18.71,18.4,27.53,28.09c7.81,8.58,15.13,17.63,22.13,26.88c6.76,8.93,10.87,19.17,12.95,30.26
		c2.21,11.77,2.37,23.62,1.57,35.48c-0.59,8.77-2.3,17.39-4.34,25.97c-3.11,13.13-7.6,25.72-13.96,37.58
		c-3.27,6.1-7.12,11.89-10.79,17.77c-3.17,5.08-6.45,10.08-9.69,15.12c-0.48,0.75-0.88,1.86-1.57,2.11
		c-1.18,0.44-2.56,0.45-3.86,0.43c-3.13-0.05-6.27-0.29-9.4-0.32c-3.18-0.03-6.37,0.12-9.55,0.16c-4.79,0.05-9.57,0.1-14.36,0.07
		c-4.24-0.03-8.47-0.22-12.71-0.25c-6.24-0.04-12.48,0.01-18.72-0.01c-3.61-0.01-7.22-0.12-10.83-0.15
		c-4.59-0.03-9.18-0.02-13.77-0.03c-4.73-0.01-9.45-0.02-14.18-0.06c-5.86-0.05-11.72-0.16-17.58-0.2
		c-3.59-0.03-7.18,0.01-10.77,0.03c-4.84,0.03-9.68,0.08-14.52,0.09c-4.41,0.02-8.83,0.03-13.24,0c-2.5-0.02-5.01-0.18-7.51-0.22
		c-4.95-0.08-9.9-0.15-14.85-0.18c-3.99-0.03-7.99,0.01-11.98,0.02c-1.08,0-1.75-0.45-2.48-1.37c-3.62-4.54-7.27-9.07-11.15-13.39
		c-8.57-9.52-15.79-20-22.23-31.02c-4.86-8.32-9.71-16.66-14.16-25.2c-4.95-9.52-8.89-19.52-11.83-29.83
		c-2.06-7.22-3.86-14.57-5.02-21.99c-1.29-8.28-1.25-16.66,0.12-25.04c1.45-8.87,3.2-17.65,6.58-25.98
		c6.64-16.35,14.02-32.36,25.45-46.02c5.68-6.79,11.92-13.14,18.17-19.42c8.58-8.63,17.33-17.08,26.15-25.47
		c6.38-6.07,13.01-11.87,19.46-17.85c9.74-9.03,16.41-19.96,20.67-32.55c2.73-8.07,2.88-16.15,1.97-24.44
		c-1.31-11.95-3.55-23.75-6.31-35.43c-1.56-6.61-3.57-13.16-5.89-19.55c-5.34-14.65-10.74-29.29-16.59-43.75
		c-6.01-14.85-12.34-29.6-19.01-44.17c-4.58-10-9.97-19.63-15-29.43C290.23,30.21,289.9,29.45,289.48,28.54z M445.6,49.17
		c-0.15-0.23-0.3-0.47-0.45-0.7c-39.76,0.67-79.53,0.8-119.7,2.8c0.68,1.13,0.98,1.84,1.47,2.41c2.06,2.39,4.14,4.76,6.26,7.1
		c5.7,6.29,11.4,12.6,18.38,17.53c2.19,1.55,4.38,3.21,6.81,4.26c2.33,1.01,4.96,1.35,7.48,1.87c8.93,1.84,17.93,2.7,26.93,0.72
		c9.82-2.17,19.19-5.58,27.88-10.75c5.8-3.45,11.49-6.96,15.54-12.57C439.3,57.58,442.47,53.39,445.6,49.17z"/>
	<path d="M601.87,539.57c0-3.1,0.05-6.21-0.01-9.32c-0.22-11.75-0.46-23.49-0.72-35.24c-0.14-6.41-0.25-12.83-0.53-19.24
		c-0.41-9.51-0.89-19.01-1.48-28.51c-0.52-8.43-1.6-16.78-3.62-25.01c-2.17-8.82-5.42-17.22-9.54-25.29
		c-4.34-8.47-8.54-17.04-13.35-25.24c-5.18-8.82-11.02-17.25-16.53-25.87c-5.22-8.17-10.33-16.42-15.58-24.57
		c-7.41-11.5-14.25-23.33-19.54-35.95c-3.51-8.36-6.63-16.92-9.41-25.56c-3-9.33-5.78-18.76-7.95-28.31
		c-2.12-9.3-3.4-18.8-4.94-28.23c-1.33-8.11-0.53-16.25,0.04-24.37c0.41-5.83,0.64-11.69,1.3-17.5c1.3-11.52,2.24-23.13,4.42-34.5
		c2.72-14.21,7.71-27.76,15.19-40.27c5.32-8.9,11.18-17.43,18.3-25c6.2-6.59,12.6-12.99,18.91-19.46c0.25-0.25,0.53-0.5,0.84-0.67
		c8.9-4.7,17.58-9.97,27.32-12.74c9.01-2.56,18.21-4.5,27.35-6.58c5.07-1.16,10.17-2.34,15.32-2.98c5.69-0.71,11.45-1.06,17.19-1.11
		c15.56-0.13,30.95,1.89,46.32,4.03c5.51,0.77,11.07,1.26,16.5,2.36c3.3,0.67,6.44,2.2,9.6,3.47c14.48,5.83,28.24,13.09,41.26,21.69
		c6.94,4.58,13.81,9.32,20.29,14.51c6.88,5.51,12.73,12.13,17.78,19.4c6.99,10.05,11.94,21.15,16.39,32.47
		c3.22,8.18,6.13,16.49,9.03,24.79c3.84,10.98,5.96,22.32,6.07,33.96c0.1,10.06,0.11,20.14-0.32,30.18
		c-0.26,5.89-1.29,11.78-2.3,17.61c-1.23,7.07-2.37,14.19-4.34,21.07c-2.05,7.16-4.82,14.14-7.69,21.03
		c-5.58,13.38-12.6,26.05-19.4,38.84c-4.4,8.28-8.48,16.77-12.18,25.39c-5.21,12.15-10.18,24.41-14.76,36.81
		c-2.44,6.6-3.93,13.56-5.68,20.4c-1.56,6.08-3.1,12.19-4.24,18.36c-1.11,5.99-2,12.05-2.49,18.12c-1.59,19.58-1.74,39.2-1.59,58.83
		c0.09,11.1,0.07,22.19,0.12,33.29c0.04,9.47,0.08,18.95,0.17,28.42c0.02,1.53-0.61,2-2.04,1.95c-9.29-0.31-18.58-0.55-27.87-0.87
		c-8.09-0.28-16.17-0.66-24.26-0.95c-17.49-0.63-34.98-1.23-52.48-1.84c-13.66-0.47-27.32-0.94-40.98-1.4
		c-0.9-0.03-1.79-0.02-2.69-0.08C602.72,539.87,602.38,539.71,601.87,539.57z M628.48,413.78c0.04-0.55,0.11-1.02,0.11-1.48
		c0.11-27.27,0.2-54.55,0.32-81.82c0.03-6.05,0.13-12.1,0.13-18.15c0-0.42-0.53-0.98-0.96-1.25c-3.41-2.11-7.09-3.86-10.25-6.29
		c-6.42-4.92-12.66-10.07-18.79-15.35c-6.11-5.26-11.43-11.31-15.73-18.12c-3.8-6.03-6.8-12.54-8.43-19.53
		c-1.82-7.8-3.37-15.65-5.02-23.49c-0.74-3.51-1.76-7-2.08-10.55c-0.83-9.35-0.58-18.67,2.09-27.77c1.16-3.94,2.02-8.05,3.82-11.69
		c3.37-6.81,8.78-11.93,15.24-15.89c4.4-2.7,9.12-4.77,14.15-5.96c5.05-1.19,10.13-0.72,15.03,0.78c2.13,0.65,4.12,1.93,6,3.18
		c3.33,2.2,6.73,4.36,9.74,6.95c4.37,3.76,6.99,8.83,9.23,14.06c2.57,5.99,5.14,11.93,6.3,18.44c1.73,9.72,1.75,19.54,2.1,29.34
		c0.21,5.87,0.18,11.76,0.14,17.64c-0.08,10.77-0.22,21.54-0.38,32.32c-0.06,4.02-0.21,8.03-0.35,12.05
		c-0.04,1.04,0.18,1.74,1.42,1.79c5.39,0.23,10.78,0.46,16.17,0.75c1.34,0.07,1.78-0.37,1.75-1.73c-0.15-6.59-0.14-13.18-0.32-19.77
		c-0.31-11.62-0.9-23.24-1.04-34.86c-0.15-12.43-1.21-24.92,1.81-37.24c2.14-8.75,4.34-17.32,10.05-24.71
		c5.65-7.31,11.76-13.72,20.87-16.56c1.08-0.34,2.07-1.17,2.93-1.96c1.52-1.38,3.09-2.21,5.18-1.39c5.79,2.28,11.62,4.45,17.35,6.86
		c2.46,1.04,4.65,2.71,7.08,3.83c2.67,1.23,5.54,2.09,6.48,5.37c0.04,0.15,0.25,0.25,0.35,0.4c2.2,3.35,4.73,6.53,6.54,10.07
		c4.65,9.1,6.74,18.87,6.67,29.1c-0.03,4.86,0.15,9.72,0.04,14.58c-0.13,5.87-0.28,11.74-0.77,17.59
		c-0.57,6.7-2.32,13.18-5.05,19.35c-2.1,4.75-4.16,9.54-6.67,14.08c-3.7,6.68-9.17,11.96-14.89,16.86
		c-9.85,8.46-21.23,14.5-33.01,19.81c-3.32,1.5-3.47,1.59-3.34,5.08c0.02,0.47,0.18,0.94,0.2,1.42c0.39,13.18,0.77,26.36,1.15,39.54
		c0.19,6.47,0.34,12.94,0.59,19.41c0.38,10.05,0.82,20.1,1.26,30.15c0.11,2.43,0.35,4.86,0.54,7.5c8.92,0,17.59,0,26.26,0
		c0-0.42-0.05-0.88,0.01-1.32c0.67-4.8,1.23-9.61,2.07-14.38c1.72-9.77,3.74-19.49,5.37-29.27c2.89-17.31,8.92-33.57,17.05-48.95
		c5.81-10.99,12.91-21.3,19.37-31.95c3.82-6.3,8.11-12.4,11.12-19.07c6.7-14.83,11.91-30.26,14.83-46.31
		c1.51-8.32,2.73-16.75,3.19-25.18c0.78-14.31,0.07-28.61-2.98-42.69c-2.9-13.43-6.61-26.55-13.47-38.63
		c-5.96-10.49-10.29-21.96-19.19-30.62c-4.63-4.51-8.28-9.95-14.43-12.93c-5.91-2.87-11.34-6.72-17.16-9.78
		c-7.21-3.79-14.48-7.55-22.46-9.51c-17.75-4.35-35.56-8.41-53.94-8.97c-5.49-0.17-10.94-0.32-16.38,1.24
		c-6.44,1.85-13.07,3.02-19.55,4.74c-10.52,2.78-20.75,6.4-30.06,12.12c-11.87,7.29-23.18,15.35-32.4,25.97
		c-2.34,2.69-5.12,5.28-6.54,8.43c-4.79,10.61-8.88,21.49-11.28,32.98c-2.62,12.52-4.15,25.15-4.72,37.88
		c-0.28,6.27,0.18,12.57,0.35,18.86c0.03,1.19,0.16,2.4,0.4,3.56c1.26,6.01,2.59,12,3.85,18c2.65,12.57,5.67,24.98,11.12,36.75
		c4.46,9.62,9.22,18.98,15.13,27.82c4.93,7.39,9.31,15.15,13.67,22.9c3.31,5.89,6.5,11.88,9.2,18.06c3.54,8.1,6.57,16.43,9.79,24.67
		c5.45,13.96,9.1,28.49,13.3,42.84c2.67,9.12,4.99,18.34,7.52,27.5c0.73,2.66,0.81,2.64,3.59,2.52c0.78-0.03,1.56-0.04,2.34-0.04
		C622.31,413.78,625.35,413.78,628.48,413.78z M729.78,221.56c-0.27-4.48-0.53-8.95-0.81-13.43c-0.21-3.3-0.54-6.52-3.48-8.8
		c-0.87-0.67-1.58-1.65-2.12-2.63c-2.06-3.66-5.23-6.22-8.46-8.69c-2.22-1.7-3.83-1.41-5.78,0.6c-1.08,1.11-2.19,2.18-3.33,3.23
		c-1.27,1.18-2.53,2.35-3.87,3.45c-2.05,1.69-2.23,4.13-2.68,6.45c-1.18,6.15-2.8,12.28-3.32,18.5c-0.71,8.32-0.54,16.72-0.78,25.08
		c-0.06,2.19-0.48,4.39-0.36,6.57c0.28,4.83,0.87,9.64,1.2,14.47c0.31,4.47,0.41,8.96,0.67,13.44c0.09,1.59,0.93,2.03,2.27,1.21
		c2.75-1.69,5.47-3.42,8.17-5.19c4.71-3.1,9.04-6.66,12.81-10.89c2.05-2.29,3.38-4.92,4.21-7.82c0.43-1.49,0.65-3.04,1.08-4.53
		C728.15,242.46,729.3,232.08,729.78,221.56z M620.62,442.73c0,6.09,0.04,12.15-0.03,18.2c-0.02,1.32,0.28,1.71,1.67,1.73
		c10.24,0.12,20.47,0.41,30.71,0.51c18.76,0.2,37.52,0.31,56.28,0.46c2.74,0.02,5.47,0,8.16,0c0.14-0.42,0.23-0.58,0.24-0.75
		c0.18-5.56,0.33-11.12,0.52-16.67c0.04-1.19-0.6-1.33-1.57-1.34c-3.89-0.04-7.78-0.14-11.68-0.23c-8.26-0.2-16.51-0.42-24.77-0.61
		c-7.72-0.18-15.45-0.32-23.17-0.53c-4.9-0.14-9.8-0.41-14.7-0.58c-3.03-0.1-6.05-0.15-9.08-0.17
		C629.09,442.71,624.98,442.73,620.62,442.73z M624.92,279.35c0.17-0.86,0.4-1.48,0.39-2.09c-0.09-5.03-0.16-10.07-0.35-15.09
		c-0.43-11.07-0.95-22.13-1.4-33.2c-0.2-4.85-0.1-9.72-0.57-14.54c-0.55-5.64-1.51-11.25-2.44-16.84c-0.33-1.96-0.74-3.97-2.82-5.14
		c-3.13-1.74-6.14-3.7-9.26-5.47c-0.72-0.41-1.93-0.84-2.49-0.52c-3.65,2.09-6.54,5.03-8.03,9.02c-0.96,2.56-1.5,5.29-2.19,7.95
		c-0.19,0.74-0.35,1.51-0.33,2.26c0.32,9.04,2.51,17.78,4.51,26.52c1.41,6.15,3.5,12.15,5.27,18.22
		c3.25,11.12,9.47,20.3,18.18,27.85C623.79,278.63,624.25,278.89,624.92,279.35z M622,490.13c-0.27,5.1-0.47,9.85-0.8,14.6
		c-0.1,1.46,0.48,1.83,1.8,1.94c4.54,0.38,9.06,0.93,13.59,1.31c10.07,0.84,20.14,1.78,30.23,2.38c7.35,0.43,14.72,0.42,22.08,0.53
		c9.57,0.14,19.15,0.19,28.73,0.32c1.35,0.02,1.9-0.25,1.81-1.79c-0.26-4.84-0.5-9.7-0.41-14.55c0.03-1.86-0.42-2.25-2.11-2.22
		c-4.48,0.08-8.96,0.02-13.45,0.02c-9.8-0.01-19.59,0.04-29.39-0.05c-5.3-0.05-10.61-0.31-15.91-0.54
		c-6.93-0.29-13.87-0.61-20.8-0.98C632.37,490.85,627.36,490.48,622,490.13z M667.07,317.73c-5.15-0.25-10.02-0.49-15.04-0.74
		c-0.07,0.96-0.17,1.66-0.17,2.36c-0.03,3.6-0.04,7.19-0.04,10.79c0.02,23.02,0.01,46.05,0.08,69.07c0.01,4.73,0.31,9.45,0.45,14.18
		c0.04,1.19,0.58,1.66,1.77,1.72c3.83,0.19,7.65,0.5,11.48,0.71c1.41,0.08,2.82,0.01,4.37,0.01
		C669.01,383.1,668.04,350.54,667.07,317.73z"/>
	<path d="M98.83,291.64c-4.69-1.58-8.71-3.64-12.46-6.22c-14.14-9.72-26.84-21.07-38.29-33.84c-4.63-5.17-8.05-11.15-11.56-17.07
		c-4.74-8.01-8.45-16.49-11.35-25.34c-2.04-6.21-3.76-12.52-4.36-19c-0.61-6.66-0.69-13.37-0.74-20.07
		c-0.04-5.39,0.35-10.78,0.51-16.18c0.18-6.09,1.66-11.93,3.36-17.73c3.99-13.67,9.52-26.69,16.87-38.89
		c2.68-4.45,5.77-8.67,8.92-12.81c7.91-10.39,17.49-19.21,26.74-28.35c5.87-5.81,13.32-8.53,20.75-11.4
		c2.57-0.99,5.2-1.83,7.81-2.71c0.49-0.17,1.01-0.23,1.78-0.4c0.12,1.24,0.31,2.29,0.31,3.34c0.03,13.25-0.02,26.51,0.06,39.76
		c0.04,6.47,0.31,12.94,0.48,19.41c0.1,4.01,0.14,8.02,0.33,12.03c0.45,9.69,0.96,19.37,1.46,29.06c0.28,5.43,0.26,10.89,0.9,16.27
		c1.4,11.97,3.47,23.88,9.33,34.6c3.4,6.23,7.99,11.7,14.53,14.99c5.28,2.66,10.67,5.13,16.09,7.48c1.6,0.69,3.5,1.04,5.24,0.97
		c4.48-0.17,8.95-0.63,13.42-1.03c0.64-0.06,1.33-0.25,1.88-0.57c5.08-2.92,10.32-5.61,15.11-8.95c2.73-1.9,4.72-4.88,7.01-7.4
		c0.25-0.28,0.45-0.76,0.41-1.12c-0.31-2.51,0.66-4.67,1.69-6.85c2.3-4.86,2.78-10.17,3.04-15.38c0.74-14.72,1.21-29.46,1.54-44.2
		c0.28-12.59,0.13-25.18,0.33-37.77c0.19-11.75,0.62-23.49,0.89-35.24c0.16-6.77,0.21-13.54,0.32-20.31
		c0.01-0.35,0.05-0.7,0.09-1.35c1.27,0.25,2.41,0.48,3.56,0.69c7.89,1.41,14.83,5.16,21.44,9.35c6.4,4.06,12.52,8.62,18.47,13.32
		c11.19,8.85,20.04,19.73,27.36,31.97c4.61,7.7,8.88,15.51,11.14,24.21c1.99,7.64,4,15.32,5.21,23.11c0.75,4.85,0.09,9.92-0.03,14.9
		c-0.27,10.3-0.9,20.57-2.55,30.76c-1.12,6.93-3.09,13.64-5.72,20.13c-2.08,5.14-4.14,10.33-6.73,15.23
		c-2.28,4.31-4.99,8.47-8.02,12.3c-5.74,7.27-11.71,14.37-17.81,21.34c-4.66,5.32-9.76,10.27-15.63,14.25
		c-6.78,4.6-13.71,8.99-20.62,13.39c-2.47,1.57-5.05,2.99-7.67,4.31c-1.05,0.53-2.34,0.81-3.52,0.82c-1.45,0.01-1.56,0.89-1.59,1.86
		c-0.12,4.25-0.27,8.51-0.28,12.76c-0.02,13.07-0.03,26.15,0.07,39.22c0.09,10.73,0.33,21.46,0.53,32.19
		c0.17,8.92,0.3,17.84,0.61,26.76c0.14,4.11,0.75,8.2,0.96,12.3c0.09,1.7-0.46,3.42-0.45,5.13c0.04,6.77,0.32,13.54,0.27,20.3
		c-0.08,11.38-0.18,22.77-0.59,34.14c-0.27,7.53-0.87,15.07-1.76,22.55c-0.88,7.41-3.15,14.55-6.61,21.15
		c-2.03,3.87-4.93,7.29-7.58,10.81c-1.46,1.93-3.11,3.74-4.86,5.41c-1.24,1.18-2.7,2.21-4.21,3.02c-6.92,3.69-14.42,5.56-22.08,6.96
		c-3.09,0.56-6.09,1.7-9.2,2.06c-2.02,0.23-4.18-0.34-6.22-0.82c-6.04-1.43-12.06-2.98-18.07-4.52c-0.49-0.13-0.97-0.46-1.36-0.82
		c-5.91-5.41-9.66-12.04-11.61-19.83c-2.18-8.71-4.2-17.46-4.87-26.41c-0.67-8.83-0.91-17.7-1.08-26.56
		c-0.29-14.87-0.33-29.74-0.56-44.61c-0.1-6.52-0.49-13.04-0.57-19.57c-0.19-15.75-0.3-31.5-0.38-47.25
		c-0.04-8.81,0.05-17.63,0.08-26.44c0.03-8.67,0.05-17.35,0.07-26.02C98.84,299.28,98.83,295.33,98.83,291.64z M168.81,347.95
		c0.05-8.01-0.62-15.92-2.1-23.78c-0.6-3.17-1.17-6.31-2.95-9.14c-2.23-3.56-5.19-6.35-8.85-8.24c-2.16-1.12-4.77-2.27-7.06-2.07
		c-6.99,0.59-11.15,5.45-14.08,11.24c-2.2,4.36-2.69,9.26-2.71,14.14c-0.01,3.89,0.06,7.79-0.03,11.68
		c-0.34,14.44-0.73,28.87-1.1,43.3c-0.1,4.01-0.18,8.01-0.24,12.02c-0.06,4.23-0.1,8.47-0.13,12.7c-0.02,2.33,0.06,4.67-0.02,7
		c-0.09,2.62-0.47,5.23-0.45,7.84c0.07,9.46,0.28,18.93,0.39,28.39c0.07,5.79,0.03,11.57,0.05,17.36c0.01,3.9,0.25,7.81,0,11.69
		c-0.34,5.36,1.26,10.28,2.91,15.21c0.31,0.93,0.97,1.81,1.66,2.53c4.5,4.64,10.1,5.95,16.31,5.16c4.36-0.56,8.46-1.84,11.54-5.23
		c2.14-2.35,4.29-4.76,4.41-8.2c0.15-4.48,0.23-8.95,0.37-13.43c0.08-2.51,0.18-5.03,0.31-7.54c0.39-7.56,1.3-15.1,1.12-22.69
		c-0.14-5.74-0.23-11.48-0.32-17.22c-0.13-8.2-0.31-16.41-0.34-24.61c-0.03-6.41,0.13-12.82,0.2-19.24
		c0.09-8.14,0.11-16.28,0.31-24.42C168.13,357.58,168.54,352.77,168.81,347.95z"/>
</g>
</svg>
