<?xml version="1.0" encoding="utf-8"?>
<!-- Generator: Adobe Illustrator 28.3.0, SVG Export Plug-In . SVG Version: 6.00 Build 0)  -->
<svg version="1.1" id="Layer_1" xmlns="http://www.w3.org/2000/svg" xmlns:xlink="http://www.w3.org/1999/xlink" x="0px" y="0px"
	 viewBox="0 0 850.32 567" style="enable-background:new 0 0 850.32 567;" xml:space="preserve">
<g>
	<path d="M508.54,155.47c0.87,0.35,1.71,0.76,2.6,1.05c5.74,1.87,11.51,3.63,17.23,5.57c7.4,2.51,14.86,4.9,22.12,7.79
		c10.42,4.16,20.89,8.32,30.95,13.26c9.15,4.49,17.95,9.78,26.59,15.2c6.31,3.96,12.34,8.46,18.1,13.19
		c7.7,6.32,14.16,13.83,19.54,22.29c5.23,8.21,9.3,16.92,12.07,26.23c0.29,0.98,0.15,2.09,0.25,3.13c0.43,4.78,0.87,9.57,1.32,14.35
		c0.42,4.46,0.91,8.91,1.29,13.37c0.3,3.51,0.53,7.02,0.71,10.54c0.35,6.97-0.44,13.86-1.88,20.65c-1.47,6.93-3.15,13.83-4.97,20.68
		c-3.23,12.13-7.64,23.86-12.96,35.22c-2.91,6.21-6.36,12.17-9.63,18.21c-6.67,12.35-14.46,23.95-23.49,34.72
		c-4.78,5.71-9.98,10.95-15.85,15.58c-7.85,6.19-15.28,12.92-23.25,18.96c-6.52,4.94-13.4,9.46-20.39,13.72
		c-10.98,6.69-22.19,13.01-33.28,19.51c-0.44,0.26-0.66,0.93-1.11,1.14c-6.4,3.07-12.81,6.11-19.23,9.14
		c-11.42,5.38-23.1,10.08-35.18,13.76c-6.91,2.11-13.91,3.94-20.91,5.73c-7.39,1.89-14.79,3.79-22.25,5.33
		c-9.67,1.99-19.4,3.64-29.12,5.38c-2.58,0.46-5.21,0.66-7.8,1.1c-5.5,0.92-10.99,1.97-16.49,2.87c-6.31,1.04-12.63,2-18.95,2.96
		c-8.74,1.33-17.46,2.86-26.24,3.87c-12.66,1.46-25.36,2.61-38.05,3.72c-1.96,0.17-4.06-0.37-6-0.92
		c-10.22-2.91-20.42-5.89-30.59-8.96c-1.37-0.41-2.63-1.34-3.83-2.19c-3.5-2.51-7.03-5-10.39-7.7c-5.56-4.47-10.61-9.55-13.24-16.26
		c-1.54-3.94-3.59-8.31-1.55-12.65c1.35-2.86,3.58-5.31,5.47-7.91c0.49-0.67,1.3-1.1,1.77-1.78c3.98-5.64,9.85-8.56,15.92-11.26
		c6.4-2.85,13.26-4,19.99-5.6c0.27-0.06,0.53-0.16,0.79-0.24c0.02-0.16,0.05-0.33,0.08-0.49c-0.67-0.13-1.34-0.39-2.01-0.38
		c-7.06,0.05-13.98-0.94-20.66-3.19c-3.39-1.14-6.68-2.63-9.93-4.13c-2.97-1.37-5.75-3.19-8.78-4.4c-3.02-1.22-5.21-3.49-7.79-5.24
		c-0.5-0.34-1.25-0.42-1.88-0.41c-3.21,0.06-6.43,0.4-9.62,0.26c-10.35-0.46-20.7-1.04-31.04-1.69c-9.74-0.61-19.47-1.45-29.21-2.03
		c-10.34-0.61-20.69-1.08-31.04-1.54c-12.68-0.56-25.37-1.03-38.05-1.56c-7.06-0.29-14.12-0.66-21.18-0.91
		c-1.23-0.04-1.74-0.44-1.79-1.64c-0.41-8.62-0.85-17.25-1.29-25.87c-0.08-1.6,0.44-1.98,2.12-1.79c6.67,0.73,13.36,1.26,20.05,1.84
		c9.9,0.87,19.8,1.71,29.7,2.59c3.51,0.31,7.01,0.72,10.53,1.05c6.88,0.64,13.76,1.28,20.64,1.86c12.93,1.08,25.87,2.14,38.81,3.14
		c8.84,0.69,17.69,1.24,26.52,1.93c1.43,0.11,1.72-0.31,1.67-1.67c-0.12-3.83-0.12-7.66-0.06-11.49c0.04-2.97,1.06-5.4,3.82-7.03
		c1.35-0.8,2.42-2.11,3.5-3.29c3.86-4.24,8.64-7.01,13.81-9.4c11.48-5.31,22.84-10.89,34.21-16.44
		c11.21-5.47,22.38-11.04,33.55-16.6c0.6-0.3,1.21-0.85,1.48-1.43c0.26-0.58,0.19-1.37,0.05-2.03c-0.03-0.15-0.93-0.19-1.43-0.16
		c-7.29,0.47-14.57,1.08-21.86,1.42c-6.08,0.29-12.18,0.61-18.25,0.34c-10.52-0.46-20.99-1.66-31.27-4.11
		c-3.83-0.91-7.7-1.82-11.35-3.25c-2.96-1.16-5.72-2.94-8.39-4.71c-4.16-2.77-8.55-5.38-12.15-8.79
		c-3.91-3.71-7.17-8.14-10.44-12.47c-4.75-6.29-7.09-13.57-6.44-21.39c0.68-8.26,1.68-16.51,4.36-24.5c1.5-4.46,4.2-7.58,7.83-10.22
		c1.53-1.12,2.94-2.4,4.43-3.57c10.62-8.34,22.87-13.06,35.9-15.97c5.37-1.2,10.79-2.15,16.19-3.21c0.41-0.08,0.85-0.13,1.21-0.32
		c0.54-0.28,1.26-0.56,1.46-1.03c0.13-0.31-0.42-1.07-0.83-1.42c-3.71-3.2-7.43-6.4-11.21-9.52c-5.76-4.76-11.52-9.51-17.35-14.17
		c-5.6-4.49-11.31-8.85-16.94-13.31c-3.25-2.57-6.43-5.24-9.65-7.85c-2.21-1.79-4.4-3.6-6.68-5.29c-1.34-1-0.95-1.96-0.07-2.81
		c4.5-4.37,9.06-8.67,13.57-13.02c1.84-1.78,1.82-1.82,3.8-0.29c13.36,10.24,26.72,20.48,40.08,30.72
		c17.64,13.5,35.27,27.03,52.94,40.49c10.39,7.91,20.84,15.73,31.29,23.56c6.23,4.67,12.46,9.34,18.76,13.9
		c9.35,6.77,18.76,13.44,28.14,20.17c5.59,4.01,11.07,8.18,16.78,12.02c8.58,5.77,17.21,11.46,26,16.9
		c9.5,5.89,19.07,11.7,28.87,17.07c8.47,4.65,17.26,8.73,25.99,12.89c5.82,2.77,11.65,5.6,17.71,7.72
		c9.12,3.19,18.29,6.62,28.03,7.3c6.07,0.42,12.21,0.13,18.31-0.1c3.02-0.11,6.14-0.41,9.02-1.28c6.31-1.9,11.27-6.07,15.82-10.68
		c1.69-1.71,3.17-3.64,4.78-5.44c0.22-0.25,0.58-0.38,0.9-0.52c1.92-0.85,2.44-2.36,1.17-4c-3.05-3.92-6.18-7.77-9.31-11.62
		c-2.19-2.69-4.47-5.3-6.63-8.01c-0.89-1.11-1.54-1.25-2.8-0.4c-8.06,5.4-16.23,10.63-25.32,14.19c-7.09,2.78-14.43,3.47-22.03,2.99
		c-9.01-0.57-16.14-4.83-22.73-10.42c-3.1-2.63-6.43-5.08-9.06-8.14c-13.75-16.01-19.32-34.6-16.5-55.54
		c0.77-5.74,1.86-11.47,3.33-17.07c1.73-6.6,5.5-12.31,9.04-18.08c1.31-2.14,2.59-4.29,3.86-6.45c0.89-1.51,0.44-2.86-0.55-4.14
		c-3.3-4.24-6.59-8.48-9.87-12.73c-6.64-8.62-13.26-17.25-19.91-25.86c-3.83-4.97-7.78-9.86-11.52-14.9
		c-5.29-7.13-10.43-14.37-15.64-21.56c-3.5-4.84-7.05-9.64-10.5-14.51c-2.07-2.92-3.98-5.96-6.01-8.93
		c-6.03-8.82-12.15-17.58-18.09-26.45c-4.05-6.05-7.87-12.26-11.81-18.38c-3.59-5.58-7.14-11.17-10.81-16.69
		c-4.6-6.92-9.41-13.72-13.92-20.7c-1.56-2.41-3.59-3.05-6.16-3.11c-7.94-0.17-15.88-0.38-23.82-0.58
		c-9.02-0.22-18.05-0.5-27.07-0.63c-10.36-0.15-20.72-0.14-31.08-0.26c-6.93-0.08-13.86-0.28-20.79-0.39
		c-5.8-0.09-11.6-0.1-17.4-0.19c-3.83-0.06-7.66-0.22-11.5-0.28c-6.63-0.12-13.27-0.15-19.9-0.31c-7.84-0.19-15.69-0.5-23.53-0.75
		c-8.56-0.27-17.12-0.48-25.68-0.79c-9.82-0.35-19.64-0.79-29.45-1.16c-5.32-0.2-10.63-0.29-15.95-0.54
		c-8.02-0.37-16.03-0.82-24.04-1.25c-2.51-0.13-5.03-0.34-7.54-0.4c-1.32-0.03-1.85-0.57-1.8-1.85c0.22-5.65,0.4-11.3,0.63-16.96
		c0.1-2.45,0.3-4.9,0.4-7.35c0.05-1.25,0.47-1.76,1.85-1.71c11.74,0.44,23.49,0.75,35.23,1.2c10.84,0.41,21.67,0.99,32.51,1.4
		c11.38,0.43,22.76,0.77,34.13,1.12c10.48,0.32,20.96,0.64,31.44,0.9c6.76,0.16,13.53,0.21,20.29,0.31
		c14.09,0.19,28.17,0.34,42.26,0.56c9.58,0.15,19.15,0.39,28.73,0.58c10.42,0.21,20.85,0.33,31.27,0.66
		c10.77,0.34,21.52,1.06,32.29,1.27c14.38,0.27,28.76,0.34,43.14,0.24c7.09-0.05,14.17-0.69,21.26-1.01
		c7.62-0.34,15.25-0.6,22.88-0.91c21.01-0.86,42.02-1.8,63.04-2.54c9.82-0.35,19.65-0.29,29.48-0.46
		c8.47-0.14,16.95-0.39,25.42-0.51c9.53-0.14,19.05-0.19,28.58-0.27c14.09-0.12,28.17-0.23,42.26-0.34
		c11.94-0.09,23.87-0.16,35.81-0.26c9.11-0.08,18.21-0.24,27.32-0.29c15.88-0.09,31.76-0.06,47.64-0.2
		c12.82-0.11,25.64-0.43,38.47-0.6c6.53-0.09,13.07,0,19.6-0.11c12.11-0.2,24.21-0.46,36.31-0.77c1.65-0.04,2.15,0.37,2.16,2.06
		c0.05,9.1,0.38,18.21,0.31,27.31c-0.08,10.45-1.48,20.73-5.85,30.36c-4.44,9.78-11.09,17.83-19.5,24.49
		c-13.39,10.6-28.31,18.1-45.01,21.71c-9.05,1.96-18.23,3.32-27.38,4.74c-7.67,1.2-15.37,2.18-23.08,3.12
		c-7.01,0.85-14.04,1.57-21.06,2.26c-7.45,0.73-14.91,1.35-22.37,2.03c-8.23,0.76-16.46,1.52-24.69,2.3
		c-8.1,0.77-16.2,1.64-24.31,2.33c-6.39,0.54-12.8,0.85-19.2,1.29c-6.27,0.43-12.54,0.95-18.82,1.34
		c-5.56,0.35-11.14,0.49-16.7,0.87c-12.54,0.87-25.08,1.84-37.62,2.78c-0.57,0.04-1.14,0.22-1.71,0.33
		C508.68,154.99,508.61,155.23,508.54,155.47z M480.73,411.11c-0.06,0.06-0.36,0.36-0.68,0.62c-12.41,10.06-25.92,18.46-39.69,26.47
		c-8.99,5.23-18.02,10.39-27.18,15.31c-10.58,5.68-21.14,11.46-32.05,16.44c-9.6,4.37-19.54,8.11-29.58,11.34
		c-9.18,2.96-18.65,5.1-28.09,7.17c-9.1,1.99-18.32,3.45-27.5,5.08c-11.88,2.11-23.85,3.68-35.46,7.14
		c-5.82,1.73-9.39,5.3-10.52,11.4c-0.67,3.63,0.58,6.73,2.39,9.51c0.78,1.2,2.94,1.54,4.5,2.19c1.04,0.44,2.13,0.77,3.21,1.12
		c3.19,1.04,3.32,0.97,4.99-1.95c3.37-5.89,7.58-11.1,12.92-15.3c6.53-5.15,13.58-9.2,21.77-11.37c5.61-1.49,11.22-1.47,16.88-1.7
		c3.62-0.15,7.19,0.04,10.64,1.18c12.91,4.29,23.07,12.15,30.38,23.63c0.6,0.95,1.26,1.27,2.36,1.07c2-0.37,4.01-0.63,6.02-0.95
		c8.74-1.38,17.55-2.46,26.21-4.22c9.78-2,19.5-4.37,29.11-7.04c9.2-2.56,18.32-5.49,27.33-8.65c13.99-4.89,28.01-9.76,41.75-15.33
		c9.12-3.7,17.96-8.23,26.57-13.04c8.87-4.95,17.39-10.56,25.9-16.12c7.92-5.17,15.85-10.38,22.7-16.97
		c6.64-6.39,13.59-12.57,19.49-19.61c7.01-8.37,13.11-17.5,19.47-26.4c7.02-9.83,11.4-21.01,15.66-32.17
		c2.94-7.69,4.94-15.74,7.23-23.67c1.31-4.53,2.67-9.07,3.5-13.7c1.76-9.83,0.8-19.72-0.16-29.56c-0.57-5.83-1.28-11.67-2.35-17.43
		c-1.03-5.56-2.28-11.13-4.05-16.49c-1.06-3.22-3.06-6.21-5.04-9.03c-3.4-4.83-6.73-9.81-10.79-14.05
		c-5.61-5.86-11.84-11.13-17.86-16.58c-2.2-1.99-4.3-4.35-6.9-5.6c-9.42-4.54-19.01-8.74-28.59-12.96
		c-5.31-2.34-10.8-4.28-16.05-6.75c-13.85-6.51-28.57-10.25-43.36-13.71c-7.67-1.79-15.46-3.06-23.22-4.42
		c-1.92-0.33-2.42-1.23-2.44-2.98c-0.04-2.93-0.23-5.87-0.42-8.8c-0.65-10.05-1.33-20.1-1.98-30.15c-0.04-0.62,0.1-1.25,0.15-1.87
		c6.17-0.4,12.16-0.58,18.1-1.23c3.86-0.42,7.92,0.29,11.59-1.61c0.15-0.08,0.44,0.12,0.66,0.15c0.93,0.1,1.86,0.3,2.78,0.27
		c5.08-0.2,10.1-1.16,15.19-1.34c4.12-0.14,8.23-0.66,12.34-1.02c12.22-1.06,24.44-2.11,36.66-3.19
		c10.56-0.94,21.12-1.87,31.66-2.91c11.71-1.15,23.4-2.4,35.1-3.64c8.87-0.94,17.73-1.93,26.6-2.88c10.95-1.17,21.89-2.4,32.85-3.48
		c14.93-1.47,29.89-2.74,44.65-5.52c6.58-1.24,13.12-2.7,19.61-4.34c3.8-0.96,7.47-2.45,11.18-3.75c0.54-0.19,1.06-0.58,1.45-1
		c5.01-5.53,8.66-11.99,9.86-19.24c1.28-7.76,1.27-15.73,1.79-23.6c0.06-0.87-0.35-1.42-1.41-1.39c-5.38,0.15-10.77,0.28-16.15,0.34
		c-1.19,0.01-1.27,0.61-1.4,1.56c-0.49,3.59-0.89,7.22-1.73,10.74c-0.98,4.11-2.37,8.12-3.63,12.16c-0.35,1.13-0.6,2.39-1.3,3.28
		c-4.87,6.21-10.87,11.11-17.99,14.52c-3.33,1.6-6.73,3.44-10.3,4.08c-4.91,0.88-10.05,1.22-15.02,0.88
		c-4.78-0.33-9.49-1.77-14.22-2.8c-10.02-2.19-17.4-8.55-23.98-15.85c-6.8-7.54-10.59-16.86-14.22-26.18c-0.48-1.24-1-1.63-2.27-1.6
		c-16.72,0.34-33.44,0.59-50.16,0.96c-13.54,0.3-27.07,0.85-40.6,1.11c-21.04,0.41-42.09,0.55-63.13,1.04
		c-18.81,0.44-37.62,1.12-56.42,1.88c-13.59,0.55-27.16,1.47-40.75,2.09c-9.5,0.43-19.02,0.61-28.53,0.92
		c-2.55,0.08-5.09,0.24-7.8,0.37c0.21,0.66,0.26,1.16,0.5,1.53c1.11,1.76,2.35,3.44,3.41,5.23c6.45,10.91,12.77,21.89,19.32,32.74
		c6.67,11.04,13.25,22.16,20.45,32.85c8.52,12.64,17.61,24.9,26.55,37.26c7.13,9.85,14.34,19.64,21.64,29.36
		c5.82,7.76,11.77,15.44,17.77,23.07c3.95,5.03,8.19,9.83,12.12,14.87c3.37,4.32,6.93,8.6,9.61,13.34
		c3.32,5.9,6.64,11.74,10.83,17.07c3.21,4.08,6.46,8.14,9.48,12.36c7.65,10.68,15.18,21.45,22.76,32.19
		c5.65,8.01,11.32,16,16.97,24.02c7.4,10.52,14.79,21.05,22.18,31.57c1.84,2.62,3.66,5.26,5.59,8.02
		c-4.37,3.47-8.5,6.94-12.83,10.13c-7.8,5.74-15.65,11.41-23.63,16.9c-4.37,3-8.81,6.09-14.02,7.48
		c-6.76,1.81-13.72,2.84-20.67,2.98c-7.28,0.15-14.61-0.35-21.87-1.05C490.38,413.45,485.75,412.12,480.73,411.11z M333.44,448.61
		c6.71-2.1,13.23-4.08,19.72-6.19c3.35-1.09,6.65-2.33,9.93-3.6c9.58-3.71,19.24-7.23,28.67-11.29c10.76-4.64,21.4-9.58,31.91-14.77
		c8.04-3.97,15.79-8.51,23.65-12.84c0.54-0.3,1.23-1.02,1.2-1.5c-0.03-0.5-0.78-1.09-1.34-1.4c-1.89-1.03-3.88-1.88-5.76-2.94
		c-15.58-8.77-31.18-17.48-46.69-26.38c-8.14-4.67-16.07-9.7-24.14-14.49c-0.54-0.32-1.62-0.2-2.23,0.12
		c-10.41,5.52-20.7,11.28-31.2,16.62c-11.94,6.07-24.03,11.83-36.11,17.63c-11.95,5.74-23.98,11.31-35.93,17.06
		c-13.18,6.35-27.05,11.29-39.09,19.95c-2.61,1.88-3.94,4.17-4.53,6.87c-1.34,6.15,1.92,12.72,7.49,15.77
		c2.91,1.6,5.89,3.09,8.88,4.54c2.49,1.21,5.04,2.28,7.69,3.47c0.17-0.67,0.29-0.94,0.31-1.22c0.38-4.71,0.61-9.45,1.16-14.14
		c0.63-5.35,1.56-10.65,4.7-15.28c1.17-1.72,2.23-3.57,2.97-5.5c0.69-1.78,1.75-3.1,3.27-4.13c5.58-3.79,11.57-6.85,18.1-8.49
		c3.72-0.94,7.7-1.09,11.57-1.18c5.6-0.13,11.15-0.06,16.66,1.71c8.1,2.6,14.46,7.39,19.34,14.14c4.19,5.8,6.27,12.56,7.92,19.46
		C332.18,443.23,332.8,445.88,333.44,448.61z M341.54,333.37c-0.56-0.82-0.76-1.33-1.13-1.62c-1.65-1.28-3.35-2.5-5.04-3.73
		c-15.84-11.51-31.7-22.99-47.51-34.53c-7.15-5.21-14.2-10.56-21.32-15.8c-0.47-0.34-1.23-0.54-1.79-0.45
		c-2.59,0.46-5.15,1.05-7.72,1.58c-8.6,1.76-17.22,3.38-25.78,5.28c-10.08,2.24-20.33,3.96-29.83,8.28
		c-3.8,1.73-7.56,3.79-10.29,6.97c-4.51,5.23-4.3,11.69-3.23,17.93c1.25,7.27,6.87,11.74,11.92,16.76c0.41-1.83,0.85-3.44,1.13-5.08
		c0.99-5.92,3.09-11.39,6.21-16.51c6.01-9.83,15.94-14.53,25.75-19c5.57-2.53,11.8-3.8,18.22-2.99c5.64,0.71,11.1,1.7,15.92,4.95
		c2.63,1.77,5.17,3.83,8.06,5.03c5.79,2.42,9.97,6.49,12.68,11.88c2.18,4.34,3.73,9.03,5.21,13.67c1.17,3.67,1.81,7.5,2.75,11.54
		C310.75,336.18,325.86,334.8,341.54,333.37z M494.56,341.19c1-0.29,2.08-0.42,2.98-0.89c1.79-0.92,3.39-2.27,5.25-3
		c5.86-2.29,10.1-6.75,14.74-10.67c1.55-1.31,1.4-2.08,0.09-3.72c-3.76-4.71-7.54-9.41-11.26-14.15
		c-5.68-7.24-11.27-14.54-16.97-21.75c-4.81-6.09-9.74-12.08-14.6-18.13c-0.89-1.11-1.54-0.81-2.25,0.14
		c-2.41,3.2-4.98,6.3-7.18,9.64c-1.18,1.79-2.17,3.91-2.5,6c-0.6,3.81-1.1,7.74-0.81,11.55c0.5,6.62,2.06,13.13,4.65,19.24
		c3.58,8.48,9.3,15.43,16.69,20.91C486.65,338.78,490.2,340.79,494.56,341.19z M266.77,461.84c0.34,0.14,0.55,0.27,0.78,0.3
		c0.47,0.06,0.95,0.07,1.43,0.09c8.14,0.36,16.18-0.64,24.11-2.33c6.65-1.42,13.2-3.29,19.8-4.97c1.59-0.4,2.28-1.02,1.88-3.02
		c-1.65-8.25-5.84-14.96-11.83-20.67c-0.68-0.65-1.46-1.29-2.31-1.67c-2.07-0.92-4.17-1.82-6.34-2.46c-1.5-0.45-3.17-0.77-4.7-0.6
		c-3.13,0.36-6.22,1.08-9.31,1.71c-0.57,0.11-1.2,0.34-1.61,0.72c-2.63,2.49-5.18,5.07-7.8,7.57c-2.09,2-3.86,4.39-3.99,7.21
		C266.56,449.76,266.77,455.81,266.77,461.84z M217.01,341.41c3.99,0.32,7.56,0.94,11.11,0.83c7.83-0.24,15.66-0.75,23.48-1.32
		c6.8-0.5,13.58-1.24,20.38-1.84c1.64-0.14,2.42-0.71,1.86-2.48c-0.31-0.96-0.44-1.98-0.63-2.98c-1.35-6.95-5.36-12.18-11.23-15.71
		c-5.4-3.24-11.55-4.3-17.88-4.02c-3.92,0.18-7.41,1.33-10.68,3.62c-5.71,3.99-9.78,9.26-12.78,15.43
		C219.35,335.56,218.33,338.28,217.01,341.41z M735.91,53.42c-17.18,0-34.33,0-52.13,0c1.89,3.26,3.44,6.2,5.25,8.97
		c3.51,5.37,7.15,10.66,13.04,13.8c0.55,0.29,1.17,0.63,1.76,0.64c2.29,0.04,4.66-0.41,6.87-0.01c5.25,0.95,10.14-0.24,14.9-2.06
		c3.73-1.43,6.13-4.69,8.72-7.57c0.76-0.85,1.46-2.09,1.52-3.19C736.03,60.51,735.91,57.01,735.91,53.42z M286.86,527.68
		c0.05,0.17,0.1,0.33,0.15,0.5c0.53,0.09,1.07,0.28,1.59,0.25c3.7-0.19,7.41-0.31,11.1-0.67c9.35-0.91,18.69-1.9,28.03-2.91
		c3.45-0.37,6.9-0.77,10.31-1.35c1.93-0.33,2.12-0.94,0.76-2.25c-1.9-1.83-3.97-3.49-6.03-5.16c-5.08-4.1-10.69-5.67-17.06-3.44
		c-0.78,0.28-1.59,0.5-2.41,0.68c-7.45,1.6-14.38,4.3-20.29,9.27C290.99,524.32,288.92,525.99,286.86,527.68z"/>
</g>
</svg>
