<?xml version="1.0" encoding="utf-8"?>
<!-- Generator: Adobe Illustrator 28.3.0, SVG Export Plug-In . SVG Version: 6.00 Build 0)  -->
<svg version="1.1" id="Layer_1" xmlns="http://www.w3.org/2000/svg" xmlns:xlink="http://www.w3.org/1999/xlink" x="0px" y="0px"
	 viewBox="0 0 850.32 567" style="enable-background:new 0 0 850.32 567;" xml:space="preserve">
<g>
	<path d="M712.34,224.93c0-4.02-0.03-7.88,0.01-11.74c0.08-10.07,0.2-20.14,0.28-30.21c0.16-19.67,0.27-39.34,0.48-59.02
		c0.22-20.69,0.36-41.38,0.9-62.06c0.15-5.92,0.8-12.15,5.25-16.78c2.16-2.25,4.88-4.03,7.54-5.71c9.04-5.71,18.84-9.07,29.64-9.31
		c6.29-0.14,12.57-0.61,18.87-0.8c5.43-0.16,10.79,0.6,15.98,2.11c3.96,1.15,6.91,3.99,9.87,6.72c5.63,5.18,8.21,11.75,8.45,19.21
		c0.41,12.82,0.5,25.66,0.89,38.48c0.42,14.14,1.08,28.28,1.53,42.42c0.3,9.35,0.37,18.71,0.6,28.06
		c0.29,11.57,0.65,23.13,0.97,34.69c0.22,8.21,0.29,16.42,0.66,24.63c0.61,13.5,1.29,27,2.16,40.49
		c0.99,15.19,2.44,30.35,3.31,45.54c0.78,13.58,1.22,27.19,1.47,40.79c0.22,11.87,0.37,23.77-0.18,35.62
		c-0.64,13.88-1.93,27.73-3.24,41.57c-0.36,3.82-1.47,7.66-4.03,10.81c-2.03,2.49-4.56,4.19-7.8,4.28
		c-5.56,0.16-11.13,0.09-16.7,0.11c-16.25,0.05-32.5,0.09-48.74,0.13c-7.43,0.02-14.87,0.03-22.3,0.06c-0.64,0-1.27,0.08-2.19,0.14
		c1.04,3.61,2,6.98,3,10.34c3.5,11.77,7.08,23.51,10.52,35.29c3.64,12.48,7.14,24.99,10.73,37.48c1.49,5.18,3.01,10.35,4.57,15.51
		c0.44,1.46,0.05,1.92-1.47,1.9c-8.31-0.08-16.61-0.07-24.92-0.17c-0.58-0.01-1.5-0.59-1.67-1.1c-2.6-7.83-5.08-15.7-7.64-23.54
		c-3.99-12.23-8.02-24.44-12.01-36.67c-3.92-12-7.8-24-11.71-36c-0.66-2.03-1.41-4.03-2.06-5.89c-0.82,0.23-1.53,0.62-2.23,0.59
		c-7.25-0.25-14.49-0.73-21.74-0.84c-13.37-0.21-26.74-0.41-40.1-0.27c-15.71,0.16-31.41,0.58-47.11,1.1
		c-10.36,0.34-20.72,1.06-31.08,1.58c-1.16,0.06-2.33-0.12-3.71-0.19c-0.83,2.05-1.77,4.35-2.68,6.66
		c-6.82,17.28-13.54,34.59-20.47,51.82c-5.59,13.89-11.6,27.61-17.08,41.54c-1.3,3.32-2.82,4.2-6.26,4.16
		c-10.11-0.12-20.23,0.26-30.34,0.43c-0.52,0.01-1.04-0.07-1.91-0.14c0.66-1.76,1.19-3.31,1.83-4.82
		c3.51-8.33,7.04-16.66,10.59-24.97c5.43-12.71,10.95-25.39,16.32-38.12c3.78-8.97,7.22-18.09,11.1-27.02
		c2.33-5.36,5.23-10.47,7.85-15.7c0.37-0.73,0.64-1.51,1.08-2.58c-3.38,0-6.47,0.1-9.55-0.02c-13.59-0.52-27.19-1.04-40.78-1.68
		c-7.72-0.36-15.48-0.57-23.12-1.58c-6.25-0.82-12.37-2.72-18.54-4.17c-1.8-0.42-3.57-1.15-5.39-1.35c-1.94-0.21-3.1-1.26-3.89-2.79
		c-1.34-2.6-2.56-5.27-3.78-7.93c-1.2-2.6-2.51-5.17-3.44-7.87c-0.65-1.88-0.78-3.96-1.06-5.96c-2.13-14.88-2.03-29.86-1.86-44.83
		c0.12-10.19,0.47-20.38,0.75-30.57c0.01-0.47,0.24-1.04,0.56-1.36c1.13-1.12,2.22-2.42,3.58-3.15c1.48-0.79,3.26-0.98,4.9-1.48
		c9.54-2.91,19.34-2.12,29.1-2.26c14.51-0.21,29.01-0.6,43.51-1.01c11.38-0.32,22.75-0.83,34.13-1.16
		c10.35-0.31,20.71-0.47,31.07-0.75c4.89-0.13,9.78-0.37,14.66-0.64c0.4-0.02,0.91-0.51,1.14-0.91c4.18-7.2,8.32-14.42,12.48-21.63
		c2.27-3.94,4.57-7.86,6.84-11.8c0.17-0.3,0.23-0.66,0.49-1.39c-3.1,0-5.99-0.01-8.89,0c-17.63,0.04-35.25,0.2-52.88,0.09
		c-15.23-0.1-30.47-0.25-45.69-0.89c-6.89-0.29-12.75-3.17-15.39-10.42c-1.31-3.6-3.33-7.06-2.38-11.04c0.81-3.42,1.54-7,3.16-10.05
		c3.1-5.84,8.32-9.23,14.76-10.8c4.89-1.19,9.7-2.71,14.63-3.69c3.32-0.66,6.77-0.76,10.18-0.9c11.13-0.45,22.26-0.81,33.39-1.2
		c5.96-0.21,11.91-0.51,17.87-0.6c8.44-0.13,16.87-0.07,25.31-0.16c2.55-0.03,5.1-0.38,7.65-0.41c3.81-0.05,7.63,0.13,11.44,0.08
		c12.17-0.17,24.33-0.36,36.5-0.62c8.99-0.19,17.98-0.4,26.96-0.74c11.56-0.43,23.11-0.94,34.67-1.53
		C697.67,226,704.83,225.43,712.34,224.93z M739.04,280.57c0,4.86,0,9.24,0,13.61c-0.01,11.03-0.03,22.06-0.03,33.08
		c0,1.86,0.07,3.71,0.12,5.57c0.03,1.07-0.45,1.47-1.53,1.43c-4.13-0.13-8.27-0.17-12.4-0.29c-11.62-0.33-23.25-0.69-34.87-1
		c-2.09-0.06-2.15,0.07-1.51,1.99c2.14,6.4,4.49,12.74,6.44,19.2c4.76,15.76,9.38,31.57,14,47.37c1.53,5.23,2.93,10.49,4.33,15.76
		c0.33,1.24,0.93,1.69,2.25,1.74c6.89,0.27,13.77,0.84,20.65,0.95c16.55,0.29,33.1,0.42,49.65,0.48c1.84,0.01,3.71-0.78,5.5-1.4
		c0.84-0.29,1.4-0.84,1.26-2.17c-0.23-2.15-0.06-4.41,0.31-6.56c1.83-10.58,2.94-21.22,2.61-31.97
		c-0.31-10.06-0.71-20.12-1.14-30.18c-0.3-7.12-0.62-14.25-1.12-21.36c-0.37-5.25-1.14-10.47-1.55-15.71
		c-0.65-8.36-1.14-16.74-1.69-25.1c-0.11-1.74-0.17-3.48-0.26-5.46C773.22,280.57,756.24,280.57,739.04,280.57z M787.47,230.96
		c-0.26-3.91-0.64-7.53-0.73-11.16c-0.38-15.51-0.21-31.04-1.87-46.51c-0.74-6.9-0.88-13.87-1.24-20.81
		c-0.55-10.35-1.15-20.7-1.56-31.05c-0.63-16.15-0.52-32.35-3.06-48.38c-0.62-3.88-1.67-7.69-2.61-11.51
		c-0.41-1.65-1.38-2.67-3.35-2.3c-0.8,0.15-1.67-0.07-2.5-0.12c-6.19-0.42-12.41-1.7-18.52,0.3c-2.03,0.67-3.88,1.9-5.78,2.93
		c-0.26,0.14-0.44,0.59-0.5,0.92c-1.24,6.89-3.11,13.75-3.54,20.7c-0.78,12.62-0.78,25.29-0.94,37.94
		c-0.18,13.91-0.12,27.82-0.24,41.74c-0.18,19.66-0.44,39.33-0.66,58.99c-0.03,2.37,0,4.75,0,7.3
		C756.23,230.29,771.85,230.62,787.47,230.96z M678.19,411.79c-1.25-5.04-2.38-9.87-3.65-14.65c-4.87-18.26-9.81-36.5-14.65-54.76
		c-0.41-1.55-1.18-1.92-2.61-1.88c-9.59,0.31-19.17,0.59-28.76,0.87c-11.38,0.33-22.77,0.63-34.16,0.97
		c-5.15,0.15-10.31,0.42-15.46,0.55c-1.38,0.03-2.08,0.45-2.54,1.85c-2.1,6.43-4.29,12.83-6.56,19.2
		c-3.36,9.42-6.79,18.82-10.27,28.2c-1.92,5.16-4.03,10.25-6,15.4c-0.6,1.58-0.29,1.98,1.37,1.9c4.73-0.21,9.46-0.62,14.19-0.65
		c8.39-0.05,16.79,0.12,25.18,0.21c12.23,0.14,24.48,0.04,36.7,0.49c13.9,0.51,27.78,1.53,41.66,2.29
		C674.42,411.88,676.2,411.79,678.19,411.79z M543.53,338.73c-1.13,0.05-1.78,0.06-2.42,0.12c-12.1,1.22-24.19,2.54-36.3,3.65
		c-12.29,1.13-24.58,2.27-36.9,2.98c-10.47,0.6-20.97,0.56-31.45,0.86c-3.98,0.11-7.96,0.38-11.94,0.63
		c-0.42,0.03-1.06,0.39-1.19,0.75c-0.34,0.93-0.55,1.94-0.65,2.94c-0.3,3.04-0.45,6.1-0.77,9.13c-1.51,13.93-0.62,27.64,3.62,41.05
		c0.67,2.12,1.89,3.63,4.18,4.52c2.61,1.02,5.03,0.95,7.77,0.77c8.06-0.53,16.17-0.67,24.25-0.66c17.81,0.02,35.62,0.21,53.42,0.38
		c0.91,0.01,1.81,0.52,3.02,0.89C526.49,384.44,534.96,361.74,543.53,338.73z M596.86,310.42c5.62,0.82,48.78,1.15,50.23,0.45
		c-4.12-10.95-9.83-21.25-13.53-32.78c-2.27,0-4.83,0.03-7.38-0.01c-4.79-0.08-9.58-0.18-14.38-0.31c-1.49-0.04-2.42,0.51-2.98,1.96
		c-1.17,3.07-2.5,6.08-3.7,9.14c-2.03,5.18-4.01,10.38-6,15.58C598.4,306.38,597.67,308.31,596.86,310.42z M667.81,280.63
		c0.41,1.39,0.57,2.44,1.01,3.37c4.25,8.98,8.57,17.93,12.81,26.91c0.55,1.16,1.22,1.56,2.49,1.46c5.79-0.45,11.59-0.8,17.38-1.23
		c1.53-0.11,3.04-0.37,4.5-0.55c0-1,0-1.76,0-2.52c0.06-8.74,0.14-17.47,0.15-26.21c0-2.43-0.16-2.55-2.58-2.45
		c-8.85,0.38-17.71,0.84-26.56,1.2C674.08,280.73,671.16,280.63,667.81,280.63z"/>
	<path d="M34.64,27.47c3.44-0.53,6.65-1.37,9.89-1.46c8.99-0.25,17.99-0.15,26.99-0.25c9.89-0.11,19.78-0.3,29.67-0.41
		c9.65-0.11,19.3-0.13,28.95-0.26c4.18-0.06,8.36-0.41,12.54-0.45c5.62-0.05,11.24,0.13,16.87,0.11c8.45-0.03,16.9-0.2,25.34-0.22
		c12.11-0.03,24.22,0.03,36.33,0.05c4.38,0.01,8.76,0.08,13.13-0.05c1.8-0.05,2.28,0.61,2.24,2.28c-0.23,9.71-0.49,19.42-0.57,29.13
		c-0.13,15.96-0.05,31.92-0.23,47.87c-0.26,23.09-0.68,46.18-1.02,69.27c-0.23,15.83-0.47,31.67-0.66,47.5
		c-0.2,17.39-0.18,34.78-0.56,52.17c-0.29,13.12-1.26,26.22-1.55,39.34c-0.22,10.36,0.21,20.74,0.23,31.11
		c0.02,11.45,0.11,22.91-0.2,34.35c-0.35,12.64-1.06,25.28-1.72,37.91c-0.59,11.38-1.55,22.74-1.96,34.12
		c-0.58,16.18-0.76,32.36-1.19,48.55c-0.24,9.05-0.63,18.09-0.93,27.14c-0.19,5.87-0.39,11.75-0.48,17.62
		c-0.02,1.74-0.64,2.21-2.34,2.18c-10.43-0.17-20.85-0.24-31.28-0.33c-2.45-0.02-2.46,0-2.53-2.39c-0.37-12.52-0.7-25.04-1.1-37.56
		c-0.18-5.39-0.51-10.77-0.78-16.15c-0.02-0.47-0.12-0.93-0.2-1.47c-2.39,0-4.72-0.06-7.05,0.01c-12.23,0.35-24.45,0.72-36.68,1.11
		c-13.18,0.42-26.36,0.96-39.54,1.29c-11.75,0.29-23.5,0.35-35.25,0.56c-3.18,0.06-6.35,0.32-9.52,0.42
		c-1.26,0.04-1.81,0.44-1.77,1.81c0.14,4.85,0.21,9.7,0.23,14.55c0.06,12.22,0.06,24.44,0.13,36.67c0.01,1.4-0.69,1.51-1.79,1.51
		c-7.48-0.02-14.97,0-22.45,0.02c-3.29,0.01-3.3,0.03-3.27-3.34c0.88-111.23,1.75-222.46,2.63-333.68
		c0.47-59.51,0.96-119.03,1.44-178.54C34.65,28.84,34.64,28.13,34.64,27.47z M67.8,197.58c-1.86,38.35-2.54,76.43-4.01,114.56
		c0.73,0.13,1.25,0.27,1.78,0.31c9.33,0.61,18.65,1.37,27.99,1.77c12.22,0.52,24.45,0.81,36.68,1.07
		c12.29,0.27,24.58,0.48,36.87,0.54c12.83,0.06,25.66-0.11,38.49-0.14c1.12,0,1.58-0.38,1.65-1.53c0.31-5.02,0.84-10.03,1.02-15.06
		c0.47-13.12,0.88-26.24,1.16-39.36c0.24-11.44,0.24-22.89,0.42-34.33c0.15-9.38,0.41-18.76,0.62-28.46c-15.44,0-30.66,0-46.1,0
		c-0.19,1.61-0.45,3.07-0.54,4.55c-0.4,6.82-0.77,13.63-1.13,20.45c-0.34,6.56-3.7,11.12-9.09,14.61
		c-5.39,3.49-11.33,3.51-17.34,3.3c-1.22-0.04-2.53-0.37-3.63-0.9c-5.49-2.66-10.5-6.02-14.64-10.56c-2.34-2.56-4.31-5.39-4.56-8.96
		c-0.46-6.56-0.81-13.13-1.06-19.7c-0.07-1.73-0.47-2.37-2.33-2.34c-9.53,0.14-19.06,0.15-28.59,0.19
		C77.03,197.59,72.61,197.58,67.8,197.58z M63.64,350.42c-0.09,1.59-0.13,2.79-0.22,3.98c-0.73,9.98-1.46,19.96-2.19,29.94
		c-0.78,10.61-1.62,21.23-2.33,31.84c-0.72,10.77-1.29,21.54-1.96,32.31c-0.08,1.31,0.19,1.93,1.72,1.95
		c8.69,0.14,17.38,0.43,26.07,0.6c13.54,0.27,27.07,0.52,40.61,0.71c10.96,0.15,21.93,0.17,32.89,0.29
		c13.42,0.15,26.84,0.32,40.26,0.56c1.33,0.02,1.59-0.47,1.69-1.62c0.67-7.21,1.51-14.4,2.08-21.61c0.91-11.4,1.81-22.8,2.42-34.22
		c0.64-12.09,0.93-24.2,1.35-36.3c0.08-2.2,0.01-4.4,0.01-6.71c-0.8,0-1.39-0.01-1.98,0c-7.55,0.21-15.1,0.5-22.65,0.61
		c-6.84,0.11-13.67,0.05-20.51,0c-1.25-0.01-1.88,0.4-2.04,1.66c-0.49,3.92-1.05,7.82-1.55,11.74c-0.87,6.78-1.75,13.52-5.36,19.58
		c-1.55,2.6-3.48,4.59-6.36,5.49c-2.51,0.79-5.04,1.66-7.63,2.02c-4.48,0.61-8.94,1.17-13.46-0.41
		c-6.63-2.33-10.95-6.85-12.49-13.49c-1.52-6.56-2.24-13.31-3.22-19.99c-0.39-2.62-0.53-5.29-0.78-7.92
		C93.05,351.09,78.38,350.75,63.64,350.42z M114.39,66.53c-2.13,0-4.21-0.02-6.3,0c-11.69,0.13-23.37,0.3-35.06,0.38
		c-1.53,0.01-2.09,0.36-2.12,1.98c-0.17,8.33-0.53,16.66-0.69,24.99c-0.17,8.87-0.26,17.75-0.25,26.62
		c0.01,14.81,0.12,29.62,0.16,44.43c0,1.09,0.32,1.49,1.44,1.42c3.59-0.2,7.19-0.32,10.78-0.48c12.69-0.56,25.38-1.16,38.07-1.67
		c6.53-0.26,13.07-0.29,19.6-0.57c8.32-0.35,16.62-0.95,24.94-1.24c8.15-0.28,16.31-0.28,24.46-0.45
		c6.38-0.13,12.77-0.34,19.52-0.53c1.24-31.28,0.53-62.65,0.39-94.34c-2.27,0-4.54,0.02-6.8,0c-10.67-0.09-21.34-0.17-32.01-0.3
		c-4.01-0.05-4-0.11-4.22,3.96c-0.27,5.03-0.53,10.06-0.86,15.08c-0.27,4.17-2.03,7.93-4.01,11.45c-3.11,5.55-7.58,9.38-14.49,9.27
		c-5.74-0.09-11.37-0.81-16.69-3.02c-8.19-3.42-13.79-8.96-14.41-18.39C115.43,79.03,114.89,72.95,114.39,66.53z"/>
	<path d="M305.13,468.16c0.31-6.66,0.7-13.24,0.91-19.83c0.37-11.92,0.68-23.85,0.92-35.77c0.24-11.98,0.29-23.97,0.56-35.95
		c0.29-12.59,0.75-25.17,1.15-37.75c0.31-9.65,0.71-19.29,0.96-28.94c0.36-13.96,0.66-27.93,0.89-41.89
		c0.26-15.77,0.35-31.54,0.65-47.3c0.21-11.21,0.53-22.41,1.02-33.61c0.59-13.47,2.01-26.87,4.05-40.2
		c1.25-8.22,2.45-16.44,3.44-24.69c1.47-12.26,5.79-23.52,11.42-34.39c4.45-8.59,10.7-15.73,17.81-22.14
		c3.95-3.57,8.12-6.93,12.4-10.09c6.75-4.99,14.58-7.65,22.59-9.87c9.11-2.53,18.36-3.9,27.78-4.37c10.41-0.53,20.8-1.35,31.22-1.87
		c9.15-0.46,18.32-0.86,27.48-0.94c10.25-0.09,20.44,0.71,30.48,3.13c8.47,2.04,16.22,5.71,23.78,9.89c2.35,1.3,4.78,2.47,7.15,3.75
		c0.61,0.33,1.16,0.81,1.68,1.29c0.35,0.32,0.53,0.86,0.92,1.1c5.93,3.59,6.43,9.86,7.73,15.71c0.7,3.15,1.28,6.34,1.79,9.53
		c0.24,1.51,0.29,3.06,0.28,4.6c-0.01,2.13,0.3,2.61,2.49,3.15c5.41,1.33,10.84,2.56,16.22,4c14.98,4.02,30.02,7.88,44.88,12.31
		c8.42,2.51,16.54,6.03,24.79,9.1c0.17,0.06,0.34,0.12,0.49,0.22c7.66,4.91,15.81,9.09,22.6,15.28c5.29,4.83,8.64,10.98,11.69,17.32
		c4.95,10.29,8.21,21.1,9.52,32.45c0.57,4.93,0.76,9.9,1.02,14.86c0.12,2.34-0.13,2.47-2.52,2.42c-15.16-0.34-30.31-0.64-45.47-1.02
		c-18.51-0.46-37.02-1.02-55.53-1.45c-10.06-0.23-20.12-0.26-30.19-0.4c-8.99-0.12-17.98-0.3-26.97-0.39
		c-4.07-0.04-8.13,0.16-12.2,0.11c-6.88-0.09-13.76-0.35-20.64-0.44c-9.69-0.12-19.38-0.15-29.08-0.21
		c-4.54-0.03-9.07-0.04-13.61-0.06c-7.41-0.03-14.82,0-22.23-0.1c-5.15-0.07-10.3-0.37-15.46-0.46c-1.24-0.02-1.34-0.71-1.41-1.58
		c-0.59-7.03-0.22-14.01,1.2-20.92c3.44-16.77,11.52-30.96,23.09-43.54c12.28-13.36,27.33-21.96,44.07-28.19
		c9.39-3.5,18.92-6.5,28.64-8.91c2.95-0.73,5.86-1.64,8.8-2.41c1-0.26,1.25-0.77,0.98-1.7c-0.96-3.33-1.98-6.65-2.83-10.01
		c-0.54-2.15-2.37-3.06-3.77-4.41c-2.14-2.07-4.37-3.65-7.62-3.84c-4.04-0.24-8.03-1.59-12.06-1.67
		c-7.48-0.15-14.98,0.17-22.46,0.48c-6.93,0.29-13.88,0.61-20.78,1.35c-5.94,0.63-11.83,1.84-17.73,2.86
		c-3.65,0.63-7.29,1.35-10.92,2.1c-9.93,2.07-19.62,4.93-28.63,9.67c-3.21,1.69-6.58,3.51-9.05,6.07
		c-3.87,4.01-7.23,8.57-10.47,13.13c-4.38,6.19-6.23,13.54-8.78,20.55c-3.98,10.91-5.81,22.22-6.56,33.74
		c-0.83,12.79-1.74,25.58-2.47,38.37c-0.5,8.8-0.75,17.61-1.13,26.41c-0.32,7.43-0.65,14.85-0.98,22.28
		c-0.4,9.08-0.75,18.17-1.22,27.25c-0.59,11.43-1.35,22.85-1.9,34.28c-0.42,8.86-0.73,17.73-0.92,26.6
		c-0.31,14.45-0.52,28.9-0.71,43.35c-0.19,14.87-0.49,29.74-0.39,44.6c0.07,10.06,0.72,20.12,1.14,30.19
		c0.24,5.63,0.61,11.26,0.78,16.89c0.05,1.57,0.72,1.97,2.06,1.96c3.36-0.03,6.72-0.2,10.07-0.03c5.14,0.26,10.27,0.7,15.4,1.17
		c11.64,1.07,23.26,2.22,34.7,4.74c1.64,0.36,3.26,0.81,4.87,1.27c4.32,1.22,7.69,3.68,10.25,7.42c1.65,2.41,3.64,4.59,5.57,6.79
		c2.33,2.65,4.01,5.6,5.16,8.95c2.53,7.37,3.52,15.01,4.36,22.7c0.75,6.96,1.48,13.92,2.33,20.87c0.52,4.22,0.61,4.26-3.53,4.2
		c-9.65-0.14-19.3-0.28-28.95-0.49c-16.41-0.36-32.82-0.81-49.23-1.16c-14.67-0.31-29.35-0.57-44.02-0.82
		c-17.68-0.3-35.36-0.58-53.05-0.88c-0.4-0.01-0.81-0.15-1.38-0.27c0.27-2.66,0.44-5.28,0.81-7.87c0.76-5.32,1.2-10.74,2.54-15.92
		c2.85-10.99,5.84-21.97,11.07-32.16c1.92-3.74,4.82-6.69,7.84-9.53c0.83-0.78,1.78-1.44,2.51-2.3c2.82-3.32,6.6-4.64,10.71-5.3
		C294.99,469.74,300.01,468.97,305.13,468.16z"/>
</g>
</svg>
