<?xml version="1.0" encoding="utf-8"?>
<!-- Generator: Adobe Illustrator 28.3.0, SVG Export Plug-In . SVG Version: 6.00 Build 0)  -->
<svg version="1.1" id="Layer_1" xmlns="http://www.w3.org/2000/svg" xmlns:xlink="http://www.w3.org/1999/xlink" x="0px" y="0px"
	 viewBox="0 0 850.32 567" style="enable-background:new 0 0 850.32 567;" xml:space="preserve">
<style type="text/css">
	.st0{fill:transparent;}
</style>
<g>
	<path d="M822.11,415.16c-6.07,0-11.88,0.01-17.69,0c-12.24-0.03-24.47-0.06-36.71-0.12c-2.04-0.01-4.08-0.05-6.1-0.26
		c-1.84-0.19-2.3,0.73-2.32,2.27c-0.02,1.62-0.1,3.24-0.12,4.86c-0.2,12.89-0.45,25.79-0.56,38.68c-0.07,8.76,0.24,17.51,0.11,26.27
		c-0.26,17.2-0.7,34.39-1.08,51.58c-0.07,3.01-0.1,2.96-3.2,3.02c-10.07,0.21-20.14,0.42-30.2,0.7c-16.6,0.47-33.2,1.08-49.81,1.47
		c-20.38,0.48-40.77,0.81-61.15,1.18c-14.45,0.26-28.9,0.48-43.35,0.7c-9.06,0.14-18.11,0.25-27.17,0.38
		c-12.47,0.18-24.93,0.44-37.4,0.54c-23.92,0.19-47.84,0.32-71.76,0.43c-14.57,0.07-29.15,0.04-43.72,0.06c-0.76,0-1.53,0-2.42,0
		c-1.18-38.26-2.36-76.33-3.54-114.45c-16.19,0.58-32.18,1.15-48.42,1.72c-0.04,0.34-0.17,0.96-0.19,1.59
		c-0.26,10.61-0.47,21.21-0.76,31.82c-0.32,11.44-0.74,22.87-1.07,34.31c-0.04,1.44-0.36,2.1-2.02,2.13
		c-15.05,0.27-30.09,0.72-45.14,0.95c-16.91,0.26-33.82,0.37-50.73,0.51c-19.55,0.16-39.1,0.29-58.65,0.43c-2.03,0.01-4.06,0-6.53,0
		c1.03-31.86,2.06-63.45,3.09-95.36c54.51,0.51,108.75,1.02,163.04,1.53c0-6.26,0-12.46,0-18.93c-24.03,0-47.9,0-71.92,0
		c-0.42-25.28-0.83-50.31-1.24-75.52c1.44-0.12,2.79-0.3,4.15-0.35c9.29-0.31,18.59-0.47,27.87-0.91
		c12.76-0.61,25.5-1.44,38.25-2.18c0.12-0.01,0.24-0.02,0.36-0.03c3.6-0.41,3.5-0.42,3.14-4.08c-0.34-3.39-0.4-6.82-0.6-10.23
		c-0.09-1.54-0.24-3.08-0.35-4.5c-52.42,1.69-104.72,3.06-157.22,3.04c0.76-25.75,1.51-51.32,2.26-77.16c52.24,0,104.48,0,157.11,0
		c0-4.59,0.02-8.89-0.01-13.19c-0.01-1.53,0.38-3.55-0.42-4.44c-0.7-0.78-2.81-0.32-4.3-0.33c-15.59-0.1-31.18-0.18-46.78-0.28
		c-5.22-0.04-10.44-0.18-15.66-0.19c-1.13,0-1.46-0.4-1.48-1.45c-0.15-9.36-0.36-18.71-0.49-28.07
		c-0.23-16.61-0.43-33.23-0.64-49.84c0-0.29-0.05-0.58-0.09-0.98c-5.57,0-11.05,0-16.61,0c0,26.68,0,53.29,0,80.12
		c-3.75,0-7.45,0.03-11.14,0c-16.49-0.13-32.98-0.29-49.47-0.43c-14.09-0.11-28.18-0.21-42.27-0.31
		c-10.19-0.07-20.37-0.17-30.56-0.2c-10.91-0.03-21.82,0-32.74,0.01c-2.67,0-2.64,0-2.5-2.6c0.5-8.67,0.94-17.34,1.46-26.01
		c0.6-10.1,1.28-20.19,1.88-30.28c0.35-5.92,0.61-11.85,0.92-17.77c0.03-0.52,0.07-1.05,0.13-1.92c23.2,0,46.31,0,69.77,0
		c0-32.52,0-64.68,0-96.92c0.79-0.12,1.24-0.25,1.69-0.25c6.53,0.01,13.06-0.02,19.58,0.07c6.65,0.09,13.3,0.4,19.95,0.42
		c11.99,0.03,23.98-0.11,35.97-0.12c14.63-0.02,29.26-0.07,43.88,0.05c19.79,0.15,39.58,0.45,59.37,0.67
		c19.13,0.22,38.26,0.62,57.39,0.58c34.3-0.07,68.61-0.4,102.91-0.64c12.23-0.08,24.46-0.2,36.69-0.32
		c12.29-0.11,24.58-0.17,36.86-0.39c11.57-0.2,23.14-0.55,34.7-0.91c1.65-0.05,1.54,0.96,1.58,1.97c0.27,7.07,0.47,14.15,0.8,21.21
		c0.45,9.69,1.01,19.38,1.53,29.33c2.5,0,4.91,0.04,7.33-0.01c12.46-0.26,24.92-0.42,37.37-0.88c10.84-0.4,21.67-1.11,32.5-1.77
		c21.25-1.3,42.5-1.99,63.81-1.58c21.2,0.41,42.41,0.25,63.62,0.33c2.69,0.01,5.37,0,8.36,0
		C822.87,187.51,822.49,301.34,822.11,415.16z M765.62,396.71c-0.21-4.23-0.49-7.81-0.54-11.39c-0.21-13.9-0.68-27.81-0.41-41.7
		c0.2-10.22,1.15-20.45,2.26-30.63c1.24-11.47,2.79-22.93,4.64-34.32c1.92-11.8,4.22-23.55,6.65-35.27
		c1.8-8.7,2.94-17.48,3.16-26.32c0.25-10.18-0.02-20.37-0.18-30.56c-0.15-9.7-1.3-19.32-3.31-28.8c-2.67-12.6-5.59-25.15-8.39-37.73
		c-1.76-7.92-3.47-15.86-5.28-23.77c-0.11-0.48-0.84-1.17-1.29-1.18c-4.61-0.1-9.22-0.04-13.83-0.11c-1.39-0.02-1.73,0.42-1.53,1.8
		c1.7,12.13,4.51,24.01,7.88,35.78c2.32,8.12,4.79,16.23,6.51,24.48c3.46,16.57,4.43,33.36,3.41,50.27
		c-0.78,12.93-3.67,25.49-6.34,38.08c-2.66,12.55-4.8,25.17-5.81,37.96c-0.82,10.4-1.58,20.8-2.13,31.21
		c-0.89,16.64-1.53,33.3-0.88,49.97c0.41,10.42,1.05,20.82,1.63,31.23c0.02,0.34,0.61,0.93,0.94,0.94
		C756.94,396.73,761.11,396.71,765.62,396.71z M678.24,395.01c0-3.85-0.04-7.73,0.01-11.61c0.17-13.55-0.17-27.08-1.54-40.56
		c-0.86-8.45-1.74-16.9-2.77-25.34c-1.42-11.57-2.95-23.13-4.5-34.69c-1.01-7.51-2.19-15-3.18-22.51
		c-1.03-7.87-1.95-15.75-2.85-23.64c-0.87-7.6-1.72-15.2-2.44-22.82c-0.79-8.33-1.45-16.68-2.09-25.02
		c-0.66-8.59-1.35-17.18-1.78-25.78c-0.44-8.79-0.59-17.6-0.86-26.4c-0.23-7.37-0.46-14.73-0.66-22.1
		c-0.11-4.19-0.17-8.38-0.21-12.57c-0.01-1.35-0.38-2.11-1.93-2.07c-2.81,0.06-5.62-0.06-8.43-0.05c-0.81,0-1.61,0.18-2.32,0.27
		c0,9.35-0.24,18.47,0.06,27.56c0.44,13.66,1.21,27.3,1.93,40.95c0.61,11.73,1.23,23.47,2.06,35.19
		c0.74,10.34,1.67,20.66,2.75,30.97c0.84,8.04,1.98,16.04,3.09,24.05c1.55,11.22,3.32,22.4,4.76,33.63
		c0.87,6.83,1.41,13.71,1.9,20.58c1.02,14.05,2.2,28.09,2.75,42.16c0.44,11.13,0.03,22.29,0,33.43c0,1.83,0,3.65,0,5.64
		C667.48,394.52,672.61,394.75,678.24,395.01z M798.59,397.76c0-2.8,0.04-5.07-0.01-7.34c-0.31-13.88-0.67-27.76-0.95-41.64
		c-0.18-8.91-0.19-17.83-0.34-26.74c-0.15-8.81-0.2-17.65,1.44-26.32c2.15-11.41,4.7-22.74,7.16-34.08
		c1.38-6.38,3.46-12.65,4.26-19.09c1.12-9.01,1.54-18.13,1.9-27.22c0.31-7.72,0.26-15.46,0.14-23.19
		c-0.2-12.26,0.37-24.55-1.44-36.76c-1.3-8.75-2.4-17.54-3.61-26.3c-1.2-8.7-2.45-17.4-3.63-26.1c-0.34-2.47-0.51-4.96-0.73-7.17
		c-4.74,0-9.22-0.03-13.7,0.01c-3.16,0.03-3.16,0.08-2.9,3.13c0.07,0.84,0.11,1.68,0.23,2.5c1.31,8.83,2.72,17.65,3.94,26.49
		c1.13,8.25,2.23,16.51,3.04,24.8c0.84,8.47,1.33,16.97,1.94,25.46c0.7,9.8,1.64,19.59,1.99,29.41c0.69,18.96-0.11,37.86-3.08,56.65
		c-2.15,13.61-3.85,27.28-5.76,40.93c-1.99,14.15-2.97,28.35-2.3,42.63c0.61,13.11,1.39,26.21,2.12,39.32
		c0.17,3.05,0.36,6.1,0.67,9.14c0.05,0.53,0.7,1.42,1.1,1.44C792.89,397.82,795.69,397.76,798.59,397.76z M634.02,395.03
		c0.2-4.45,0.45-8.94,0.58-13.42c0.51-17.85,0.98-35.7,1.48-53.55c0.33-11.92,0.77-23.84,1.02-35.76
		c0.22-10.78-0.15-21.54-1.65-32.25c-1.59-11.33-4.22-22.43-7.44-33.39c-1.87-6.36-4.08-12.63-6.26-18.89
		c-3.44-9.88-7.05-19.7-10.46-29.59c-2.3-6.67-4.84-13.3-6.47-20.14c-1.87-7.83-3.15-15.83-4.17-23.82
		c-1.01-7.93-1.37-15.95-2.03-23.92c-0.13-1.6-0.29-3.19-0.45-4.96c-3.35,0-6.65,0-9.92,0c0,1.09-0.02,1.98,0,2.87
		c0.24,10.96,0.28,21.94,0.79,32.89c0.63,13.34,3.13,26.39,7.52,39.03c2.53,7.3,5.13,14.59,8.03,21.74
		c4.32,10.63,9.25,21.04,11.84,32.28c1.67,7.23,3,14.55,4.22,21.87c0.89,5.31,1.6,10.68,1.96,16.05c0.58,8.55,1.19,17.12,1.08,25.67
		c-0.14,10.96-1.25,21.9-1.45,32.86c-0.18,9.94,0.27,19.88,0.5,29.83c0.24,10.79,0.56,21.58,0.81,32.37
		c0.06,2.62,0.22,2.82,2.87,2.65C628.91,395.29,631.4,395.17,634.02,395.03z M724.99,464.67c-0.61-0.03-0.84-0.06-1.07-0.05
		c-11.87,0.16-23.74,0.26-35.6,0.51c-11.09,0.24-22.18,0.67-33.27,0.92c-1.66,0.04-2.15,0.5-2.15,2.15
		c-0.01,13.86-0.11,27.71-0.17,41.57c-0.01,1.78,0,3.55,0,5.64c24.8-0.78,49.17-1.55,73.99-2.33
		C726.14,496.89,725.57,480.79,724.99,464.67z M713.14,395.4c2.84-0.13,5.58-0.31,8.33-0.34c1.5-0.01,1.75-0.59,1.62-1.99
		c-0.72-7.81-1.37-15.62-1.99-23.44c-0.43-5.37-0.71-10.74-1.17-16.11c-0.99-11.32-1.97-22.64-3.12-33.95
		c-0.88-8.63-1.61-17.3-3.12-25.83c-2.41-13.58-5.35-27.07-8.17-40.58c-2.39-11.4-5.02-22.74-7.37-34.14
		c-1.4-6.78-2.5-13.62-2.6-20.59c-0.09-7.1,0.86-14.09,2.19-21.03c1.94-10.1,4.11-20.15,7.77-29.82
		c3.85-10.18,7.37-20.49,9.23-31.25c0.78-4.52,1.14-9.12,1.61-13.7c0.21-2,0.24-4.03,0.36-6.18c-4.03,0.19-7.76,0.37-11.65,0.56
		c-0.11,1.76-0.27,3.65-0.33,5.54c-0.44,14.63-3.52,28.74-8.41,42.5c-3.76,10.57-7.22,21.2-8.95,32.34
		c-1.25,8.06-2.66,16.07-2.76,24.26c-0.16,12.8,0.6,25.54,3,38.12c2.24,11.75,4.67,23.47,7.23,35.16
		c2.31,10.53,5.12,20.94,7.31,31.49c2.23,10.72,4.12,21.52,5.92,32.33c1.39,8.38,2.76,16.78,3.49,25.23
		c0.81,9.31,0.87,18.68,1.27,28.03C712.88,393.07,713.02,394.13,713.14,395.4z M529.93,398.67c0-0.68,0-1.38,0-2.08
		c0-11.93,0.09-23.86-0.03-35.78c-0.17-16.66-0.31-33.31-0.82-49.96c-0.31-10.17-1.3-20.32-1.97-30.48
		c-0.56-8.49-1.33-16.97-1.57-25.46c-0.27-9.15-0.3-18.32,0.07-27.46c0.34-8.37,1.38-16.7,2.08-25.05
		c0.76-9.18,1.59-18.37,2.19-27.56c0.61-9.44,1.25-18.89,1.35-28.35c0.16-14.27-0.14-28.54-0.25-42.81c0-0.45-0.09-0.91-0.14-1.42
		c-3.91,0-7.69,0.08-11.46-0.04c-1.61-0.05-2.03,0.44-1.99,2.04c0.31,12.41,0.52,24.82,0.76,37.22c0.21,10.67,0.71,21.35,0.53,32.02
		c-0.2,11.62-0.9,23.25-1.62,34.86c-0.87,14-1.8,28-3.06,41.97c-1.34,14.87-0.97,29.72-0.06,44.56c0.81,13.16,2.06,26.29,3.1,39.44
		c0.61,7.77,1.21,15.54,1.8,23.31c0.86,11.41,1.74,22.83,2.55,34.24c0.16,2.19,0.02,4.41,0.02,6.83
		C524.29,398.67,527,398.67,529.93,398.67z M622.26,467.17c-0.74,0-1.45-0.03-2.15,0c-11.19,0.48-22.38,0.98-33.57,1.45
		c-9.58,0.41-19.17,0.82-28.76,1.14c-1.41,0.05-1.89,0.47-1.85,1.88c0.12,4.19,0.26,8.39,0.16,12.58
		c-0.18,7.42-0.51,14.84-0.82,22.26c-0.11,2.73-0.32,5.45-0.51,8.55c2.96,0,5.59-0.02,8.22,0c11.57,0.08,23.14,0.16,34.7,0.27
		c8.29,0.08,16.58,0.74,25.03-0.23C623.37,499.02,623.14,483.16,622.26,467.17z M553.94,103.24c-0.19,12.1-0.12,23.91-0.64,35.69
		c-0.49,11.13-1.28,22.27-2.55,33.34c-1.31,11.48-3.64,22.84-4.97,34.31c-1.5,12.84-2.56,25.75-3.46,38.65
		c-0.55,7.94-0.57,15.93-0.59,23.9c-0.01,5.38-0.21,10.88,0.76,16.13c1.44,7.81,3.75,15.46,5.85,23.14
		c3.1,11.38,6.53,22.68,9.47,34.1c3.23,12.56,5.31,25.33,5.51,38.34c0.08,4.97-0.1,9.94-0.25,14.91c-0.04,1.31,0.29,1.82,1.66,1.84
		c3.54,0.04,7.07,0.21,10.6,0.32c0.69,0.02,1.39,0,2.19,0c0-0.61,0.01-0.96,0-1.3c-0.34-7.72-0.77-15.44-1.01-23.16
		c-0.46-14.68-3.75-28.81-8.31-42.66c-3.38-10.27-7.17-20.42-10.84-30.59c-3.82-10.58-7.25-21.26-8.84-32.45
		c-1.01-7.08-1.54-14.19-0.85-21.3c0.58-5.94,1.42-11.88,2.47-17.76c1.82-10.11,3.87-20.18,5.89-30.25
		c1.19-5.97,2.72-11.88,3.69-17.88c1.12-7.01,2.09-14.08,2.59-21.16c0.78-10.92,1.21-21.86,1.58-32.8
		c0.15-4.59-0.24-9.21-0.41-13.81c-0.11-3.14-0.26-6.29-0.4-9.52C559.85,103.24,556.82,103.24,553.94,103.24z M534.42,466.28
		c-8.83,0.46-17.31,0.96-25.79,1.33c-10.12,0.43-20.24,0.77-30.36,1.08c-1.32,0.04-1.81,0.47-1.82,1.76
		c-0.03,3.18-0.14,6.35-0.22,9.53c-0.13,5.51-0.27,11.03-0.39,16.54c-0.15,6.94-0.26,13.88-0.41,20.82
		c-0.03,1.27,0.46,1.81,1.81,1.77c8.03-0.22,16.06-0.35,24.08-0.55c9.89-0.25,19.77-0.57,29.66-0.8c4-0.09,4-0.02,3.99-4.1
		c0-0.06,0.01-0.12,0.01-0.18c-0.07-12.82-0.11-25.65-0.21-38.47C534.76,472.16,534.55,469.31,534.42,466.28z M451.6,517.01
		c-0.41-18.12-0.81-35.86-1.21-53.7c-1.7-0.1-3.25-0.27-4.79-0.26c-11.38,0.08-22.76,0.18-34.14,0.29
		c-2.64,0.03-2.74,0.06-2.75,2.67c-0.02,4.25,0.09,8.51,0.17,12.76c0.23,12.4,0.51,24.8,0.69,37.2c0.02,1.66,0.55,2.15,2.17,2.11
		c7.84-0.21,15.69-0.27,23.54-0.47C440.65,517.49,446.02,517.22,451.6,517.01z M499.74,379.03c-8.77,0-17.34,0.02-25.9-0.02
		c-1.32-0.01-1.89,0.45-1.82,1.76c0.03,0.66-0.03,1.32-0.01,1.98c0.19,10.49,0.36,20.98,0.59,31.46c0.16,7.25,0.38,14.51,0.59,21.76
		c0.02,0.64,0.15,1.28,0.25,2.12c18.74,0,37.36,0,56.15,0c0-6.89,0-13.6,0-20.62c-9.46,0-18.65,0-28.23,0
		c-0.14-6.71-0.16-13.11-0.42-19.49C500.65,391.58,500.13,385.19,499.74,379.03z M447.57,435.53c-0.74-17.9-1.47-35.51-2.2-53.18
		c-12.73,0-25.35,0-38.04,0c-0.06,0.53-0.13,0.88-0.13,1.22c0.2,16.37,0.43,32.74,0.61,49.11c0.02,1.6,0.6,2.18,2.21,2.21
		c8.27,0.16,16.55,0.44,24.82,0.61C438.96,435.6,443.09,435.53,447.57,435.53z M601.13,264.8c-0.07,0-0.15,0-0.22,0
		c-0.15-2.75-0.2-5.51-0.47-8.24c-0.28-2.8-0.57-5.62-1.2-8.35c-2.27-9.78-11.46-15.47-21.34-12.29c-4.82,1.55-9.34,3.86-12.6,7.91
		c-2.93,3.64-5.23,7.53-4.23,12.61c1.17,5.93,1.87,11.96,3.19,17.85c1.39,6.2,3.21,12.31,7.25,17.44
		c4.62,5.87,12.24,8.02,19.06,5.39c6.93-2.67,11-9.41,10.62-16.91C600.92,275.08,601.13,269.94,601.13,264.8z M717.12,187.74
		c0,1.65-0.14,3.16,0.03,4.64c0.39,3.38,0.42,6.91,1.52,10.06c3.47,9.97,15.17,15.13,24.75,10.84c7.21-3.23,10.66-9.56,11.4-17.15
		c0.67-6.94,0.88-13.94,0.9-20.92c0.03-6.54-1.33-12.77-6.36-17.57c-5.09-4.85-11.08-6.64-17.88-4.69
		c-6.87,1.97-11.14,6.68-12.76,13.58C717.07,173.55,715.96,180.65,717.12,187.74z M378.38,197.46c5.17-0.36,10.16-0.41,15.06-1.12
		c12.26-1.77,24.03-5.4,35.38-10.34c0.57-0.25,0.97-0.88,1.45-1.33c-0.47-0.47-0.86-1.08-1.41-1.38
		c-8.12-4.43-16.72-7.73-25.46-10.65c-8.97-3-18.11-4.93-27.66-4.57c-12.54,0.48-24.89,2.23-37.16,4.77
		c-1.27,0.26-1.81,0.77-1.79,2.14c0.06,4.66,0,9.33-0.01,13.99c0,2.83,0,2.82,2.81,3.29c5.48,0.93,10.94,2.07,16.45,2.78
		C363.52,196.02,371.03,196.68,378.38,197.46z M381.16,319.28c0-0.82,0.01-1.33,0-1.84c-0.18-10.17-0.35-20.35-0.54-30.52
		c-0.07-4.07-0.15-8.15-0.26-12.22c-0.04-1.55,0.29-2.39,2.19-2.37c4.97,0.06,9.95-0.12,14.92-0.19c1.37-0.02,2.73,0,4.26,0
		c-0.07-0.68-0.07-1.15-0.18-1.6c-1.22-4.75-2.3-9.54-3.74-14.23c-1.11-3.63-2.33-7.32-4.1-10.65c-4.46-8.37-9.98-16.07-15.85-23.5
		c-1.54-1.95-1.95-1.93-3.16,0.24c-0.12,0.21-0.25,0.41-0.35,0.63c-4.25,9.38-8.23,18.86-10.83,28.87
		c-2.86,11.01-3.34,22.09-1.6,33.31c0.92,5.98,3.48,11.27,6.47,16.43C371.98,307.86,375.68,313.98,381.16,319.28z M653.13,415.89
		c0,2.09-0.03,4.06,0.01,6.02c0.11,6.17,0.2,12.35,0.37,18.52c0.07,2.71,0.15,2.68,2.76,2.65c19.6-0.22,39.2-0.44,58.8-0.65
		c2.36-0.03,4.73,0,7.31,0c0-9.46,0-18.52,0-27.66C699.26,415,676.31,414.08,653.13,415.89z M407.34,356.84c0.91,0,1.38,0.01,1.85,0
		c7.67-0.19,15.34-0.37,23.01-0.56c3.36-0.08,6.71-0.15,10.06-0.28c0.8-0.03,1.88,0.22,1.84-1.28c-0.09-3.53-0.08-7.06-0.1-10.6
		c-0.06-9.89-0.11-19.77-0.16-29.66c-0.02-3.75,0-7.5,0-11.68c-11.72,0.43-23.14,0.85-34.63,1.27
		C408.59,321.8,407.97,339.19,407.34,356.84z M621.91,443.02c0-9.2,0-17.96,0-26.55c-23.23,0.53-46.02,1.06-68.84,1.58
		c-0.02,0.05-0.09,0.17-0.09,0.28c-0.12,7.97-0.22,15.94-0.37,23.91c-0.02,1.14,0.59,1.29,1.46,1.27c3.3-0.09,6.59-0.24,9.89-0.26
		c15.29-0.09,30.57-0.16,45.86-0.22C613.94,443.01,618.07,443.02,621.91,443.02z M520.36,81.27c0.07-0.14,0.13-0.28,0.2-0.42
		c-5.01-4.34-10.25-8.33-16.9-9.93c-8.82-2.11-17.69-1.17-26.42,0.26c-8.01,1.31-15.98,3.14-23.76,5.46
		c-9.56,2.85-18.89,6.45-28.31,9.76c-0.43,0.15-0.99,0.65-1.02,1.02c-0.03,0.38,0.47,0.87,0.85,1.18c0.41,0.33,0.93,0.55,1.43,0.74
		c4.87,1.85,9.68,3.87,14.62,5.49c12.57,4.12,25.44,6.9,38.73,6.99c4.66,0.03,9.32-0.52,13.98-0.85c0.8-0.06,1.72-0.11,1.62-1.4
		c-0.16-2.09-0.27-4.18-0.3-6.27c-0.05-3.33-0.01-6.67-0.01-10.17C503.57,82.5,511.97,81.89,520.36,81.27z M497.14,299.58
		c-0.33-0.09-0.49-0.18-0.66-0.17c-9.52,0.39-19.03,0.79-28.55,1.19c-1,0.04-1.46,0.45-1.5,1.54c-0.16,4.72-0.46,9.43-0.61,14.15
		c-0.38,11.9-0.71,23.8-1.03,35.7c-0.08,3.03-0.01,3.09,3.11,2.98c4.42-0.16,8.83-0.43,13.25-0.56c5.26-0.15,10.52-0.25,15.79-0.24
		c1.59,0,1.91-0.64,1.86-2.04c-0.42-13.17-0.79-26.34-1.19-39.51C497.48,308.27,497.3,303.91,497.14,299.58z M496.72,230.01
		c-0.08,0-0.17,0-0.25,0c0-3.18-0.1-6.36,0.04-9.53c0.07-1.68-0.4-2.34-2.15-2.36c-3.18-0.03-6.35-0.22-9.52-0.41
		c-10.48-0.61-20.94-0.74-31.41,0.44c-12.92,1.45-25.05,5.62-37.08,10.21c-0.54,0.2-0.93,0.79-1.38,1.2
		c0.51,0.45,0.96,1.04,1.55,1.34c17.03,8.57,35.06,13.12,54.16,13.16c8.22,0.02,16.41-0.34,24.49-2.13
		c1.12-0.25,1.62-0.58,1.59-1.85C496.65,236.73,496.72,233.37,496.72,230.01z M341.42,84.86c-0.01-0.22-0.02-0.44-0.03-0.65
		c-1.99-1.19-3.95-2.41-5.96-3.56c-7.4-4.22-14.87-8.33-23.42-9.69c-5.79-0.92-11.6-1.85-17.43-2.29
		c-4.99-0.38-10.08-0.48-15.05,0.04c-12.02,1.26-23.52,4.87-35,8.51c-0.51,0.16-0.91,0.66-1.35,1.01c0.37,0.43,0.68,0.95,1.13,1.28
		c0.67,0.49,1.42,0.9,2.17,1.27c8.92,4.44,18.15,8.09,27.82,10.57c7.86,2.02,15.83,3.66,23.97,2.77c11.31-1.24,22.56-2.95,33.55-6
		C335.06,87.22,338.22,85.96,341.42,84.86z M222.91,122.9c0-3.45,0.05-6.67-0.01-9.89c-0.15-8.2,0.3-16.48-0.69-24.58
		c-1.6-13.02-5.28-25.63-9.86-37.94c-0.17-0.45-0.6-0.79-0.92-1.18c-0.43,0.36-0.97,0.64-1.26,1.09c-0.96,1.51-1.78,3.11-2.73,4.63
		c-7.09,11.33-11.29,23.7-13.51,36.83c-1.65,9.73-1.8,19.52-1.7,29.34c0.01,1.15,0.45,1.66,1.6,1.6c0.72-0.04,1.44,0.02,2.16,0.02
		c5.97,0.03,11.94,0.07,17.91,0.09C216.76,122.91,219.62,122.9,222.91,122.9z M382.43,45.82c-0.76,1.21-1.24,1.83-1.56,2.52
		c-2,4.22-3.87,8.5-5.95,12.67c-4.35,8.7-5.97,18.01-6.23,27.6c-0.18,6.6,1.63,12.94,3.18,19.25c1.52,6.2,3.56,12.29,5.64,18.33
		c1.26,3.64,3.03,7.11,4.58,10.65c0.2,0.03,0.41,0.06,0.61,0.09c0.09-0.22,0.19-0.44,0.28-0.66c0.63-1.49,1.32-2.95,1.88-4.47
		c3.54-9.68,6.08-19.64,8.18-29.72c1.43-6.86,1.63-13.85,0.99-20.77c-0.93-10.1-4.21-19.62-8.27-28.87
		C384.84,50.35,383.7,48.34,382.43,45.82z M464.35,196.72c0.22-0.03,0.45-0.06,0.67-0.1c6.38-11.94,9.51-24.77,9.45-38.29
		c-0.05-12.7-3.7-24.56-9.47-36.3c-0.57,1.32-0.98,2.18-1.32,3.06c-0.98,2.51-1.95,5.02-2.9,7.54c-2.85,7.56-5.69,15.14-6.23,23.32
		c-0.68,10.28,1.3,20.14,4.99,29.68C461,189.39,462.74,193.03,464.35,196.72z M335.88,373.38c4.66,0.45,9.17,0.85,13.68,1.34
		c10.61,1.15,20.9-0.06,30.91-3.82c1.54-0.58,2.16-1.28,2.03-2.96c-0.29-3.76-0.33-7.53-0.62-11.29c-0.04-0.53-0.8-1.24-1.38-1.47
		c-5.71-2.21-11.53-3.47-17.74-2.34c-8.54,1.55-17.12,2.84-25.67,4.3c-0.46,0.08-1.16,0.75-1.17,1.15
		C335.85,363.26,335.88,368.22,335.88,373.38z M564.45,41.29c-0.24,0.02-0.49,0.05-0.73,0.07c-0.23,0.25-0.47,0.5-0.69,0.77
		c-4.45,5.66-7.67,12.05-10.85,18.45c-1.49,2.99-2.66,6.15-3.75,9.31c-0.85,2.48-1.45,5.06-1.99,7.63c-0.47,2.25-0.28,2.4,1.95,2.31
		c1.37-0.05,2.74-0.23,4.12-0.28c6.4-0.23,12.8-0.47,19.21-0.62c1.4-0.03,1.82-0.43,1.76-1.88c-0.3-6.67-1.61-13.16-3.51-19.52
		C568.33,52.06,566.31,46.7,564.45,41.29z"/>
	<path d="M27.79,506.06c0.44-32.12,0.88-64.11,1.33-96.44c42.26,0.26,84.37,0.51,126.67,0.77c0,2.21,0.06,4.23-0.01,6.24
		c-0.32,9.46-0.66,18.92-1,28.37c-0.31,8.74-0.66,17.48-0.92,26.23c-0.13,4.3-0.11,8.61-0.18,12.92c-0.1,6.41-0.2,12.83-0.33,19.24
		c-0.05,2.35-0.09,2.34-2.42,2.35c-18.46,0.06-36.93,0.11-55.39,0.17c-22.07,0.07-44.14,0.15-66.21,0.23
		C28.96,506.14,28.61,506.11,27.79,506.06z"/>
	<path d="M93.85,393.15c0.91-25.04,1.81-49.82,2.73-74.93c50.04,0,99.95,0,150.24,0c0.19,24.72,0.39,49.67,0.58,74.93
		C196.19,393.15,145.17,393.15,93.85,393.15z"/>
	<path d="M164.06,221.15c-0.72,25.81-1.43,51.48-2.16,77.47c-44,0.2-87.69,0.41-131.7,0.61c0.23-26.03,0.46-52.01,0.69-78.09
		C75.23,221.15,119.39,221.15,164.06,221.15z"/>
	<path d="M29.33,392.62c0.26-24.74,0.52-49.28,0.78-74.04c16.48,0,32.76,0,49.3,0c-0.86,24.74-1.73,49.54-2.6,74.62
		C61.04,393,45.32,392.81,29.33,392.62z"/>
	<path d="M31.39,123.61c13.37,0,26.17,0,39.18,0c-1.55,26.08-3.1,52.08-4.65,78.14c-11.69,0-23.13,0-34.52,0
		C31.39,175.69,31.39,149.84,31.39,123.61z"/>
	<path class="st0" d="M673.93,317.49c1.03,8.43,1.91,16.89,2.77,25.34c1.38,13.49,1.71,27.02,1.54,40.56
		c-0.05,3.88-0.01,7.77-0.01,11.61c-5.63-0.25-10.76-0.48-16.25-0.73c0-1.99,0-3.82,0-5.64c0.03-11.15,0.43-22.31,0-33.43
		c-0.55-14.07-1.74-28.11-2.75-42.16c-0.5-6.87-1.03-13.75-1.9-20.58c-1.44-11.23-3.2-22.42-4.76-33.63
		c-1.11-8.01-2.25-16.01-3.09-24.05c-1.08-10.31-2.01-20.63-2.75-30.97c-0.84-11.72-1.45-23.45-2.06-35.19
		c-0.71-13.65-1.48-27.29-1.93-40.95c-0.29-9.1-0.06-18.21-0.06-27.56c0.71-0.09,1.52-0.27,2.32-0.27c2.81-0.01,5.62,0.11,8.43,0.05
		c1.55-0.03,1.92,0.72,1.93,2.07c0.04,4.19,0.1,8.38,0.21,12.57c0.2,7.37,0.43,14.73,0.66,22.1c0.27,8.8,0.42,17.61,0.86,26.4"/>
	<path class="st0" d="M660.97,213.84c0.72,7.61,1.58,15.22,2.44,22.82c0.9,7.88,1.82,15.77,2.85,23.64"/>
</g>
</svg>
