<?xml version="1.0" encoding="UTF-8" standalone="no"?>

<svg xmlns="http://www.w3.org/2000/svg"
     width="10.6667in" height="10.6667in"
     viewBox="0 0 768 768">
  <path id="Selection"
        fill="black" stroke="black" stroke-width="1"
        d="M 114.00,553.00
           C 114.00,553.00 115.04,530.00 115.04,530.00
             115.04,530.00 115.04,517.00 115.04,517.00
             115.04,517.00 116.00,506.00 116.00,506.00
             116.00,506.00 116.00,487.00 116.00,487.00
             116.00,487.00 117.00,472.00 117.00,472.00
             117.00,472.00 117.00,461.00 117.00,461.00
             117.05,451.11 121.42,443.67 125.75,435.00
             125.75,435.00 142.75,401.00 142.75,401.00
             142.75,401.00 188.75,309.00 188.75,309.00
             188.75,309.00 198.75,288.00 198.75,288.00
             198.75,288.00 228.75,226.00 228.75,226.00
             228.75,226.00 236.86,210.00 236.86,210.00
             237.88,208.21 239.34,205.41 241.38,204.66
             243.36,203.94 248.75,205.52 251.00,206.00
             251.00,206.00 274.00,211.12 274.00,211.12
             274.00,211.12 308.00,218.42 308.00,218.42
             308.00,218.42 356.00,229.58 356.00,229.58
             356.00,229.58 451.00,245.61 451.00,245.61
             451.00,245.61 500.00,255.60 500.00,255.60
             500.00,255.60 654.00,286.00 654.00,286.00
             654.00,286.00 654.66,298.00 654.66,298.00
             654.66,298.00 654.00,309.00 654.00,309.00
             654.00,309.00 654.00,412.00 654.00,412.00
             654.00,412.00 652.87,424.00 652.87,424.00
             652.87,424.00 652.87,441.00 652.87,441.00
             652.87,441.00 652.87,451.96 652.87,451.96
             652.87,451.96 643.07,462.72 643.07,462.72
             643.07,462.72 630.00,475.96 630.00,475.96
             630.00,475.96 605.01,500.00 605.01,500.00
             605.01,500.00 594.99,511.00 594.99,511.00
             594.99,511.00 571.42,535.04 571.42,535.04
             571.42,535.04 553.00,554.00 553.00,554.00
             553.00,554.00 543.00,562.96 543.00,562.96
             543.00,562.96 531.00,562.96 531.00,562.96
             531.00,562.96 472.00,562.96 472.00,562.96
             472.00,562.96 455.00,562.00 455.00,562.00
             455.00,562.00 421.00,561.00 421.00,561.00
             421.00,561.00 405.00,560.00 405.00,560.00
             405.00,560.00 383.00,559.00 383.00,559.00
             383.00,559.00 365.00,558.00 365.00,558.00
             365.00,558.00 349.00,558.00 349.00,558.00
             349.00,558.00 332.00,557.00 332.00,557.00
             332.00,557.00 262.00,557.00 262.00,557.00
             262.00,557.00 247.00,556.00 247.00,556.00
             247.00,556.00 166.00,556.00 166.00,556.00
             166.00,556.00 151.00,555.00 151.00,555.00
             151.00,555.00 144.00,555.00 144.00,555.00
             144.00,555.00 114.00,553.00 114.00,553.00 Z
           M 413.00,254.00
           C 413.00,254.00 374.00,246.58 374.00,246.58
             374.00,246.58 299.00,227.87 299.00,227.87
             299.00,227.87 269.00,221.21 269.00,221.21
             266.03,220.58 258.73,218.71 256.09,219.64
             250.83,221.48 243.40,237.73 240.42,243.00
             240.42,243.00 215.77,291.00 215.77,291.00
             211.38,298.73 200.86,316.88 200.00,325.00
             200.00,325.00 237.00,333.63 237.00,333.63
             237.00,333.63 280.00,343.88 280.00,343.88
             288.46,345.89 306.19,352.05 314.00,350.00
             314.00,350.00 288.91,327.70 288.91,327.70
             288.91,327.70 269.09,308.65 269.09,308.65
             269.09,308.65 264.00,306.00 264.00,306.00
             264.00,306.00 266.00,307.00 266.00,307.00
             264.31,303.38 263.06,300.94 259.00,300.00
             259.00,300.00 257.00,298.00 257.00,298.00
             256.40,294.29 254.15,292.16 252.20,289.00
             248.68,283.25 241.57,270.71 242.36,264.00
             244.41,246.71 264.99,235.02 281.00,235.05
             281.00,235.05 292.00,235.05 292.00,235.05
             296.30,235.43 297.33,236.61 302.00,236.00
             304.39,239.56 317.33,244.93 322.00,248.00
             334.49,256.22 349.68,268.25 359.96,279.00
             366.99,286.35 373.31,296.26 378.55,305.00
             381.10,309.24 383.96,316.40 388.00,319.00
             388.00,319.00 392.80,306.00 392.80,306.00
             392.80,306.00 413.00,254.00 413.00,254.00 Z
           M 327.00,242.00
           C 327.00,242.00 328.00,242.00 328.00,242.00
             328.00,242.00 327.00,243.00 327.00,243.00
             327.00,243.00 327.00,242.00 327.00,242.00 Z
           M 246.00,249.00
           C 246.00,249.00 247.00,249.00 247.00,249.00
             247.00,249.00 246.00,250.00 246.00,250.00
             246.00,250.00 246.00,249.00 246.00,249.00 Z
           M 337.00,309.00
           C 335.99,303.65 330.65,299.09 327.13,295.00
             318.58,285.07 309.24,275.19 298.00,268.30
             293.99,265.84 288.89,262.45 284.00,262.51
             276.94,262.60 273.07,271.45 282.00,276.00
             283.07,283.51 295.49,293.55 301.00,299.00
             301.00,299.00 339.00,332.17 339.00,332.17
             347.52,339.87 361.49,353.98 372.00,358.00
             369.64,350.57 354.04,327.66 348.53,320.83
             344.04,315.29 343.56,312.55 337.00,309.00 Z
           M 636.00,296.00
           C 636.00,296.00 594.00,287.55 594.00,287.55
             594.00,287.55 509.00,271.75 509.00,271.75
             509.00,271.75 478.00,265.58 478.00,265.58
             475.06,264.93 468.11,262.89 465.47,264.34
             463.44,265.46 457.22,279.94 455.78,283.00
             455.78,283.00 432.00,338.00 432.00,338.00
             440.98,335.44 450.56,328.61 459.00,324.26
             459.00,324.26 484.00,311.86 484.00,311.86
             484.00,311.86 511.00,301.00 511.00,301.00
             525.26,295.33 542.55,289.53 558.00,291.73
             564.37,292.64 573.07,294.12 579.00,296.46
             590.85,301.15 602.19,313.09 604.00,326.00
             604.00,326.00 604.00,324.00 604.00,324.00
             604.00,324.00 603.00,324.00 603.00,324.00
             603.30,330.15 603.06,337.52 599.91,343.00
             597.37,347.44 592.08,350.01 591.00,355.00
             586.43,355.45 581.06,358.27 580.00,363.00
             576.13,362.82 572.08,363.90 571.00,368.00
             564.66,367.65 558.81,371.73 553.00,373.94
             553.00,373.94 522.17,384.60 522.17,384.60
             516.34,386.34 512.00,385.69 507.00,390.00
             507.00,390.00 551.00,395.28 551.00,395.28
             555.29,395.81 566.31,397.84 569.91,396.40
             573.98,394.77 583.08,379.39 586.00,375.00
             586.00,375.00 604.95,345.00 604.95,345.00
             604.95,345.00 621.19,320.00 621.19,320.00
             624.88,314.06 632.95,304.80 633.00,298.00
             633.00,298.00 636.00,296.00 636.00,296.00 Z
           M 335.00,307.00
           C 335.00,307.00 336.00,307.00 336.00,307.00
             336.00,307.00 335.00,308.00 335.00,308.00
             335.00,308.00 335.00,307.00 335.00,307.00 Z
           M 562.84,328.00
           C 565.75,327.01 564.58,324.44 562.84,322.89
             560.53,321.12 557.65,320.96 555.00,321.17
             536.62,322.64 509.00,335.55 492.00,343.14
             486.77,345.48 471.72,351.77 469.00,356.00
             460.76,356.68 445.63,368.40 437.00,372.00
             437.00,372.00 437.00,375.00 437.00,375.00
             476.74,369.75 499.23,364.52 537.00,350.19
             545.15,347.10 567.53,339.66 562.84,328.00 Z
           M 639.00,323.00
           C 634.28,325.49 633.27,328.55 630.60,333.00
             630.60,333.00 618.68,353.00 618.68,353.00
             618.68,353.00 597.00,387.00 597.00,387.00
             594.81,390.31 588.29,399.55 587.81,403.00
             587.42,405.77 592.66,422.60 593.78,426.57
             593.78,426.57 606.00,475.00 606.00,475.00
             606.00,475.00 610.00,477.00 610.00,477.00
             610.00,477.00 628.00,459.00 628.00,459.00
             628.00,459.00 635.81,450.00 635.81,450.00
             635.81,450.00 637.00,436.00 637.00,436.00
             637.00,436.00 637.00,420.00 637.00,420.00
             637.00,420.00 638.00,404.00 638.00,404.00
             638.00,404.00 638.00,354.00 638.00,354.00
             638.00,354.00 639.00,323.00 639.00,323.00 Z
           M 373.00,358.00
           C 373.00,358.00 372.00,358.00 372.00,358.00
             372.00,358.00 373.00,359.00 373.00,359.00
             373.00,359.00 373.00,358.00 373.00,358.00 Z
           M 232.00,380.00
           C 230.96,377.04 223.07,376.61 220.00,376.00
             220.00,376.00 190.00,370.23 190.00,370.23
             187.21,369.99 180.73,368.59 178.41,370.23
             176.62,371.15 175.41,374.14 174.49,376.00
             174.49,376.00 167.25,391.00 167.25,391.00
             167.25,391.00 144.73,436.00 144.73,436.00
             141.80,442.34 137.79,446.96 137.00,454.00
             165.13,459.29 193.58,461.42 222.00,464.17
             222.00,464.17 266.00,468.09 266.00,468.09
             266.00,468.09 297.00,471.77 297.00,471.77
             299.87,471.96 308.38,473.32 310.61,471.77
             313.11,470.45 316.78,461.93 318.25,459.00
             322.78,449.94 333.37,430.99 335.00,422.00
             335.00,422.00 312.00,430.28 312.00,430.28
             287.77,437.58 264.28,443.42 239.00,445.83
             239.00,445.83 196.00,447.00 196.00,447.00
             189.39,447.00 179.06,446.28 173.00,448.00
             172.00,445.21 168.63,446.01 166.00,446.00
             166.00,446.00 173.00,407.00 173.00,407.00
             173.00,407.00 205.00,409.00 205.00,409.00
             205.00,409.00 227.00,410.00 227.00,410.00
             227.00,410.00 248.00,409.00 248.00,409.00
             257.77,408.95 265.39,408.33 275.00,406.40
             284.95,404.40 301.92,399.85 310.00,394.00
             304.18,391.58 293.50,390.02 287.00,388.92
             287.00,388.92 256.00,383.20 256.00,383.20
             249.62,381.99 237.80,378.62 232.00,380.00 Z
           M 460.00,370.00
           C 460.00,370.00 461.00,370.00 461.00,370.00
             461.00,370.00 460.00,371.00 460.00,371.00
             460.00,371.00 460.00,370.00 460.00,370.00 Z
           M 437.00,373.00
           C 437.00,373.00 436.00,373.00 436.00,373.00
             436.00,373.00 437.00,374.00 437.00,374.00
             437.00,374.00 437.00,373.00 437.00,373.00 Z
           M 436.00,374.00
           C 436.00,374.00 435.00,374.00 435.00,374.00
             435.00,374.00 436.00,375.00 436.00,375.00
             436.00,375.00 436.00,374.00 436.00,374.00 Z
           M 312.00,393.00
           C 312.00,393.00 311.00,393.00 311.00,393.00
             311.00,393.00 312.00,394.00 312.00,394.00
             312.00,394.00 312.00,393.00 312.00,393.00 Z
           M 390.00,413.00
           C 390.00,413.00 377.58,434.00 377.58,434.00
             377.58,434.00 368.69,451.00 368.69,451.00
             368.69,451.00 353.00,481.00 353.00,481.00
             359.16,482.75 367.61,482.65 374.00,483.09
             374.00,483.09 403.00,485.04 403.00,485.04
             403.00,485.04 411.00,485.91 411.00,485.91
             411.00,485.91 436.00,487.09 436.00,487.09
             436.00,487.09 452.00,488.00 452.00,488.00
             452.00,488.00 469.00,489.00 469.00,489.00
             478.19,489.01 491.85,491.32 500.00,489.00
             502.44,491.72 511.94,491.46 516.00,492.00
             516.00,492.00 539.20,455.00 539.20,455.00
             543.01,448.66 547.70,442.40 549.00,435.00
             549.00,435.00 479.00,423.58 479.00,423.58
             479.00,423.58 447.00,418.00 447.00,418.00
             455.31,427.97 477.96,440.73 490.00,446.75
             490.00,446.75 503.00,453.14 503.00,453.14
             505.19,454.12 508.94,455.43 510.35,457.39
             512.04,459.75 510.87,461.90 509.43,464.00
             509.43,464.00 496.94,478.25 496.94,478.25
             495.08,479.99 493.55,481.77 490.83,481.38
             490.83,481.38 479.00,476.86 479.00,476.86
             479.00,476.86 457.00,466.89 457.00,466.89
             452.10,464.38 446.53,459.78 441.00,460.00
             439.91,455.26 433.78,452.93 430.00,450.28
             430.00,450.28 410.00,434.83 410.00,434.83
             406.03,431.28 402.64,426.59 398.00,424.00
             398.00,424.00 399.00,425.00 399.00,425.00
             399.00,425.00 398.00,426.00 398.00,426.00
             398.00,426.00 398.00,422.00 398.00,422.00
             398.00,422.00 397.00,421.00 397.00,421.00
             397.00,421.00 395.00,422.00 395.00,422.00
             394.37,417.56 392.84,416.33 390.00,413.00 Z
           M 550.00,436.00
           C 550.00,436.00 549.00,436.00 549.00,436.00
             549.00,436.00 550.00,437.00 550.00,437.00
             550.00,437.00 550.00,436.00 550.00,436.00 Z
           M 382.00,443.00
           C 382.00,443.00 383.00,443.00 383.00,443.00
             383.00,443.00 382.00,444.00 382.00,444.00
             382.00,444.00 382.00,443.00 382.00,443.00 Z
           M 599.00,443.00
           C 599.00,443.00 600.00,443.00 600.00,443.00
             600.00,443.00 599.00,444.00 599.00,444.00
             599.00,444.00 599.00,443.00 599.00,443.00 Z
           M 559.00,454.00
           C 559.00,454.00 558.00,454.00 558.00,454.00
             558.00,454.00 559.00,456.00 559.00,456.00
             553.06,457.33 548.08,468.94 544.82,474.00
             542.23,478.03 531.30,493.77 530.59,497.00
             529.92,500.12 532.31,509.50 533.12,513.00
             533.12,513.00 540.00,544.00 540.00,544.00
             550.77,538.22 563.59,520.31 574.00,512.00
             574.00,512.00 565.87,478.00 565.87,478.00
             564.85,473.89 564.33,467.74 561.00,465.00
             561.60,460.78 560.94,457.78 559.00,454.00 Z
           M 602.00,453.00
           C 602.00,453.00 603.00,453.00 603.00,453.00
             603.00,453.00 602.00,454.00 602.00,454.00
             602.00,454.00 602.00,453.00 602.00,453.00 Z
           M 172.00,455.00
           C 172.00,455.00 173.00,455.00 173.00,455.00
             173.00,455.00 172.00,456.00 172.00,456.00
             172.00,456.00 172.00,455.00 172.00,455.00 Z
           M 303.00,543.00
           C 303.00,543.00 303.00,496.00 303.00,496.00
             303.00,496.00 301.40,487.98 301.40,487.98
             301.40,487.98 289.00,485.96 289.00,485.96
             289.00,485.96 259.00,484.00 259.00,484.00
             259.00,484.00 235.00,482.09 235.00,482.09
             235.00,482.09 157.00,475.91 157.00,475.91
             157.00,475.91 131.00,474.00 131.00,474.00
             131.00,474.00 128.00,539.00 128.00,539.00
             128.00,539.00 157.00,541.00 157.00,541.00
             157.00,541.00 188.00,543.00 188.00,543.00
             188.00,543.00 303.00,543.00 303.00,543.00 Z
           M 365.00,475.00
           C 365.00,475.00 366.00,475.00 366.00,475.00
             366.00,475.00 365.00,476.00 365.00,476.00
             365.00,476.00 365.00,475.00 365.00,475.00 Z
           M 471.00,480.00
           C 471.00,480.00 472.00,480.00 472.00,480.00
             472.00,480.00 471.00,481.00 471.00,481.00
             471.00,481.00 471.00,480.00 471.00,480.00 Z
           M 527.00,551.96
           C 527.00,551.96 519.35,518.04 519.35,518.04
             518.65,515.62 516.65,507.15 515.27,505.90
             512.59,503.48 504.57,504.04 501.00,504.00
             501.00,504.00 491.00,503.04 491.00,503.04
             491.00,503.04 478.00,503.04 478.00,503.04
             478.00,503.04 463.00,502.00 463.00,502.00
             463.00,502.00 426.00,500.09 426.00,500.09
             426.00,500.09 406.00,498.83 406.00,498.83
             406.00,498.83 372.00,495.83 372.00,495.83
             372.00,495.83 352.00,494.00 352.00,494.00
             352.00,494.00 352.00,519.00 352.00,519.00
             352.00,519.00 353.00,534.00 353.00,534.00
             353.06,536.56 352.89,539.12 355.31,540.69
             357.51,542.11 364.88,542.17 368.00,542.58
             368.00,542.58 378.00,543.09 378.00,543.09
             378.00,543.09 407.00,545.04 407.00,545.04
             407.00,545.04 415.00,545.91 415.00,545.91
             415.00,545.91 436.00,547.17 436.00,547.17
             436.00,547.17 453.00,548.91 453.00,548.91
             453.00,548.91 498.00,551.00 498.00,551.00
             498.00,551.00 510.00,551.96 510.00,551.96
             510.00,551.96 527.00,551.96 527.00,551.96 Z
           M 540.00,536.00
           C 540.00,536.00 541.00,536.00 541.00,536.00
             541.00,536.00 540.00,537.00 540.00,537.00
             540.00,537.00 540.00,536.00 540.00,536.00 Z
           M 540.00,538.00
           C 540.00,538.00 541.00,538.00 541.00,538.00
             541.00,538.00 540.00,539.00 540.00,539.00
             540.00,539.00 540.00,538.00 540.00,538.00 Z
           M 541.00,541.00
           C 541.00,541.00 542.00,541.00 542.00,541.00
             542.00,541.00 541.00,542.00 541.00,542.00
             541.00,542.00 541.00,541.00 541.00,541.00 Z
           M 119.00,561.00
           C 119.00,561.00 120.00,561.00 120.00,561.00
             120.00,561.00 119.00,562.00 119.00,562.00
             119.00,562.00 119.00,561.00 119.00,561.00 Z" />
</svg>
