<?xml version="1.0" encoding="utf-8"?>
<!-- Generator: Adobe Illustrator 28.3.0, SVG Export Plug-In . SVG Version: 6.00 Build 0)  -->
<svg version="1.1" id="Layer_1" xmlns="http://www.w3.org/2000/svg" xmlns:xlink="http://www.w3.org/1999/xlink" x="0px" y="0px"
	 viewBox="0 0 850.32 567" style="enable-background:new 0 0 850.32 567;" xml:space="preserve">
<g>
	<path d="M818.16,546.43c-101.83,0-203.52,0-305.53,0c-2.74-48.35-5.69-96.66-8.17-144.99c-2.48-48.31-4.48-96.65-6.69-144.98
		c-0.2-0.04-0.4-0.09-0.6-0.13c-0.72,1.96-1.54,3.9-2.15,5.9c-2.76,8.97-6.97,17.15-12.6,24.67c-5.3,7.09-11.13,13.65-18.2,19.03
		c-8.03,6.1-17.33,9.33-26.96,11.91c-8.22,2.19-16.45,2.25-24.8,1.26c-2.89-0.34-5.85-0.14-8.72-0.54
		c-5.32-0.75-10.63-1.65-15.91-2.69c-5.99-1.18-11.93-2.58-17.9-3.87c-0.26-0.06-0.54-0.01-0.99,0.34c0.5,0.3,0.98,0.64,1.5,0.89
		c9.51,4.57,19.11,8.94,28.51,13.72c11.11,5.66,22.04,11.65,33.03,17.54c13.25,7.11,26.48,14.26,39.71,21.41
		c2.5,1.35,2.47,1.37,0.99,3.85c-6.85,11.44-15.91,20.8-26.78,28.47c-10.78,7.61-22.67,12.48-35.59,15.19
		c-9.39,1.97-18.75,3.45-28.35,2.37c-8.25-0.92-16.3-2.82-24.15-5.52c-4.81-1.66-9.53-3.59-14.29-5.41c-0.6-0.23-1.2-0.46-1.8-0.7
		c-0.12,0.13-0.24,0.27-0.36,0.4c0.43,0.44,0.79,1,1.3,1.3c6.21,3.63,12.46,7.21,18.68,10.82c12.38,7.19,24.77,14.38,37.13,21.6
		c7.4,4.32,14.77,8.66,22.14,13.03c2.22,1.31,4.36,2.75,6.56,4.08c1,0.6,0.95,1.16,0.3,2.01c-6.04,7.93-12.51,15.48-19.94,22.16
		c-5.67,5.09-11.36,10.21-18.15,13.77c-4.66,2.44-9.57,4.4-14.36,6.58c-1.11,0.51-2.16,1.26-3.32,1.54
		c-1.33,0.33-2.79,0.14-4.15,0.39c-9.18,1.69-18.41,0.9-27.63,0.63c-8.83-0.26-17.58-1.14-26.12-3.59
		c-9.96-2.86-19.92-5.69-29.89-8.49c-3.94-1.11-3.23-1.41-4.39,2.26c-3,9.55-5.84,19.15-8.77,28.72
		c-2.43,7.96-4.91,15.92-7.33,23.88c-0.26,0.86-0.57,1.28-1.57,1.27c-8.4-0.04-16.8-0.03-25.2-0.03c-0.17,0-0.34-0.07-0.56-0.11
		c1.24-4.08,2.54-8.12,3.68-12.21c2.92-10.44,5.67-20.93,8.69-31.33c2.3-7.93,5.09-15.72,7.34-23.66
		c2.63-9.27,5.03-18.61,7.32-27.97c3.3-13.44,6.51-26.9,9.57-40.39c3.74-16.44,7.36-32.91,10.89-49.4
		c2.51-11.71,4.96-23.43,7.14-35.21c2.82-15.24,5.48-30.51,7.96-45.81c2.38-14.64,3.31-29.41,2.83-44.23
		c-0.2-6.2-0.99-12.41-1.96-18.55c-0.37-2.32-1.98-4.44-3.04-6.65c-0.09-0.2-0.31-0.38-0.51-0.47c-2.72-1.21-5.43-2.45-8.18-3.57
		c-0.57-0.23-1.34-0.05-2.01,0.04c-5.81,0.74-7.93,5.39-10.23,9.79c-1.94,3.72-3.88,7.44-5.64,11.25c-1,2.16-1.53,4.53-2.43,6.73
		c-2.13,5.21-4.42,10.36-6.55,15.57c-4.61,11.31-9.31,22.59-13.68,33.99c-4.11,10.74-7.88,21.61-11.74,32.44
		c-3.3,9.28-7.31,18.25-11.87,26.98c-3.3,6.31-6.15,12.89-9.83,18.97c-3.55,5.86-7.18,11.77-12.17,16.63c-2.36,2.3-4.64,4.67-6.97,7
		c-3.39,3.38-7.3,6-11.58,8.13c-0.91,0.45-1.67,1.2-2.47,1.79c-2.01,0.65-4.17,1.09-6.1,2.02c-5.3,2.56-10.67,2.07-16.13,0.86
		c-2.33-0.52-4.65-1.09-6.99-1.52c-1.87-0.35-3.26-1.29-4.47-2.73c-0.44-0.52-1.33-0.66-1.84-0.89c-0.26-0.87-0.34-1.94-0.86-2.74
		c-3.67-5.69-6.11-11.91-8.24-18.29c-1.08-3.26-2.5-6.43-3.36-9.74c-0.68-2.61-0.77-5.38-1.08-8.08
		c-1.18-10.28-0.66-20.57-0.15-30.87c0.55-11.34,2.81-22.44,4.24-33.66c2.2-17.24,5.92-34.19,9.23-51.22
		c3.16-16.28,6.55-32.51,9.78-48.78c1.47-7.39,2.78-14.82,4.25-22.69c-17.02-3.29-33.96-6.56-51.1-9.87
		c-0.95,5.21-1.82,9.96-2.68,14.72c-1.75,9.73-3.49,19.45-5.23,29.18c-1.58,8.84-3.16,17.69-4.71,26.54
		c-1.57,9.02-3.15,18.05-4.62,27.09c-1.27,7.86-2.32,15.76-3.58,23.62c-1.68,10.53-3.59,21.02-5.14,31.56
		c-1.14,7.75-1.95,15.56-2.78,23.35c-1.01,9.46-1.83,18.94-2.83,28.41c-1.29,12.32-2.71,24.63-4.01,36.95
		c-1.11,10.48-2.14,20.97-3.17,31.46c-1.04,10.67-1.99,21.35-3.05,32.03c-1.23,12.4-2.64,24.79-3.76,37.2
		c-1.36,15.04-2.48,30.1-3.72,45.15c-0.03,0.35-0.12,0.69-0.19,1.07c-8.45,0-16.82,0-25.36,0c0.32-4.39,0.59-8.68,0.96-12.95
		c0.76-8.77,1.56-17.54,2.38-26.31c0.75-8.03,1.64-16.05,2.28-24.1c0.74-9.32,1.16-18.66,1.94-27.97
		c1.01-11.94,2.21-23.86,3.39-35.79c1.03-10.36,2.1-20.72,3.22-31.08c1.35-12.44,2.78-24.87,4.16-37.3
		c1.45-13.03,2.86-26.07,4.3-39.1c1.34-12.08,2.59-24.17,4.06-36.24c1.7-13.91,3.48-27.81,5.44-41.69
		c2.29-16.19,4.71-32.37,7.26-48.52c1.53-9.69,3.41-19.32,5.13-28.98c0.19-1.05,0.31-2.11,0.49-3.37
		c-4.69-0.92-9.33-1.77-13.94-2.76c-11.89-2.55-23.77-5.16-35.65-7.76c-3.51-0.77-7.01-1.63-10.54-2.33
		c-1.37-0.27-1.54-0.76-1.22-2.07c1.82-7.51,3.48-15.06,5.27-22.58c2.93-12.28,5.92-24.55,8.93-37.04
		c20.45,5.1,41.03,10.23,61.58,15.35c1.91-6.16,3.69-11.8,5.42-17.46c3.56-11.63,9.89-21.53,18.85-29.69
		c5.85-5.33,12.92-8.66,20.28-11.35c5.74-2.1,11.52-4.08,17.34-5.95c1.32-0.42,2.85-0.23,4.28-0.24c4.02-0.03,8.04-0.15,12.04,0
		c4,0.16,8.03,0.35,11.97,0.98c10.05,1.61,20.05,3.5,30.08,5.24c10.27,1.79,20.56,3.48,30.82,5.32c9.26,1.66,18.51,3.35,27.73,5.22
		c14.91,3.02,29.82,6.07,44.67,9.35c16.21,3.59,32.34,7.51,48.53,11.18c9.17,2.08,18.38,4.01,27.6,5.89
		c7.74,1.59,15.51,3.06,23.28,4.5c5.17,0.96,10.37,1.77,15.56,2.62c1.95,0.32,2.32,0.71,1.61,2.55c-2.91,7.53-5.87,15.03-8.87,22.52
		c-2.96,7.38-7.02,14.14-11.64,20.58c-6.48,9.03-14.84,15.89-24.6,21.11c-2.52,1.35-5.1,2.59-8.14,4.14
		c0.99,0.62,1.58,1.2,2.27,1.39c12.1,3.22,24.22,6.37,36.32,9.58c11.35,3.01,22.68,6.1,34.04,9.1c7.36,1.94,14.75,3.77,22.11,5.68
		c6.09,1.58,12.16,3.22,18.25,4.8c0.79,0.2,1.62,0.23,2.31,0.33c0-4.54-0.12-8.91,0.02-13.28c0.3-9.47,0.68-18.93,1.12-28.39
		c0.59-12.5,1.3-25,1.93-37.51c0.67-13.22,1.37-26.45,1.95-39.67c0.53-11.91,0.92-23.83,1.37-35.74c0.1-2.73,0.1-2.71,2.85-2.71
		c26.2,0.08,52.39,0.17,78.59,0.22c20.39,0.04,40.78,0.04,61.17,0.01c12.23-0.01,24.46-0.13,36.69-0.16
		c10.79-0.02,21.58,0.01,32.37,0.03c15.59,0.02,31.17-0.01,46.76,0.08c10.25,0.06,20.51,0.35,30.76,0.41
		c8.97,0.05,17.95-0.07,26.93-0.11c0.29,0,0.58,0.08,0.98,0.14C818.16,198.46,818.16,372.36,818.16,546.43z M778.37,61.27
		c-1.82,0-3.48,0.02-5.13,0c-9.53-0.11-19.07-0.21-28.6-0.36c-9.59-0.15-19.19-0.27-28.77-0.58c-10.36-0.34-20.71-1.27-31.07-1.26
		c-15.76,0.01-31.53,0.58-47.29,0.97c-16.36,0.41-32.73,0.86-49.09,1.33c-16.54,0.48-33.08,1.02-49.62,1.47
		c-1.7,0.05-2.5,0.56-2.58,2.35c-0.45,9.27-1.02,18.54-1.45,27.81c-0.25,5.39-0.29,10.78-0.5,16.17
		c-0.49,12.4-1.06,24.79-1.54,37.19c-0.27,7.01-0.48,14.02-0.66,21.03c-0.22,8.26-0.43,16.52-0.56,24.79
		c-0.03,1.68,0.29,3.34,2.2,4.15c2.75,1.17,5.46,2.44,8.2,3.66c2.99,1.33,6.12,2.42,8.95,4.02c5.72,3.22,11.23,6.83,16.93,10.08
		c11.54,6.59,23.17,13.04,34.73,19.59c2.05,1.16,3.95,2.57,5.93,3.87c-0.05,0.18-0.09,0.35-0.14,0.53
		c-1.89,0.38-3.78,0.75-5.67,1.14c-8.15,1.69-16.29,3.45-24.46,5.07c-15.05,2.99-30.1,5.91-45.17,8.79
		c-1.41,0.27-1.83,0.66-1.76,2.15c0.7,15.38,1.41,30.76,1.92,46.15c0.28,8.62,0.03,17.26,0.28,25.88
		c0.38,13.36,0.97,26.72,1.5,40.08c0.3,7.73,0.62,15.46,0.97,23.18c0.61,13.35,1.22,26.71,1.89,40.06
		c0.5,9.88,1.03,19.76,1.65,29.64c0.96,15.26,2,30.51,3.02,45.76c0.23,3.51,0.52,7.02,0.8,10.72c79.85,0.39,159.55,0.78,239.36,1.16
		c0-0.87,0.01-1.46,0-2.06c-0.17-17.4-0.34-34.8-0.53-52.2c-0.37-35.33-0.73-70.67-1.15-106c-0.1-8.63-0.44-17.25-0.67-25.88
		c-0.37-13.96-0.79-27.92-1.12-41.88c-0.29-12.45-0.57-24.9-0.72-37.36c-0.15-12.05-0.12-24.11-0.17-36.16
		c-0.07-16.91-0.19-33.81-0.22-50.72c-0.01-7.25,0.18-14.5,0.23-21.75c0.03-5.5-0.03-11-0.03-16.5c0-10.16,0.01-20.32,0.03-30.48
		c0.02-6.35,0.09-12.7,0.12-19.05C778.38,72.35,778.37,66.85,778.37,61.27z M395.34,97.68c-4.21-0.71-8.05-1.23-11.84-2.02
		c-15.54-3.25-31.06-6.57-46.58-9.89c-3.98-0.85-7.93-1.87-11.93-2.65c-13.69-2.7-27.41-5.27-41.09-8.02
		c-14.81-2.98-29.55-6.26-44.38-9.12c-13.65-2.63-27.35-5.03-41.08-7.23c-7.51-1.21-15.09-2.11-22.67-2.59
		c-6.56-0.42-13.18-0.07-19.77-0.01c-7.66,0.07-14.83,2.06-21.4,5.95c-2.69,1.59-4.56,4.21-5.38,7.18
		c-2.26,8.12-4.27,16.31-6.31,24.48c-1.01,4.03-1.49,3.55,2.82,4.26c10.28,1.71,20.59,3.27,30.88,4.92
		c5.03,0.8,10.06,1.61,15.08,2.5c14.27,2.54,28.58,4.88,42.78,7.77c15.26,3.11,30.4,6.76,45.6,10.15c3.12,0.69,6.28,1.17,9.38,1.93
		c2.53,0.62,4.95,1.68,7.49,2.28c13.34,3.18,26.64,6.53,40.07,9.29c5.95,1.22,12.09,1.51,18.01,3.14c4.55,1.26,9.28,1.85,13.88,2.96
		c1.53,0.37,2.51,0.05,3.62-0.88c2.3-1.92,4.73-3.69,7.06-5.58c7.07-5.73,14.69-10.85,20.47-18.04c1.86-2.31,3.49-4.8,5.3-7.15
		c1.85-2.4,3.86-4.69,5.66-7.13C392.5,102.2,393.77,100.05,395.34,97.68z M191.29,175.64c-1.11,5.63-2.07,10.68-3.11,15.72
		c-2.17,10.55-4.43,21.08-6.56,31.63c-2.52,12.5-5.01,25-7.38,37.53c-1.39,7.35-2.46,14.75-3.8,22.11
		c-1.19,6.53-2.61,13.02-3.86,19.54c-1.13,5.88-2.2,11.76-3.22,17.66c-1.58,9.13-3.44,18.22-4.53,27.41
		c-1.01,8.51,1.66,16.21,7.32,22.76c0.38,0.44,0.96,1.08,1.39,1.04c2.76-0.25,5.84,0.01,8.17-1.17c4.65-2.34,8.68-5.72,11.92-9.94
		c4.33-5.64,7.71-11.84,10.68-18.27c3.87-8.38,7.58-16.78,10.43-25.61c6.68-20.69,13.91-41.2,22.32-61.28
		c7.48-17.86,15.08-35.65,24.71-52.49c1.56-2.73,3-5.54,4.71-8.72C237.25,187.54,214.33,181.6,191.29,175.64z M474.1,250.38
		c-7.79-3.95-145.13-39.08-150.79-38.57c0.67,2.07,1.42,4.07,1.98,6.13c1.51,5.48,3.05,10.96,4.37,16.48
		c1.06,4.42,2.33,8.87,2.61,13.37c0.58,9.44,0.6,18.91,0.77,28.38c0.02,1.31,0.44,1.95,1.71,2.29c10.03,2.64,20.02,5.39,30.06,7.97
		c9.22,2.37,18.49,4.57,27.73,6.86c11.8,2.92,23.69,5.01,35.93,3.71c2.74-0.29,5.46-0.54,7.94-2c7.41-4.35,14.44-9.24,20.79-15.04
		c1.66-1.51,3.23-3.27,4.33-5.21c2.42-4.27,4.51-8.73,6.75-13.1C470.19,257.91,472.13,254.19,474.1,250.38z M441.56,370.16
		c-0.73-0.39-1.18-0.67-1.66-0.88c-16.11-7-32.3-13.83-48.31-21.05c-13.98-6.3-27.85-12.87-41.59-19.68
		c-7.56-3.74-14.77-8.22-22.14-12.36c-1.61-0.9-1.99-0.77-2.52,1.04c-0.68,2.3-1.26,4.62-1.92,6.92c-1.54,5.41-3.12,10.8-4.65,16.21
		c-1.44,5.06-2.81,10.14-4.25,15.2c-0.76,2.65-1.61,5.27-2.42,7.91c-0.44,1.44-0.23,2.49,1.36,3.17c2.11,0.9,4.1,2.09,6.19,3.03
		c14.05,6.3,28.09,12.62,42.19,18.81c3.17,1.39,6.51,2.6,9.89,3.27c3.25,0.64,6.66,0.56,10,0.66c5.91,0.18,11.81,0.89,17.72-0.17
		c5.07-0.9,9.84-2.61,14.49-4.73c5.23-2.39,10.55-4.6,15.61-7.31C434.1,377.76,437.98,374.32,441.56,370.16z M395.82,458.13
		c-31.14-15.71-62.12-31.33-93.22-47.01c-0.44,1.04-0.98,2.1-1.34,3.23c-1.88,5.94-3.78,11.87-5.56,17.84
		c-2.67,8.95-5.3,17.91-7.82,26.91c-0.94,3.35-0.79,3.44,2.46,4.64c16.54,6.09,33.18,11.88,50.48,15.47
		c7.32,1.52,14.74,1.11,21.91-0.78c7.14-1.88,13.91-4.89,20.28-8.67C388.07,466.75,392.33,462.85,395.82,458.13z"/>
	<path d="M683.01,133.91c-1.92,0.91-3.88,1.73-5.75,2.73c-11.66,6.24-22.97,13.01-32.5,22.32c-6.85,6.7-12.19,14.63-17.61,22.48
		c-4.76,6.9-9.53,13.8-14.39,20.64c-2.17,3.05-2.28,2.98-5.32,0.86c-4.62-3.22-9.23-6.46-14.07-9.85c1.62-2.39,3.11-4.68,4.69-6.9
		c3.08-4.35,6.19-8.68,9.32-12.99c9.88-13.58,19.98-27,31.49-39.27c5.95-6.34,13.08-11.24,20.47-15.76
		c12.72-7.78,26.53-12.99,40.66-17.59c8.46-2.76,16.92-5.27,25.68-6.78c0.45-0.08,0.91-0.1,1.73-0.18
		c-0.55,1.13-0.94,1.98-1.38,2.81c-9.3,17.59-18.6,35.19-27.93,52.76c-4.38,8.26-8.84,16.48-13.27,24.71
		c-7.58,14.11-13.97,28.76-19.92,43.61c-3.61,9.01-7.52,17.9-10.98,26.96c-5.56,14.55-11.24,29.07-16.17,43.84
		c-5.21,15.57-9.53,31.44-12.2,47.68c-2.44,14.84-5.04,29.66-6.92,44.57c-2.02,15.99-3.37,32.06-2.41,48.23
		c0.62,10.45,2.7,20.65,5.42,30.73c0.04,0.16,0.17,0.31,0.44,0.77c1.08-1.32,2.16-2.48,3.07-3.76c6.97-9.75,13.96-19.49,20.83-29.31
		c5.12-7.31,9.94-14.82,15.17-22.05c1.69-2.34,1.66-4.37,1.04-6.92c-2.28-9.36-4.66-18.71-6.47-28.17
		c-1.05-5.51-1.21-11.2-1.55-16.83c-0.45-7.48-0.86-14.97-0.94-22.46c-0.06-5.32,0.24-10.67,0.74-15.98
		c1.31-14.04,3.57-27.95,7.39-41.52c2.38-8.46,5.52-16.71,8.46-25c4.65-13.11,10.4-25.77,16.1-38.45
		c3.83-8.52,9.52-15.45,16.27-21.67c4.14-3.82,8.31-7.61,12.58-11.29c6.37-5.49,13.72-8.59,22.22-8.76
		c4.77-0.09,9.03,1.72,13.3,3.44c2.88,1.16,5.99,2.07,8.45,3.84c3.09,2.23,5.48,5.32,7.03,8.95c3.68,8.59,3.75,17.48,2.26,26.5
		c-1,6.03-1.88,12.08-3.19,18.04c-1.49,6.78-3.08,13.57-5.18,20.18c-4.23,13.3-8.49,26.6-13.4,39.66
		c-5.31,14.12-11.13,28.07-17.2,41.88c-6.36,14.48-13.14,28.78-20.02,43.03c-5.08,10.52-10.49,20.88-16.01,31.17
		c-1.6,2.98-1.82,5.57-0.62,8.63c4.49,11.49,8.82,23.05,13.31,34.55c3.36,8.59,6.84,17.14,10.36,25.67
		c0.61,1.49,0.18,1.93-1.16,2.42c-6.64,2.42-13.27,4.89-19.86,7.45c-1.52,0.59-1.78-0.29-2.16-1.26
		c-2.03-5.31-4.06-10.63-6.08-15.94c-3.68-9.69-7.36-19.38-11.03-29.07c-0.46-1.22-0.87-2.46-1.47-4.14c-2.1,2.68-4,5.02-5.8,7.44
		c-12.45,16.73-25.88,32.58-41.63,46.35c-3.16,2.76-6.28,5.55-9.44,8.32c-1.56,1.37-1.87,1.36-2.69-0.53
		c-3.53-8.07-7.31-16.04-10.4-24.28c-3.61-9.64-7.04-19.39-9.73-29.31c-2.45-9.04-4.08-18.34-5.57-27.61
		c-1.29-8.03-2.18-16.15-2.65-24.27c-0.39-6.79,0.13-13.64,0.16-20.46c0.05-13.21,3.38-25.86,6.55-38.52
		c4.1-16.34,9.2-32.38,15.49-48.01c4.03-10,8.4-19.87,12.84-29.7c4.49-9.94,9.09-19.83,13.97-29.59
		c6.37-12.76,13.05-25.36,19.61-38.02c5.48-10.58,10.93-21.17,16.52-31.69c1.37-2.57,3.33-4.82,4.89-7.3
		c2.38-3.79,4.66-7.65,6.98-11.48C683.28,134.26,683.15,134.08,683.01,133.91z M680.33,369.3c0.21,0.03,0.42,0.07,0.63,0.1
		c0.35-0.78,0.71-1.55,1.05-2.33c3.57-8.24,6.95-16.58,10.75-24.71c7.32-15.69,14.87-31.27,22.36-46.88
		c6.25-13.02,12.72-25.99,17.04-39.79c4.36-13.93,7.93-28.1,11.68-42.21c0.79-2.98,0.91-6.14,1.18-9.24
		c0.08-0.87-0.17-2.05-0.73-2.65c-1.45-1.58-3.22-2.86-4.75-4.37c-1.23-1.22-2.68-1.42-4.14-0.97c-3.49,1.07-6.93,2.31-10.38,3.52
		c-0.42,0.15-0.87,0.48-1.09,0.85c-2.5,4.23-5.13,8.39-7.38,12.75c-5.37,10.37-10.36,20.94-15.86,31.23
		c-5.91,11.07-11.09,22.43-15.04,34.33c-3.57,10.74-7.02,21.55-7,33.04c0.02,14.62,0.07,29.24,0.33,43.86
		C679.05,360.33,679.85,364.81,680.33,369.3z"/>
</g>
</svg>
