<?xml version="1.0" encoding="UTF-8"?><svg id="Layer_2" xmlns="http://www.w3.org/2000/svg" viewBox="0 0 788.57 523.98"><defs><style>.cls-1{fill:#000;stroke-width:0px;}</style></defs><path class="cls-1" d="M0,523.64c.09-7.05.2-14,.27-20.95.36-37.65.72-75.3,1.07-112.95.11-11.74-.16-23.5.38-35.22.28-6.05,1.72-12.09,3-18.05,2.27-10.59,5-21.07,7.2-31.67,3.66-17.63,7.15-35.3,10.53-52.99,3.57-18.65,6.85-37.36,10.39-56.02,3.11-16.38,6.38-32.73,9.62-49.08,4-20.21,8.03-40.41,12.04-60.62,3.18-16,6.4-32,9.5-48.01,1.24-6.42,2.28-12.88,3.31-19.34.24-1.52.88-2.38,2.35-2.81,23.28-6.77,46.83-12.26,71.01-14.51,19.82-1.84,39.69-1.55,59.54-.86,14.39.5,28.83,1,43.1,2.7,22.23,2.65,44.14,7.22,65.84,12.88,22.37,5.84,43.85,13.98,64.35,24.64,9.29,4.83,18.16,10.5,27.14,15.93,1.89,1.14,3.39,1.27,5.44.44,14.46-5.84,28.9-11.76,43.5-17.25,22.1-8.3,44.75-14.9,67.73-20.1,19.43-4.4,39.01-8.36,58.71-11.23,25.25-3.69,50.68-6.13,76.21-7.17,11.11-.45,22.22-.86,33.33-1.28,1.54-.06,3.1.16,4.61-.07,1.88-.28,2.58.5,3.02,2.21,2.93,11.29,5.9,22.57,8.93,33.84,3.74,13.92,7.57,27.81,11.31,41.73,4.2,15.61,8.44,31.22,12.47,46.87,4.19,16.27,8.12,32.62,12.21,48.92,3.58,14.25,7.23,28.48,10.83,42.73,4.11,16.29,8.16,32.59,12.3,48.87,4.87,19.14,9.82,38.26,14.74,57.38,1.42,5.51,3.21,10.96,4.21,16.55.81,4.54.75,9.24,1,13.87.85,15.74,1.7,31.48,2.49,47.23,1.07,21.16,2.18,42.31,3.11,63.48.72,16.31,1.19,32.63,1.74,48.95.07,2.18-.16,4.37-.02,6.54.13,1.91-.59,2.38-2.4,2.38-11.75-.02-23.49.09-35.24.12-20.56.05-41.12.04-61.68.1-23.71.07-47.41.14-71.12.28-26.84.15-53.69.43-80.53.57-25.31.13-50.63.18-75.94.22-32.16.06-64.32.02-96.48.13-29.72.11-59.44.37-89.16.55-15.29.09-30.58.13-45.86.18-23.28.09-46.57.25-69.85.23-25.17-.02-50.34-.26-75.52-.34-22.16-.07-44.33-.04-66.49-.03-5.59,0-11.19.1-16.78.15-.4,0-.8-.06-1.49-.12ZM372.43,469.45c.2-.1.39-.21.59-.31.05-.68.14-1.35.13-2.03-.06-3.52-.11-7.03-.35-10.56-.52-7.48.02-15.04.22-22.57.58-21.95,1.45-43.9,1.75-65.85.37-27.52.1-55.04.43-82.56.3-24.56,1.14-49.1,1.54-73.66.42-25.69.59-51.39.92-77.08.21-16.33.54-32.66.73-48.99.01-.96-.41-2.33-1.1-2.82-2.86-2.01-5.77-4.03-8.9-5.54-10.31-4.98-20.69-9.84-31.12-14.57-17.91-8.11-36.74-13.39-55.74-18.09-18.94-4.69-38.08-8.33-57.51-10.14-11.04-1.03-22.13-1.8-33.22-2.12-15.93-.46-31.86.43-47.66,2.49-13.15,1.72-26.21,4.14-39.3,6.34-.74.12-1.73.98-1.93,1.7-1.84,6.42-3.67,12.84-5.24,19.33-3.17,13.12-6.2,26.27-9.23,39.42-2.3,10-4.67,19.98-6.74,30.03-3.72,18.12-7.22,36.28-10.84,54.42-3.92,19.65-7.79,39.31-11.83,58.93-4.84,23.48-9.85,46.93-14.79,70.39-.5,2.36-.44,2.46,2.01,2.57,9.85.41,19.7.79,29.55,1.25,23.93,1.13,47.61,3.91,71.01,9.4,27.99,6.57,54.13,17.91,80.06,29.92,16.1,7.46,31.11,16.91,45.96,26.59,19.14,12.47,37.12,26.5,54.54,41.31,15.05,12.8,29.48,26.25,43.26,40.42.85.88,1.88,1.59,2.82,2.38ZM417.05,463.51c1.2-.79,1.97-1.22,2.64-1.77,2.28-1.86,4.49-3.81,6.79-5.64,8.23-6.53,16.34-13.21,24.76-19.48,11.56-8.62,23.16-17.22,35.13-25.25,8.76-5.88,18.1-10.92,27.26-16.19,17.92-10.3,36.06-20.22,55.32-27.74,15.3-5.98,30.79-11.55,46.41-16.64,22.02-7.19,44.73-11.51,67.72-13.84,18.91-1.92,37.93-2.66,56.91-3.88,4.51-.29,4.5-.2,3.29-4.59-2.37-8.51-4.79-17.01-7.08-25.55-5.64-21.04-11.31-42.07-16.8-63.15-5.09-19.58-9.8-39.27-14.96-58.84-5.65-21.39-11.56-42.72-17.49-64.04-4.65-16.72-9.48-33.39-14.28-50.07-2.39-8.31-5-16.55-7.33-24.87-1.09-3.89-.6-3.42-4.45-3.18-11.5.73-23.02,1.34-34.48,2.53-16.46,1.71-32.93,3.47-49.29,5.97-22.93,3.51-45.37,9.48-67.82,15.22-12.92,3.31-25.81,6.79-38.52,10.83-13.43,4.26-26.63,9.25-39.9,14.01-.68.24-1.41,1.33-1.5,2.1-.37,3.35-.53,6.73-.73,10.1-.79,13.49-1.67,26.97-2.31,40.46-.85,17.79-1.61,35.58-2.22,53.37-.63,18.57-1.09,37.14-1.53,55.71-.5,21.11-.77,42.23-1.35,63.33-.46,16.81-1.32,33.62-1.87,50.43-.53,16.31-.87,32.64-1.29,48.95-.4,15.69-.8,31.37-1.18,47.06-.03,1.37.08,2.74.15,4.63ZM464.25,500.49c.04.24.08.49.12.73.73,0,1.46.05,2.19.02,16.06-.65,32.12-1.42,48.19-1.92,12.37-.39,24.74-.38,37.11-.65,27.12-.6,54.24-1.29,81.36-1.88,22.79-.5,45.57-1.07,68.36-1.35,16.99-.21,33.98-.01,50.97-.02,2.91,0,3.05-.16,3.19-3.1.35-7.24.69-14.48,1.06-21.71.07-1.36-.23-2.02-1.81-2.06-14.25-.35-28.49-.82-42.73-1.19-9.57-.25-19.14-.66-28.7-.51-16.69.27-33.39.51-50.04,1.54-15.74.97-31.44,2.75-47.11,4.56-9.21,1.06-18.37,2.69-27.49,4.36-14.22,2.6-28.5,5-42.56,8.32-14.26,3.37-28.29,7.74-42.41,11.73-3.27.92-6.48,2.08-9.71,3.13ZM330.41,498.52c-.55-.76-.64-.98-.79-1.09-.46-.32-.93-.63-1.42-.9-5.12-2.77-10.43-5.04-16.09-6.43-12.77-3.15-25.67-5.7-38.77-6.81-22.42-1.89-44.85-3.76-67.31-4.99-25.16-1.37-50.36-2.16-75.56-2.91-15.14-.45-30.29-.34-45.44-.46-11.25-.09-22.5-.13-33.74-.2-4.96-.03-9.92-.11-14.88-.14-2.64-.02-2.88.18-2.96,2.82-.15,5-.22,9.99-.35,14.99-.03,1.23.27,2.05,1.67,2.13,3.48.19,6.96.51,10.44.6,5.73.15,11.47.1,17.2.25,15.38.41,30.75,1.19,46.13,1.26,37.62.18,75.24.01,112.86.06,24.12.03,48.24.09,72.35.33,10.12.1,20.25.67,30.37,1.05,1.92.07,3.83.25,6.3.41ZM441.44,486.93c.12.26.25.53.37.79,1.09-.4,2.22-.74,3.28-1.21,23.25-10.45,46.81-20.08,71.3-27.21,16.06-4.67,32.19-9.1,48.69-11.86,14.89-2.49,29.85-4.65,44.82-6.6,11.99-1.57,24.02-3.18,36.08-3.73,14.51-.66,29.07-.3,43.61-.23,14.34.07,28.65.91,42.9,2.57,7.15.84,14.32,1.56,21.49,2.28,3.74.38,3.98.07,4.14-3.72.21-4.92.48-9.84.73-14.76.13-2.52.3-5.03.47-7.74-1.03-.1-1.84-.25-2.65-.23-14.72.31-29.45.7-44.17.95-24.27.41-48.41,2.62-72.55,4.86-8.69.81-17.37,1.78-26.04,2.81-8.6,1.03-17.28,1.73-25.74,3.47-12.72,2.62-25.31,5.88-37.89,9.11-18.52,4.75-36.54,10.91-53.52,19.91-15.14,8.03-30.34,15.95-45.44,24.06-3.45,1.85-6.59,4.3-9.87,6.48ZM254.91,453.69c.05-.17.11-.35.16-.52-.46-.28-.89-.62-1.37-.82-7.17-2.95-14.29-6.03-21.54-8.78-19.26-7.3-39.19-12.31-59.23-16.8-24.78-5.56-49.92-8.98-75.16-11.69-10.42-1.12-20.85-2.16-31.26-3.3-9.93-1.09-19.86-2.23-29.78-3.41-1.68-.2-2.37.21-2.48,2.03-.6,9.48-1.27,18.96-2.02,28.43-.15,1.89.47,2.46,2.29,2.49,6.22.12,12.44.37,18.66.58,14.61.49,29.21,1.07,43.82,1.44,27.61.7,55.24.5,82.77,3.35,19.61,2.03,39.26,3.78,58.89,5.63,5.42.51,10.85.93,16.27,1.39ZM726.33,387.36c11.59.15,20.75.22,29.91.43,2.08.05,2.77-.58,2.86-2.71.22-5.48.73-10.95,1.06-16.43.28-4.56.88-4.25-3.75-4.14-14.53.36-29.07.73-43.58,1.54-18.86,1.05-37.48,4.14-55.95,8.07-3.68.78-7.31,1.89-11.02,2.47-5.44.85-11.02.97-16.39,2.12-8.8,1.89-17.51,4.25-26.2,6.62-12.69,3.45-25.29,7.25-37.23,12.86-11.96,5.62-23.75,11.61-35.53,17.6-3.67,1.87-7.08,4.24-10.56,6.46-.49.31-.69,1.06-1.03,1.61.6.13,1.25.46,1.81.35,2.53-.48,5.07-.94,7.53-1.67,2.81-.84,5.52-2.01,8.3-2.94,7.28-2.44,14.59-4.57,22.24-5.8,8.26-1.33,16.33-3.81,24.5-5.73,32.44-7.61,65.32-12.81,98.19-18.05,15.66-2.49,31.48-2.57,44.85-2.65ZM277.7,430.16c.05-.11.1-.23.15-.34-.37-.3-.7-.65-1.1-.9-14.35-9.1-28.61-18.37-44.1-25.48-9.46-4.34-18.81-8.95-28.44-12.87-14.62-5.95-29.41-11.47-44.17-17.06-12.94-4.9-26.06-9.41-39.61-12.21-14.77-3.04-29.63-5.72-44.56-7.79-14.31-1.99-28.75-3-43.13-4.49-1.8-.19-2.51.31-2.54,2.2-.11,6.54-.31,13.08-.56,19.62-.06,1.61.62,2.05,2.08,2.12,3.84.2,7.67.54,11.51.78,22.9,1.42,45.74,3.6,68.3,7.88,18.34,3.48,36.67,7.13,54.77,11.63,13.82,3.44,27.35,8.1,40.88,12.61,21.36,7.13,42.61,14.59,63.91,21.93,2.21.76,4.4,1.57,6.6,2.36Z"/></svg>