<?xml version="1.0" encoding="utf-8"?>
<!-- Generator: Adobe Illustrator 28.3.0, SVG Export Plug-In . SVG Version: 6.00 Build 0)  -->
<svg version="1.1" id="Layer_1" xmlns="http://www.w3.org/2000/svg" xmlns:xlink="http://www.w3.org/1999/xlink" x="0px" y="0px"
	 viewBox="0 0 850.32 567" style="enable-background:new 0 0 850.32 567;" xml:space="preserve">
<g>
	<path d="M323.13,43.89c0.28-6.01,0.56-11.91,0.85-18.09c3.1,0,6.08-0.06,9.05,0.01c13.19,0.31,26.38,0.73,39.57,0.96
		c17.26,0.29,34.52,0.42,51.78,0.64c5.57,0.07,11.15,0.23,16.72,0.3c14.32,0.18,28.64,0.34,42.95,0.51
		c11.63,0.14,23.25,0.29,34.88,0.44c2.69,0.03,5.39,0.12,8.08,0.06c1.34-0.03,1.79,0.48,1.86,1.76c0.35,6.76,0.76,13.51,1.12,20.27
		c0.09,1.66,0.16,3.34,0,4.99c-0.16,1.7,0.49,2.22,2.1,2.22c6.53,0,13.07,0.03,19.6,0.14c17.39,0.29,34.78,0.53,52.16,0.97
		c13.91,0.35,27.81,0.86,41.7,1.46c9.76,0.42,19.51,1.07,29.26,1.71c12.61,0.83,25.22,1.81,37.83,2.63
		c8.39,0.54,16.46,2.54,24.35,5.24c9.8,3.36,19.58,6.8,29.23,10.57c9.64,3.77,18.06,9.59,25.74,16.52
		c7.86,7.09,15.18,14.65,21.1,23.44c6.68,9.93,10.76,20.93,12.7,32.72c0.74,4.48,1.68,8.96,2.03,13.48
		c0.31,3.98-0.08,8.02-0.13,12.03c-0.28,19.18-0.5,38.37-0.83,57.55c-0.23,13.06-0.63,26.12-0.93,39.18
		c-0.18,7.79-0.29,15.58-0.44,23.37c-0.29,16.15-0.6,32.3-0.87,48.45c-0.13,7.73-0.14,15.46-0.29,23.19
		c-0.12,6.59,0.01,13.21-0.68,19.75c-0.47,4.48-2.41,8.71-4.66,12.72c-4.33,7.71-9.35,14.93-15.46,21.31
		c-2.76,2.89-5.7,5.71-8.94,8.03c-7.19,5.15-14.56,10.07-21.97,14.91c-8.7,5.68-18.35,9.3-28.1,12.71
		c-5.37,1.88-10.68,3.93-16.12,5.59c-6.35,1.93-12.8,3.5-19.2,5.26c-0.83,0.23-1.58,0.73-2.39,1.06c-0.36,0.15-0.79,0.33-1.14,0.25
		c-2.15-0.46-3.86,0.11-4.85,1.66c-1.57,0-2.92-0.2-4.19,0.03c-11.54,2.11-23.06,4.34-34.6,6.43c-7.31,1.32-14.64,2.49-21.97,3.67
		c-8.69,1.4-17.38,2.79-26.08,4.08c-10.31,1.53-20.64,2.96-30.95,4.44c-0.3,0.04-0.6,0.11-0.89,0.1c-4.61-0.16-7.28,2.38-9.76,6.03
		c-6.98,10.28-16.12,18.52-26.17,25.69c-6.13,4.37-12.39,8.64-18.99,12.23c-5.22,2.84-10.92,5-16.64,6.66
		c-7.8,2.27-15.74,4.3-23.76,5.48c-7.24,1.07-14.68,1.21-22.03,1.14c-10.22-0.11-20.44-0.9-30.66-1.21
		c-8.72-0.27-17.45-0.28-26.18-0.42c-4.19-0.06-8.39,0.05-12.55-0.29c-2.41-0.2-4.77-1.11-7.13-1.77
		c-7.27-2.02-14.58-3.88-21.77-6.15c-13.3-4.2-26.03-9.78-37.94-17.07c-9.81-6-19.5-12.19-29.18-18.4
		c-1.69-1.08-3.42-1.47-5.31-1.54c-8.27-0.3-16.54-0.55-24.81-0.88c-16.42-0.65-32.84-1.34-49.25-2.03
		c-8.81-0.37-17.62-0.68-26.42-1.2c-8.97-0.53-17.93-1.12-26.87-1.96c-9.95-0.93-19.88-2.09-29.8-3.31
		c-11.07-1.35-21.96-3.69-32.65-6.87c-11.6-3.45-23.15-7.06-34.68-10.71c-6.8-2.15-12.58-6.18-17.96-10.7
		c-7.37-6.18-13.95-13.18-19.98-20.66c-4.64-5.76-7.27-12.5-8.94-19.63c-0.95-4.07-1.98-8.17-2.34-12.31
		c-0.35-3.97,0.12-8.01,0.23-12.03c0.13-5.09,0.26-10.18,0.39-15.27c0.24-9.05,0.54-18.09,0.71-27.14
		c0.11-6.03,0.02-12.07,0.07-18.1c0.06-6.87,0.18-13.74,0.25-20.61c0.11-9.58,0.19-19.16,0.29-28.74
		c0.09-8.49,0.23-16.97,0.26-25.46c0.02-4.58-0.23-9.15-0.21-13.73c0.02-4.96,0.17-9.92,0.35-14.88c0.32-8.57,0.46-17.16,1.14-25.7
		c0.56-7.02,1.75-13.99,2.74-20.98c1.67-11.68,4.35-23.13,8.37-34.22c4.71-13.01,11.31-24.99,20.7-35.25
		c8.29-9.06,17.58-17.02,27.84-23.78c7.7-5.08,15.42-10.17,23.47-14.67c12.93-7.22,26.9-11.89,41.21-15.62
		c7.93-2.07,15.78-4.48,23.72-6.52c4.92-1.26,9.94-2.17,14.93-3.12c10.05-1.91,20.09-3.87,30.18-5.57
		c10.56-1.78,21.15-3.4,31.76-4.87c14.62-2.03,29.34-2.84,44.09-2.94c9.35-0.06,18.71,0.22,28.07,0.35
		C321.59,43.9,322.24,43.89,323.13,43.89z M498.79,178.66c0-11.88,0-23.4,0-34.76c-34.2-0.63-67.9,1.3-101.89,0.2
		c0-4.02,0.09-7.79-0.02-11.55c-0.23-8.26-0.57-16.51-0.86-24.76c-0.03-0.94-0.28-1.93,1.28-1.99c3.53-0.14,7.06-0.43,10.59-0.61
		c7.78-0.42,15.56-0.9,23.35-1.19c9.1-0.34,18.21-0.65,27.32-0.7c10.25-0.06,20.51,0.19,30.76,0.28c1.29,0.01,2.59-0.14,3.82-0.22
		c1.15-13.43,1.37-26.66,0.39-39.78c-5.11,0-10.02-0.01-14.92,0c-18.41,0.04-36.82-0.19-55.22,0.2
		c-22.59,0.49-45.18,1.49-67.76,2.31c-5.32,0.19-10.63,0.63-15.95,0.81c-4.66,0.16-9.33-0.05-13.98,0.22
		c-9.51,0.55-19.02,1.26-28.52,2c-10.45,0.81-20.9,1.67-31.34,2.61c-6.98,0.63-13.95,1.4-20.92,2.17
		c-11.25,1.24-22.51,2.45-33.74,3.82c-8.73,1.06-17.47,2.17-26.16,3.57c-7.8,1.25-15.54,2.87-23.29,4.39
		c-10.58,2.07-21.15,4.13-31.09,8.6c-9.79,4.41-19.73,8.64-28.46,14.87c-8.95,6.38-17.5,13.42-25.71,20.74
		c-7.99,7.13-14.27,15.68-18.19,25.84c-4.13,10.69-6.81,21.74-7.7,33.11c-0.52,6.65-0.14,13.41,0.34,20.08
		c0.31,4.32,1.01,8.76,2.44,12.83c2.61,7.42,6.41,14.32,11.52,20.37c6.05,7.17,11.98,14.48,18.46,21.26
		c5.63,5.9,12.09,10.94,20.03,13.6c0.45,0.15,1.25-0.02,1.6-0.35c6.61-6.25,12.98-12.78,19.8-18.78
		c8.41-7.41,17.29-14.27,25.79-21.58c12-10.31,24.92-19,39.73-24.87c10.89-4.31,21.84-8.33,33.36-10.47
		c9.76-1.81,19.63-3.09,29.41-4.83c14.29-2.54,28.75-3.5,43.16-4.9c6.44-0.62,12.86-1.36,19.29-2.12c8.45-1,16.86-2.35,25.33-3.07
		c13.38-1.13,26.78-1.87,40.18-2.73c10.29-0.66,20.58-1.26,30.87-1.85c11.01-0.62,22.02-1.32,33.04-1.74
		c12.93-0.49,25.88-0.74,38.82-1.02C488.87,178.57,494.02,178.66,498.79,178.66z M528.31,179.03c0.86,0.1,1.56,0.21,2.27,0.26
		c1.74,0.11,3.47,0.24,5.21,0.26c15.95,0.16,31.69,2.33,47.2,5.83c13.6,3.07,26.91,7.18,39.83,12.52
		c10.15,4.2,20.06,8.83,29.51,14.44c9.82,5.83,19.11,12.4,27.54,20.09c5.7,5.2,11.17,10.66,16.48,16.26
		c3.2,3.37,5.86,7.24,8.83,10.83c0.36,0.44,1.22,0.8,1.75,0.69c3.11-0.62,6.24-1.2,9.26-2.14c7.72-2.4,15.46-4.75,23.04-7.55
		c13.5-4.99,26.7-10.64,38.48-19.18c7.45-5.4,14.84-10.79,20.43-18.26c4.37-5.83,8.49-11.77,9.74-19.17
		c0.3-1.75,0.78-3.49,0.85-5.25c0.06-1.46-0.49-2.93-0.56-4.4c-0.27-5.68-0.21-11.38-0.75-17.03c-0.72-7.4-2.41-14.64-5.24-21.54
		c-3.15-7.67-7.17-14.75-13.06-20.82c-4.95-5.11-9.08-10.99-15.4-14.69c-6.31-3.7-12.45-7.7-19.51-9.87
		c-17.47-5.36-35.24-9.1-53.51-10.38c-11.48-0.8-22.95-1.77-34.43-2.59c-13.63-0.97-27.27-1.78-40.9-2.8
		c-11.11-0.83-22.2-2.02-33.32-2.76c-12.74-0.85-25.5-1.4-38.25-2.02c-6.11-0.3-12.23-0.39-18.33-0.7c-1.89-0.1-2.46,0.67-2.37,2.37
		c0.05,0.84,0.01,1.68-0.05,2.52c-0.9,11.52-1.97,23.03-2.67,34.56c-0.69,11.36-1.06,22.74-1.45,34.12
		C528.63,161.38,528.51,170.12,528.31,179.03z M272.31,312.96c3.11-5.22,6.14-10.59,9.46-15.78c3.93-6.15,8.12-12.14,12.21-18.19
		c0.37-0.54,0.77-1.09,1.27-1.5c2.37-1.93,4.68-3.95,7.19-5.68c8.17-5.62,16.92-10.1,26.2-13.68c10.16-3.92,20.11-8.41,30.25-12.39
		c5.23-2.05,10.58-3.94,16.05-5.18c13.75-3.11,27.72-4.82,41.79-5.74c18.75-1.22,37.39-0.58,55.81,3.36
		c9.01,1.93,18,3.99,26.89,6.42c9.97,2.72,19.37,6.94,28.42,11.97c5.92,3.29,11.78,6.67,16.85,11.2
		c5.31,4.75,10.51,9.65,15.71,14.52c1.3,1.22,2.75,2.45,3.54,3.99c0.61,1.17,1.13,1.45,2.26,1.34c15.26-1.58,30.52-3.07,45.77-4.78
		c2.99-0.33,6.24,0.06,8.89-1.99c0.17-0.13,0.57,0.05,0.87,0.06c0.81,0.03,1.66,0.22,2.44,0.05c13.75-2.98,27.49-5.98,41.22-9.04
		c3.59-0.8,7.14-1.81,11-2.79c-0.79-1.13-1.34-2.04-2.01-2.86c-2.34-2.88-4.68-5.76-7.1-8.57c-6.12-7.11-12.66-13.78-20.22-19.37
		c-11.92-8.82-25.07-15.48-38.62-21.32c-10.62-4.58-21.63-8.25-32.95-10.55c-11.9-2.42-23.96-4.07-35.99-5.81
		c-4.91-0.71-9.91-0.74-14.87-1.12c-1.43-0.11-1.9,0.53-1.9,1.89c-0.01,3.23-0.14,6.45-0.14,9.68c0,1.34-0.45,1.94-1.86,1.97
		c-2.94,0.07-5.88,0.14-8.8,0.44c-12.15,1.24-24.29,2.62-36.44,3.85c-6.97,0.71-13.96,1.26-20.95,1.82
		c-9.98,0.81-19.96,1.52-29.93,2.37c-9.61,0.83-19.2,1.93-28.82,2.66c-7.41,0.56-14.85,0.75-22.28,1.09
		c-13.3,0.61-26.59,1.2-39.89,1.82c-3.28,0.15-6.55,0.37-9.99,0.57c-0.39-6.99-0.77-13.75-1.15-20.67
		c-10.83,1.64-21.52,3.07-32.14,4.9c-13.22,2.28-26.39,4.82-39.56,7.35c-16.2,3.12-31.75,8.13-46.47,15.74
		c-16.84,8.71-33.02,18.48-48.63,29.19c-9.1,6.24-17.74,13.08-25.73,20.71c-1.97,1.89-1.93,2.4,0.53,3.46
		c3.9,1.68,7.78,3.45,11.78,4.86c8.85,3.11,17.79,5.98,26.68,9.01c13.57,4.62,27.57,7.18,41.8,8.45c7.64,0.68,15.29,1.27,22.95,1.56
		c10.66,0.4,21.33,0.49,31.99,0.7C267.85,313,270.03,312.96,272.31,312.96z M438.48,531.66c5.73,0.41,12.34-0.12,18.77-1.57
		c13.73-3.11,27.3-6.8,40.32-12.36c13.05-5.57,24.98-12.88,36.11-21.62c4.8-3.77,9-8.13,12.5-13.1c4.33-6.14,9.31-11.85,11.91-19.11
		c2.5-6.99,5.34-13.86,8.05-20.78c4.81-12.25,7.27-25.04,8.28-38.1c0.96-12.35,0.26-24.68-1.06-36.97
		c-0.58-5.36-1.37-10.71-1.75-16.08c-0.29-4.11-0.55-8.13-2.93-11.7c-0.82-1.23-1.36-2.64-2.02-3.97
		c-7.19-14.59-15.66-28.32-27.03-40.09c-5.58-5.77-10.89-11.83-17.64-16.36c-11.39-7.65-23.88-12.93-36.85-17.15
		c-6.96-2.26-14.07-3.84-21.37-4.57c-9.3-0.93-18.45-2.89-27.98-1.28c-8.95,1.51-18.13,1.6-27.16,2.7
		c-6.47,0.79-12.91,1.98-19.27,3.42c-9.49,2.16-18.52,5.73-27.28,9.97c-20.56,9.94-39.16,22.46-53.65,40.44
		c-1.57,1.95-3.19,3.91-4.47,6.06c-1.34,2.25-2.22,4.77-3.42,7.12c-5.66,11.14-9.84,22.86-13.23,34.85
		c-2.87,10.19-4.09,20.65-4.72,31.2c-0.79,13.06-0.22,25.92,3.69,38.56c2.53,8.19,5.04,16.33,8.7,24.12
		c5.53,11.79,12.95,22.27,22.01,31.51c4.42,4.51,9.51,8.37,14.47,12.31c2.78,2.2,5.7,4.44,8.91,5.83
		c17.16,7.4,34.46,14.41,52.41,19.74C407.44,529.02,422.34,531.32,438.48,531.66z"/>
	<path d="M335.71,105.13c10.39,0.01,18.79,8.32,18.74,18.54c-0.04,10.28-8.4,18.49-18.81,18.48c-10.38-0.01-18.76-8.3-18.75-18.55
		C316.92,113.36,325.31,105.12,335.71,105.13z"/>
	<path d="M196.71,151.54c-0.12,10.27-8.55,18.4-18.97,18.3c-10.38-0.1-18.67-8.46-18.57-18.72c0.11-10.31,8.63-18.45,19.17-18.29
		C188.62,132.98,196.83,141.34,196.71,151.54z"/>
	<path d="M272.92,130.83c0.01,10.28-8.31,18.51-18.74,18.53c-10.4,0.02-18.77-8.21-18.79-18.49c-0.02-10.27,8.32-18.52,18.74-18.53
		C264.54,112.33,272.91,120.56,272.92,130.83z"/>
	<path d="M547.2,388.07c-0.19,10.37-1.58,20.54-4.49,30.51c-1.28,4.36-2.08,8.89-3.67,13.13c-1.69,4.51-3.71,8.97-6.19,13.08
		c-4.43,7.32-9.19,14.44-14.05,21.48c-3.08,4.46-7.19,8.01-11.44,11.34c-6.75,5.29-13.89,9.98-21.25,14.38
		c-6.98,4.17-14.45,7.02-22.31,8.69c-8.07,1.71-16.25,2.97-24.43,4.04c-8.48,1.1-17,0.58-25.45-0.6
		c-7.29-1.02-14.57-2.16-21.82-3.46c-3.8-0.69-7.56-1.66-11.24-2.84c-17.38-5.54-31.22-16.46-43.87-29.15
		c-1.88-1.88-4.13-3.44-5.78-5.5c-1.9-2.37-3.43-5.07-4.92-7.74c-6.64-11.94-10.59-24.86-13.41-38.14
		c-1.35-6.36-2.5-12.79-3.18-19.25c-0.51-4.86-0.39-9.84-0.03-14.72c0.18-2.47,1.43-4.9,2.36-7.28c5-12.81,9.47-25.88,15.25-38.33
		c6.69-14.43,16.22-26.97,29.26-36.49c5.76-4.2,11.48-8.46,17.3-12.58c1.06-0.75,2.47-1.12,3.78-1.41
		c5.44-1.2,10.87-2.43,16.36-3.39c7.19-1.26,14.4-2.38,21.63-3.38c5.39-0.74,10.81-1.55,16.24-1.69c5.96-0.15,11.99,0.02,17.9,0.8
		c11.34,1.5,22.54,3.92,33.28,7.95c3.48,1.31,6.65,3.47,9.85,5.44c3.11,1.91,6.09,4.04,9.08,6.14c5.45,3.82,9.69,8.9,14.17,13.73
		c5.29,5.7,9.12,12.43,13.15,19c4.1,6.69,7.63,13.67,10.56,20.98c3.29,8.21,5.85,16.59,6.81,25.4
		C546.98,381.48,547.01,384.78,547.2,388.07z M519.94,388.34c-4.42-0.19-8.6-0.43-12.78-0.55c-17.68-0.51-35.35-1.2-53.04-1.41
		c-15.88-0.19-31.76,0.19-47.64,0.25c-1.56,0.01-2.08,0.53-2.14,2.05c-0.18,4.49-0.56,8.97-0.71,13.46
		c-0.06,1.73-0.55,3.52,0.69,5.19c4.6,6.19,9.09,12.48,13.68,18.68c4.99,6.73,10.06,13.41,15.06,20.13
		c3.47,4.66,6.87,9.38,10.37,14.02c0.3,0.4,1.33,0.78,1.64,0.58c5.24-3.42,10.42-6.94,15.75-10.53
		c-11.19-15-22.16-29.72-33.14-44.43c0.14-0.2,0.28-0.4,0.42-0.59c30.61,0.74,61.23,1.48,91.84,2.21
		C519.94,401,519.94,394.68,519.94,388.34z"/>
</g>
</svg>
