<?xml version="1.0" encoding="utf-8"?>
<!-- Generator: Adobe Illustrator 28.3.0, SVG Export Plug-In . SVG Version: 6.00 Build 0)  -->
<svg version="1.1" id="Layer_1" xmlns="http://www.w3.org/2000/svg" xmlns:xlink="http://www.w3.org/1999/xlink" x="0px" y="0px"
	 viewBox="0 0 850.32 567" style="enable-background:new 0 0 850.32 567;" xml:space="preserve">
<g>
	<path d="M564.23,498.76c-4.53,0-8.84,0.02-13.15,0c-17.02-0.11-34.04-0.25-51.06-0.34c-12.94-0.07-25.88-0.08-38.82-0.12
		c-18.53-0.05-37.06-0.14-55.59-0.15c-12.46-0.01-24.92,0.07-37.39,0.13c-22.18,0.1-44.36,0.21-66.53,0.33
		c-12.53,0.06-25.07,0.14-37.6,0.22c-1.84,0.01-3.7,0-5.53,0.17c-1.46,0.14-1.96-0.5-2.23-1.82c-1.17-5.73-2.22-11.5-3.66-17.17
		c-3.7-14.54-8.34-28.79-14.29-42.58c-2.43-5.65-5.02-11.29-9.29-15.88c-6.46-6.95-13.69-12.83-22.69-16.31
		c-6.58-2.55-13.18-4.95-20.18-6.15c-8.31-1.42-16.48-1.39-24.7,0.72c-7.07,1.82-13.97,4.05-20.64,7.04
		c-9.87,4.42-17.97,11.01-24.94,19.23c-7.47,8.8-12.97,18.64-16.5,29.59c-2.88,8.93-4.62,18.1-5.47,27.43
		c-0.35,3.82-0.59,7.65-0.76,11.48c-0.06,1.42-0.45,1.99-1.99,1.91c-11.01-0.52-22.03-1.07-33.05-1.39
		c-10.37-0.3-20.74-0.37-31.11-0.44c-1.54-0.01-1.9-0.48-1.9-1.94c-0.04-14.26-0.22-28.52-0.21-42.78c0-6.83,0.38-13.67,0.47-20.5
		c0.14-10.66,0.19-21.32,0.28-31.98c0.07-8.46,0.12-16.91,0.22-25.37c0.09-7.05,0.36-14.11,0.34-21.16
		c-0.04-17.43-0.31-34.86-0.29-52.29c0.02-18.4,0.27-36.8,0.42-55.2c0.09-11.32,0.17-22.65,0.26-33.97
		c0.06-7.36,0.14-14.72,0.19-22.08c0.06-7.85,0.09-15.69,0.13-23.54c0.06-14.02,0.13-28.05,0.17-42.07
		c0.02-7.27-0.04-14.55-0.03-21.82c0.03-13.46-0.05-26.93,0.2-40.38c0.1-5.39,2.81-10,6.22-14.02c7.06-8.33,16.08-13.42,26.78-15.62
		c7.35-1.51,14.74-2.39,22.25-2.68c12.1-0.46,24.2-0.93,36.27-1.8c12.57-0.9,25.15-0.95,37.74-0.91
		c27.52,0.09,55.03,0.27,82.55,0.37c22.19,0.08,44.39,0.12,66.58,0.17c26.87,0.05,53.75,0.12,80.62,0.13
		c20.91,0.01,41.83-0.09,62.74-0.1c17.86-0.01,35.71-0.15,53.56,0.18c6.54,0.12,13.14,1.01,19.57,2.31
		c9.36,1.88,16.73,7.34,22.5,14.8c6.01,7.76,11.84,15.67,17.5,23.69c4.12,5.84,8.23,11.76,11.65,18.02
		c5.56,10.18,10.61,20.65,15.79,31.04c5.76,11.56,11.56,23.11,17.08,34.79c4.63,9.79,8.84,19.78,13.3,29.66
		c8.2,18.17,16.28,36.39,24.7,54.46c8.16,17.52,16.71,34.86,25.01,52.31c0.74,1.56,1.77,2.2,3.36,2.47
		c7.19,1.24,14.4,2.43,21.55,3.87c13.92,2.81,27.65,6.39,40.75,11.9c5.54,2.33,10.92,5.27,15.88,8.66
		c8.19,5.61,16.16,11.59,23.88,17.83c9.23,7.47,17.09,16.34,23.41,26.38c3.16,5.02,5.53,10.6,7.75,16.13
		c3.32,8.27,6.53,16.63,9.18,25.13c2.94,9.46,5.45,19.04,6.18,29.07c0.99,13.57,1.87,27.13,2.11,40.74
		c0.11,6.17,0.47,12.34,0.71,18.51c0.03,0.65,0,1.3,0,2.25c-31.99-0.24-63.85-0.25-95.86,1.71c-0.07-0.67-0.15-1.24-0.17-1.81
		c-0.41-9.27-0.79-18.54-1.24-27.8c-0.28-5.94-2.81-11.16-5.45-16.31c-5.08-9.89-12.64-17.67-21.07-24.72
		c-5.17-4.32-10.82-7.92-16.9-10.8c-6.76-3.2-13.93-5.11-21.34-5.97c-6.36-0.74-12.75-1.16-19.13-1.68
		c-1.01-0.08-2.07-0.14-3.04,0.1c-5.04,1.22-10.15,2.29-15.07,3.9c-6.19,2.02-12.28,4.38-18.3,6.88c-2.33,0.96-4.51,2.49-6.48,4.1
		c-5.58,4.59-11.2,9.18-16.47,14.11c-7.23,6.75-11.08,15.46-13.63,24.89c-3.03,11.19-4.9,22.54-5.47,34.12
		C564.7,492.93,564.44,495.84,564.23,498.76z M627.46,290.83c0.15-1.21,0.6-2.27,0.32-3.07c-2.12-6.16-4.32-12.29-6.6-18.39
		c-4.37-11.68-8.87-23.32-13.22-35.01c-3.54-9.52-6.88-19.11-10.4-28.63c-4.75-12.82-9.42-25.67-14.43-38.38
		c-4.77-12.11-9.59-24.22-14.98-36.06c-7.68-16.88-16.17-33.36-26.05-49.1c-4.69-7.48-9.41-14.86-16.46-20.46
		c-5.48-4.37-11.38-7.88-18.35-8.94c-5.08-0.78-10.26-1.02-15.4-1.15c-18.46-0.46-36.93-0.78-55.4-1.15
		c-1.95-0.04-3.9-0.01-5.99-0.01c0,0.74-0.04,1.39,0.01,2.03c0.47,6.63,0.92,13.25,1.44,19.87c0.69,8.89,1.49,17.78,2.14,26.67
		c0.8,10.99,1.53,21.99,2.19,33c0.71,11.96,1.29,23.93,1.95,35.9c0.66,11.9,1.37,23.81,2.01,35.71c0.58,10.77,1.08,21.55,1.66,32.32
		c0.47,8.61,1.04,17.22,1.5,25.84c0.42,7.78,0.77,15.56,1.09,23.34c0.05,1.28,0.55,1.66,1.73,1.63c2.33-0.07,4.67-0.12,7-0.07
		c7.61,0.15,15.22,0.39,22.83,0.52c17.02,0.29,34.03,0.47,51.05,0.81c10.3,0.21,20.59,0.68,30.89,0.93
		c9.76,0.24,19.53,0.25,29.28,0.52C600.57,289.86,613.87,290.37,627.46,290.83z"/>
	<path d="M662.87,551c-8.78-0.57-17.62-0.68-26.33-1.82c-8.84-1.16-16.97-4.67-24.64-9.4c-6.48-3.99-12.89-8.03-17.36-14.24
		c-2.42-3.36-4.13-7.36-5.53-11.3c-2.37-6.69-4.13-13.6-6.33-20.36c-1.9-5.84-2.23-11.8-1.21-17.73c0.7-4.09,2.13-8.08,3.55-12
		c1.72-4.78,3.64-9.49,5.69-14.13c2.62-5.92,6.32-11.03,11.42-15.18c7.3-5.94,15.28-10.5,24.46-12.71
		c5.1-1.23,10.26-2.32,15.45-2.96c5.03-0.62,10.16-0.94,15.23-0.77c12.77,0.42,24.15,4.65,34.05,12.92
		c7.68,6.42,13.92,14.04,19.22,22.42c3.92,6.19,5.97,13.09,6.64,20.46c0.67,7.34-0.73,14.44-1.61,21.62
		c-0.31,2.55-0.25,5.17-0.82,7.66c-0.52,2.28-1.47,4.52-2.56,6.61c-2.66,5.09-5.45,10.12-8.33,15.09c-1.85,3.19-4.26,6.09-5.84,9.39
		c-2.08,4.34-6.02,6.17-9.79,8.25c-4.09,2.24-8.36,4.14-12.53,6.24c-3.61,1.82-7.53,1.67-11.4,1.86c-0.48,0.02-0.96,0-1.44,0
		C662.88,550.94,662.87,550.97,662.87,551z M622.47,484.36c0,1.44-0.22,2.92,0.03,4.31c1.74,9.61,6.42,17.17,15.47,21.53
		c4.95,2.38,10.2,3.45,15.68,2.82c4.6-0.53,7.94-3.76,11.75-5.97c9.09-5.26,14.7-21.75,9.78-31.84c-2.35-4.82-4.71-9.51-8.82-13.05
		c-6.65-5.72-14.53-6.69-22.81-5.43C631.61,458.57,621.58,473.5,622.47,484.36z"/>
	<path d="M174.27,552.04c-7.13,0.12-14.19-0.32-20.92-2.8c-5.99-2.21-11.85-4.78-17.73-7.27c-0.9-0.38-1.67-1.15-2.39-1.85
		c-8.22-7.92-15.23-16.76-19.66-27.36c-2.88-6.9-4.95-14.13-5.78-21.55c-0.53-4.71-0.24-9.6,0.34-14.33
		c0.59-4.82,1.81-9.59,3.06-14.3c2.72-10.21,7.93-18.95,15.59-26.33c7.08-6.83,15.48-11.28,24.37-15.15
		c7.45-3.24,15.26-4.69,23.21-4.52c5.48,0.12,10.96,1.55,16.4,2.58c6.38,1.21,11.89,4.62,17.68,7.31
		c8.96,4.16,14.29,11.8,18.6,20.21c4.65,9.07,7.65,18.72,9.17,28.8c1.29,8.58,1.2,17.11-0.09,25.75
		c-2.42,16.21-10.22,29.19-22.52,39.67c-4.33,3.69-9.56,5.63-15.01,6.98c-5.1,1.26-10.21,2.52-15.38,3.48
		C180.29,551.88,177.25,551.83,174.27,552.04z M156.85,461.09c-1.19,1.73-2.41,3.43-3.56,5.18c-2.83,4.31-5.07,8.9-5.72,14.08
		c-0.35,2.77-0.47,5.56-0.68,8.34c-0.02,0.29,0,0.6,0.07,0.89c1.7,7.34,6.18,12.96,11.35,18.1c2.74,2.73,6.49,3.35,10.09,3.74
		c5.46,0.58,10.88-0.12,16.1-1.93c6.26-2.17,9.49-7.54,13.05-12.54c0.29-0.41,0.27-1.03,0.4-1.55c0.19-0.81,0.35-1.64,0.59-2.44
		c1.79-5.95,1.93-11.84-0.58-17.64c-0.62-1.43-1.17-2.9-1.96-4.23c-2.62-4.42-5.53-8.64-10.6-10.54c-4.14-1.56-8.32-3.03-12.57-4.22
		c-2.88-0.81-5.81-0.4-8.46,1.19c-2.46,1.48-4.92,2.94-7.38,4.41C156.96,461.74,156.9,461.4,156.85,461.09z"/>
</g>
</svg>
