<?xml version="1.0" encoding="utf-8"?>
<!-- Generator: Adobe Illustrator 28.3.0, SVG Export Plug-In . SVG Version: 6.00 Build 0)  -->
<svg version="1.1" id="Layer_1" xmlns="http://www.w3.org/2000/svg" xmlns:xlink="http://www.w3.org/1999/xlink" x="0px" y="0px"
	 viewBox="0 0 850.32 567" style="enable-background:new 0 0 850.32 567;" xml:space="preserve">
<g>
	<path d="M820.19,435.3c-17.5,0.09-34.57,0.26-51.81,1.12c-1.12,18.12-2.17,36.03-3.34,53.92c-1.18,17.91-2.48,35.82-3.75,53.95
		c-1.05,0-1.84,0.01-2.62,0c-4.4-0.07-8.79-0.16-13.19-0.2c-1.84-0.02-3.67,0.12-5.51,0.11c-12.07-0.09-24.15-0.21-36.22-0.32
		c-13.1-0.12-26.21-0.35-39.31-0.36c-13.2-0.01-26.39,0.15-39.59,0.3c-15.12,0.16-30.23,0.41-45.35,0.58
		c-6.63,0.08-13.27,0-19.9,0.09c-12.39,0.17-24.78,0.43-37.18,0.63c-8.46,0.13-16.92,0.2-25.38,0.32
		c-16.07,0.23-32.15,0.45-48.22,0.72c-23.27,0.39-46.54,0.87-69.81,1.22c-13.52,0.21-27.03,0.24-40.55,0.38
		c-13.91,0.14-27.82,0.2-41.73,0.56c-4.16,0.11-8.03-0.49-11.98-1.65c-13.15-3.86-26.37-7.52-39.54-11.31
		c-4.06-1.17-8.05-2.57-12.09-3.79c-5.95-1.79-11.94-3.41-17.87-5.26c-9.36-2.92-18.68-5.99-28.03-8.98
		c-9.64-3.09-19.29-6.13-28.92-9.26c-15.17-4.93-30.31-9.91-45.47-14.86c-2.73-0.89-5.49-1.7-8.22-2.57
		c-0.75-0.24-1.48-0.53-2.26-0.8c-0.16-1.98-0.35-3.86-0.45-5.75c-0.29-5.26-0.48-10.53-0.81-15.79
		c-0.46-7.25-1.05-14.49-1.54-21.74c-0.27-3.9-0.46-7.81-0.68-11.71c-0.32-5.58-0.69-11.16-0.96-16.74
		c-0.27-5.74-0.41-11.49-0.67-17.23c-0.27-5.9-0.62-11.8-0.93-17.71c-0.06-1.04-0.16-2.07-0.2-3.11c-0.2-5.03-0.28-10.06-0.61-15.08
		c-0.39-5.81-1-11.6-1.52-17.4c-0.17-1.91-0.45-3.81-0.52-5.72c-0.05-1.27-0.48-2.2-1.35-3.16c-6.31-6.9-12.58-13.83-18.8-20.81
		c-6.01-6.73-11.88-13.58-17.93-20.28c-4.27-4.74-8.75-9.29-13.1-13.96c-6.48-6.96-12.92-13.95-19.39-20.92
		c-0.6-0.64-1.29-1.19-1.94-1.78c-1.36-1.24-1.4-1.36-0.68-3.07c0.43-1.03,0.9-2.04,1.37-3.06c3.37-7.23,6.66-14.5,10.15-21.68
		c1.81-3.72,4.04-7.23,5.95-10.91c4.57-8.78,9.2-17.54,13.54-26.43c5.33-10.9,10.47-21.88,15.53-32.91
		c3.73-8.11,7.19-16.34,10.79-24.51c4.44-10.08,8.93-20.13,13.33-30.22c6.66-15.28,13.28-30.58,19.89-45.89
		c3.03-7.02,6.03-14.06,8.99-21.12c0.58-1.39,1.47-1.86,2.94-1.88c5.36-0.1,10.71-0.31,16.06-0.49c11.83-0.41,23.65-0.81,35.48-1.25
		c10.15-0.38,20.3-0.81,30.44-1.2c9.11-0.34,18.22-0.6,27.33-0.97c16.3-0.65,32.6-1.37,48.89-2.03c7.51-0.31,15.03-0.53,22.54-0.82
		c13.58-0.52,27.17-1.05,40.75-1.59c11.1-0.44,22.2-0.88,33.3-1.32c7.83-0.31,15.66-0.62,23.49-0.93c13.02-0.51,26.05-1,39.07-1.52
		c13.5-0.54,27-1.16,40.5-1.65c9.11-0.33,18.22-0.56,27.34-0.76c14.95-0.33,29.9-0.73,44.85-0.83c6.38-0.05,12.77,0.57,19.15,0.86
		c1.92,0.09,3.84,0.17,5.76,0.12c1.94-0.06,3.58,0.52,5.09,1.73c3.18,2.56,6.37,5.08,9.6,7.57c7.72,5.95,15.41,11.94,23.22,17.77
		c7.55,5.64,15.28,11.03,22.85,16.65c9.81,7.29,19.53,14.7,29.29,22.06c6.77,5.1,13.53,10.2,20.31,15.28
		c15.79,11.85,31.53,23.76,47.4,35.49c8.86,6.55,17.94,12.82,26.97,19.14c1.45,1.02,2.48,2.16,2.91,3.89
		c0.92,3.64,1.86,7.27,2.85,10.88c1.73,6.31,3.63,12.59,5.25,18.93c2.6,10.21,5.15,20.43,7.49,30.69c2.2,9.65,4.15,19.35,6.1,29.05
		c1.75,8.68,3.34,17.4,5.03,26.1c1.29,6.66,2.74,13.28,3.94,19.96c2.54,14.06,4.95,28.15,7.46,42.22c1.18,6.6,2.5,13.18,3.7,19.77
		c1.01,5.58,1.94,11.17,2.91,16.75c1.41,8.18,2.81,16.36,4.25,24.54c1.16,6.6,2.35,13.2,3.58,19.79c0.59,3.14,1.3,6.25,1.93,9.38
		C819.97,433.32,820.03,434.1,820.19,435.3z M324.23,263.11c0.29,1.3,0.48,2.31,0.75,3.3c1.58,5.86,3.29,11.68,4.76,17.56
		c3.22,12.93,6.34,25.88,9.48,38.83c2.74,11.32,5.36,22.67,8.22,33.96c1.94,7.66,4.15,15.25,6.31,22.84
		c3.15,11.05,6.23,22.13,9.6,33.12c2.37,7.7,5.16,15.28,7.8,22.9c0.43,1.25,1.08,2.43,1.6,3.59c1.28-0.18,2.3-0.35,3.32-0.45
		c3.65-0.36,7.31-0.72,10.97-1.03c5.4-0.44,10.81-0.87,16.22-1.24c5.82-0.4,11.64-0.75,17.47-1.07c11.25-0.62,22.5-1.19,33.75-1.81
		c3.35-0.18,6.7-0.45,10.05-0.68c4.15-0.28,8.29-0.55,12.44-0.82c4.46-0.3,8.93-0.58,13.39-0.89c6.62-0.45,13.23-0.93,19.85-1.36
		c4.06-0.26,8.14-0.41,12.2-0.68c6.13-0.41,12.26-0.9,18.39-1.33c2.23-0.16,4.47-0.21,6.7-0.39c5.57-0.47,11.14-1,16.71-1.47
		c4.77-0.4,9.55-0.72,14.32-1.15c5.25-0.47,10.48-1.18,15.73-1.52c9.81-0.64,19.63-1.13,29.44-1.61c3.83-0.19,7.68-0.09,11.51-0.24
		c13.1-0.52,26.2-1.1,39.3-1.64c8.46-0.35,16.92-0.7,25.38-1.03c5.83-0.22,11.67-0.39,17.5-0.62c4.31-0.17,8.63-0.33,12.94-0.64
		c9.4-0.67,18.8-1.44,28.2-2.16c2.71-0.21,5.42-0.36,8.12-0.57c6.69-0.5,13.38-1,20.07-1.54c2.53-0.2,5.04-0.51,7.73-0.78
		c-0.73-3.23-1.37-6.23-2.09-9.22c-0.96-3.94-2.03-7.86-2.97-11.81c-1.25-5.26-2.37-10.55-3.62-15.82
		c-1.38-5.81-2.88-11.58-4.26-17.39c-2.33-9.83-4.65-19.67-6.89-29.52c-2.05-8.99-4.02-17.99-5.98-27
		c-1.14-5.27-2.17-10.57-3.27-15.85c-0.94-4.51-1.92-9-2.84-13.51c-1.03-5.06-1.98-10.13-3.02-15.18c-1.02-4.97-2.12-9.93-3.18-14.9
		c-1.19-5.59-2.29-11.2-3.59-16.76c-1.52-6.49-3.15-12.95-4.86-19.39c-1.53-5.75-3.25-11.44-4.93-17.31
		c-2.54,0.41-4.97,0.76-7.39,1.21c-5.48,1.01-10.95,2.1-16.44,3.1c-4.4,0.8-8.8,1.57-13.21,2.28c-6.53,1.06-13.06,2.13-19.61,3.08
		c-5.13,0.74-10.28,1.34-15.43,1.95c-5.7,0.68-11.4,1.31-17.1,1.97c-4.44,0.51-8.88,1.03-13.32,1.54
		c-3.73,0.42-7.45,0.84-11.18,1.24c-3.96,0.43-7.93,0.82-11.9,1.27c-4.2,0.48-8.4,1.02-12.6,1.52c-3.65,0.43-7.31,0.73-10.94,1.25
		c-4.18,0.6-8.35,1.32-12.51,2.09c-7.21,1.33-14.42,2.72-21.62,4.13c-5.95,1.16-11.88,2.45-17.84,3.56
		c-8.62,1.6-17.27,3.06-25.9,4.62c-5.65,1.02-11.29,2.13-16.93,3.2c-7.92,1.51-15.84,2.95-23.74,4.55
		c-11.34,2.29-22.65,4.73-33.98,7.04c-11.26,2.29-22.54,4.46-33.79,6.76c-10.48,2.13-20.93,4.37-31.4,6.55
		c-5.39,1.12-10.77,2.3-16.18,3.3c-5.48,1.02-10.78,2.75-16.3,3.59c-4.01,0.61-7.96,1.66-11.93,2.57
		C329.31,261.75,326.93,262.41,324.23,263.11z M133.6,80.41c-0.62,0.86-1.08,1.37-1.41,1.97c-0.99,1.82-1.97,3.65-2.88,5.52
		c-7.13,14.65-14.28,29.3-21.34,43.98c-6.79,14.11-13.46,28.27-20.21,42.4c-4.3,9.01-8.62,18.01-13,26.99
		c-2.66,5.46-5.3,10.93-8.21,16.25c-2.94,5.37-5.28,11.02-8.75,16.17c-3.38,5-5.79,10.66-8.59,16.05c-1.21,2.32-1.11,2.72,0.74,4.61
		c2.24,2.28,4.48,4.56,6.74,6.82c10.29,10.27,20.65,20.48,30.86,30.82c3.93,3.98,7.52,8.28,11.31,12.4
		c7.24,7.89,14.35,15.91,21.81,23.58c7.24,7.45,14.82,14.57,22.32,21.76c6.69,6.42,13.44,12.77,20.23,19.08
		c5.04,4.68,10.19,9.23,15.28,13.84c4.09,3.7,8.16,7.42,12.26,11.11c0.98,0.88,2.04,1.68,3.1,2.55c0.68-1.23,1.16-2.22,1.75-3.14
		c4.47-6.99,8.9-14.02,13.48-20.95c6.63-10.04,12.72-20.41,19.36-30.44c7.63-11.52,14.99-23.22,22.72-34.67
		c8.22-12.18,16.7-24.18,25.16-36.2c2.89-4.1,5.68-8.23,7.82-12.78c0.4-0.86,0.79-1.73,1.25-2.75c-1.6-1.83-3.22-3.58-4.75-5.42
		c-6.47-7.81-12.92-15.64-19.35-23.48c-7.2-8.77-14.37-17.55-21.55-26.32c-6.22-7.6-12.34-15.28-18.68-22.78
		c-5.98-7.07-12.18-13.96-18.29-20.92c-7.07-8.04-14.08-16.13-21.24-24.09c-7.53-8.37-15.21-16.62-22.83-24.92
		c-6.91-7.54-13.81-15.08-20.74-22.6C136.64,83.4,135.21,82.04,133.6,80.41z M323.52,518.95c1.64,0.13,3.05,0.33,4.46,0.34
		c11.03,0.07,22.07,0.14,33.1,0.13c16.71-0.02,33.42-0.1,50.14-0.15c14.07-0.05,28.14-0.11,42.21-0.14
		c8.8-0.02,17.59,0.12,26.39,0.03c18.23-0.18,36.46-0.57,54.69-0.68c18.32-0.12,36.62-0.5,54.92-1.14
		c14.78-0.52,29.58-0.81,44.37-1.09c13.59-0.26,27.18-0.44,40.77-0.52c17.04-0.09,34.08-0.04,51.11-0.05c0.78,0,1.56,0,2.53,0
		c0.24-3.16,0.41-6.1,0.71-9.02c0.47-4.6,1.1-9.18,1.51-13.78c0.67-7.47,1.3-14.94,1.79-22.42c0.35-5.33,0.44-10.68,0.63-16.03
		c0.04-1.18,0.01-2.35,0.01-3.47c-3.88-0.14-7.53-0.5-11.16-0.36c-7.1,0.28-14.18,0.87-21.28,1.27c-7.26,0.41-14.53,0.75-21.79,1.11
		c-11.49,0.57-22.99,1.15-34.49,1.67c-8.78,0.4-17.57,0.75-26.36,1.08c-11.67,0.43-23.33,0.83-35,1.22
		c-11.51,0.39-23.01,0.76-34.52,1.12c-6.79,0.21-13.58,0.37-20.37,0.6c-3.59,0.12-7.18,0.31-10.77,0.51
		c-9.5,0.53-18.99,1.11-28.49,1.63c-7.34,0.41-14.68,0.76-22.02,1.16c-2.87,0.16-5.74,0.33-8.6,0.57
		c-5.73,0.48-11.46,1.04-17.19,1.52c-7.48,0.62-14.97,1.19-22.45,1.79c-2.31,0.19-4.61,0.38-6.91,0.62
		c-4.68,0.49-9.35,1.05-14.04,1.51c-6.19,0.61-12.4,1.04-18.58,1.76c-6.01,0.7-12,1.67-18.18,2.54c-0.26-0.66-0.57-1.38-0.85-2.11
		c-1.21-3.2-2.4-6.41-3.62-9.6c-3.86-10.04-7.85-20.03-11.58-30.12c-4.66-12.61-8.77-25.41-12.32-38.38
		c-1.85-6.74-3.8-13.46-5.67-20.19c-1.27-4.59-2.5-9.19-3.73-13.78c-0.18-0.66-0.32-1.28-1.33-0.96c-0.06,0.51-0.17,1.06-0.19,1.6
		c-0.22,6.22-0.35,12.44-0.68,18.67c-0.44,8.29-0.09,16.62-0.09,24.93c0,20.71-0.01,41.42,0,62.12c0,2.64-0.02,5.28,0.12,7.91
		c0.51,9.5,1.07,18.99,1.64,28.48C322.71,506.73,323.11,512.63,323.52,518.95z M288.67,521.99c0.09-1.25,0.19-2.19,0.23-3.13
		c0.2-3.99,0.4-7.98,0.57-11.97c0.32-7.82,0.58-15.64,0.94-23.45c0.24-5.26,0.59-10.52,0.9-15.78c0.27-4.54,0.53-9.08,0.83-13.62
		c0.17-2.63,0.37-5.26,0.62-7.88c0.5-5.23,1.19-10.45,1.51-15.7c0.37-6.14,0.51-12.29,0.61-18.44c0.24-15.58,0.4-31.17,0.6-46.75
		c0.02-1.2,0.09-2.4,0.15-3.59c0.31-5.66,0.61-11.32,0.94-16.98c0.11-1.91,0.23-3.83,0.41-5.73c0.4-4.13,0.82-8.25,1.26-12.37
		c0.38-3.63,0.8-7.26,1.2-10.89c0.21-1.9,0.37-3.8,0.63-5.69c0.49-3.54,1.09-7.06,1.56-10.6c0.42-3.14,0.75-6.3,1.08-9.45
		c0.09-0.82,0.01-1.65,0.01-2.48c-5.03,5.66-8.73,12.06-12.74,18.24c-4.05,6.23-8.14,12.44-12.2,18.66
		c-4.07,6.22-8.11,12.45-12.19,18.66c-4.08,6.21-8.17,12.41-12.28,18.6c-4.16,6.25-8.34,12.49-12.55,18.71
		c-4.17,6.15-8.38,12.27-12.59,18.39c-4.21,6.12-8.4,12.25-12.7,18.31c-4.27,6.03-7.82,12.53-12.25,18.75
		c-2.86-2.49-5.45-4.72-8.01-6.99c-2.57-2.28-5.11-4.59-7.68-6.88c-2.63-2.34-5.23-4.7-7.91-6.98c-2.62-2.22-5.34-4.31-7.97-6.52
		s-5.18-4.52-7.79-6.75s-5.26-4.41-7.87-6.65c-2.61-2.23-5.19-4.5-7.78-6.76c-2.65-2.31-5.28-4.63-7.93-6.94
		c-2.59-2.26-5.08-4.65-7.83-6.7c-2.69-2-4.82-4.72-8.02-6.66c0,1.23-0.03,2.01,0.01,2.79c0.24,4.71,0.55,9.42,0.75,14.13
		c0.46,10.62,0.83,21.24,1.31,31.86c0.44,9.66,0.97,19.31,1.46,28.97c0.3,5.99,0.68,11.97,0.86,17.96c0.06,2.07,0.84,3.12,2.78,3.78
		c5.52,1.87,11,3.85,16.47,5.85c8.24,3.03,16.48,6.07,24.68,9.19c9.25,3.52,18.44,7.2,27.69,10.72c6.34,2.41,12.7,4.8,19.13,6.97
		c6.88,2.32,13.85,4.34,20.77,6.54c12.93,4.11,25.84,8.25,38.77,12.36C282.21,520.09,285.33,520.99,288.67,521.99z M584.54,61.37
		c-0.06,1.19-0.13,1.82-0.12,2.45c0.16,22.21,0.27,44.43,0.54,66.64c0.09,7.58,0.55,15.15,0.91,22.73
		c0.38,8.06,0.84,16.12,1.29,24.17c0.07,1.33,0.31,2.64,0.48,4.05c1.33,0,2.45,0.11,3.54-0.02c4.19-0.51,8.37-1.12,12.56-1.66
		c5.93-0.76,11.87-1.49,17.8-2.22c1.82-0.23,3.65-0.43,5.47-0.65c3.96-0.47,7.91-0.97,11.87-1.42c4.12-0.47,8.25-0.88,12.37-1.34
		c4.36-0.48,8.71-1.02,13.07-1.48c3.49-0.37,6.99-0.62,10.47-1.01c3.01-0.34,6.01-0.78,9.01-1.2c5.45-0.76,10.9-1.49,16.33-2.33
		s10.85-1.78,16.27-2.71c0.8-0.14,1.57-0.49,2.78-0.89c-1.01-0.61-1.59-0.86-2.06-1.26c-3.23-2.73-6.4-5.54-9.67-8.21
		c-4.51-3.69-9.06-7.34-13.67-10.89c-3.99-3.07-8.13-5.94-12.14-8.98c-7.51-5.69-15.01-11.39-22.44-17.16
		c-8.95-6.95-17.82-14.02-26.77-20.97c-2.51-1.95-5.16-3.73-7.81-5.49c-0.97-0.64-2.13-0.91-2.48-2.31
		c-0.13-0.5-0.87-0.88-1.37-1.26c-6.79-5.18-13.59-10.36-20.39-15.53c-4.32-3.29-8.62-6.6-12.98-9.84
		C586.68,62.06,585.72,61.86,584.54,61.37z"/>
</g>
</svg>
